<svg xmlns="http://www.w3.org/2000/svg" xmlns:xlink="http://www.w3.org/1999/xlink" width="592.441" height="396.342" viewBox="0 0 592.441 396.342">
  <defs>
    <clipPath id="clip-path">
      <rect id="Rectángulo_4316" data-name="Rectángulo 4316" width="592.441" height="396.342" transform="translate(0 0)" fill="none"/>
    </clipPath>
  </defs>
  <g id="Grupo_31178" data-name="Grupo 31178" transform="translate(0 0.001)">
    <g id="Grupo_31177" data-name="Grupo 31177" transform="translate(0 -0.001)" clip-path="url(#clip-path)">
      <path id="Trazado_27798" data-name="Trazado 27798" d="M605.209,1365.418H57.318a3.141,3.141,0,0,0,0,6.282H605.3a3.141,3.141,0,0,0,3.138-3.293,3.2,3.2,0,0,0-3.227-2.99" transform="translate(-38.7 -975.359)" fill="#11508f"/>
      <path id="Trazado_27799" data-name="Trazado 27799" d="M699.424,233.285a1.673,1.673,0,0,1-.7-3.192l59.789-27.53a1.672,1.672,0,0,1,1.4,3.038l-59.788,27.53a1.67,1.67,0,0,1-.7.154" transform="translate(-498.424 -144.587)"/>
      <path id="Trazado_27800" data-name="Trazado 27800" d="M683.033,364.665a1.639,1.639,0,0,1-.214-.014,1.672,1.672,0,0,1-1.447-1.871l16.056-125.772a1.672,1.672,0,1,1,3.318.423L684.689,363.2a1.672,1.672,0,0,1-1.657,1.46" transform="translate(-486.715 -168.258)"/>
      <path id="Trazado_27801" data-name="Trazado 27801" d="M905.364,196.663c-5.373-12.763-16.778-20.142-25.474-16.481s-11.39,16.975-6.017,29.738a35.369,35.369,0,0,0,4.949,8.38L907.9,206.06a35.377,35.377,0,0,0-2.534-9.4" transform="translate(-622.259 -128.039)" fill="#6aa1e6"/>
      <path id="Trazado_27802" data-name="Trazado 27802" d="M727.016,271.562a6.578,6.578,0,1,1-6.578-6.578,6.578,6.578,0,0,1,6.578,6.578" transform="translate(-509.932 -189.286)"/>
      <path id="Trazado_27803" data-name="Trazado 27803" d="M1407.611,552.576a201.716,201.716,0,0,1-23.036-4.695s-1.963-22.145-2.044-22.967c-.706-11.372-2.119-18.953,5.24-27.055,3.495-3.847,19.733-1.487,22.447,12.2,2.515,12.69-.138,30.688-1.86,41.949l-.1.646Z" transform="translate(-987.159 -354.451)" fill="#9469bf"/>
      <path id="Trazado_27804" data-name="Trazado 27804" d="M214.328,784.5s-56.971-40.887-64.995-58.614,7.813-16.028,7.813-16.028-23.221-31.523-17.444-42.213,15.674-5.486,15.674-5.486-8.508-35.013.548-37.6c16.867-4.827,31.728,41.454,31.728,41.454s1.782-18.441,9.027-16.918c16.133,3.391,8.465,45.394,8.465,45.394s4.5-15.762,13.42-8.92c16.006,12.277-4.234,98.936-4.234,98.936" transform="translate(-99.133 -445.884)" fill="#386eba"/>
      <path id="Trazado_27805" data-name="Trazado 27805" d="M263.153,683.256c-8.458-5.868-14.217,3.123-14.217,3.123s6.666-33.544-9.388-37.292c-8.434-1.969-9.027,16.918-9.027,16.918s-14.861-46.281-31.728-41.454l58.589,159.277c2.271-10.068,19.267-91.209,5.77-100.572" transform="translate(-142.005 -445.884)" fill="#5684c4"/>
      <path id="Trazado_27806" data-name="Trazado 27806" d="M99.558,1023.986s-58.6.022-66.747-.926.854-8.223.854-8.223-18.233.664-21.012-3.771,4.668-6.182,4.668-6.182S-.837,999.622.03,995.761c1.615-7.192,21.669-2.5,21.669-2.5s-7.449-3.615-4.421-6.977c4.566-5.07,24.063,8.714,24.063,8.714s-5.989-12.024-3-15.6c11.661-13.957,61.218,44.592,61.218,44.592" transform="translate(0 -698.074)" fill="#b3c8e5"/>
      <path id="Trazado_27807" data-name="Trazado 27807" d="M399.357,928s56.116-10.89,68.521-21.307-2.811-11.227-2.811-11.227,33.266-12.6,32.847-22.765-14.7-10.767-14.7-10.767,19.852-17.784,15.776-26.4c-6.263-13.247-34.656,11.876-34.656,11.876s.688-21.879-8.118-23.984c-13.28-3.174-24.751,37.906-24.751,37.906s-2.026-9.917-11.149-8.027c-16.368,3.39-20.96,74.7-20.96,74.7" transform="translate(-285.273 -588.067)" fill="#9fb9de"/>
      <path id="Trazado_27808" data-name="Trazado 27808" d="M252.115,1202.414h78.751c10.03-11.344,11.036-28.1,10.813-45.242-.113-8.656,3.554-15.07.553-22.48L240.7,1136.106a67.428,67.428,0,0,0-4.2,24.452,64.6,64.6,0,0,0,15.617,41.856" transform="translate(-168.934 -810.545)" fill="#5cb30b"/>
      <path id="Trazado_27809" data-name="Trazado 27809" d="M1219.25,60.727c11.688-3.623,21.983,8.948,16.175,19.777a9.215,9.215,0,0,0-.82,6.37l1.662,7.411A4.015,4.015,0,0,1,1233.539,99l-4.428,1.372a4.015,4.015,0,0,1-4.916-2.344c-2.836-7.091-3.368-9.911-7.1-11.841-10.913-5.645-9.536-21.835,2.155-25.458" transform="translate(-864.086 -42.924)" fill="#6aa1e6"/>
      <path id="Trazado_27810" data-name="Trazado 27810" d="M1245.316,114.7c-2.078-5.805-4.142-12.275-4.835-14.719a18.568,18.568,0,0,1-6.654,1.25c1.957,4.725,3.808,9.543,5.513,14.349l-.621.221c-1.732-4.886-3.617-9.783-5.61-14.582-1.386-.051-3.016-.185-4.006-1.128a2.421,2.421,0,0,1-.728-1.759c.04-1.713,1.991-2.215,3.292-1.129.862.72,1.265,1.88,1.886,3.368a17.884,17.884,0,0,0,6.757-1.23,6.046,6.046,0,0,1,0-3.631c1.53-4.082,7.146,1.267.784,4.021.537,1.914,2.629,8.565,4.842,14.749Zm-4.39-18.76a5.357,5.357,0,0,0,0,3.144,3.873,3.873,0,0,0,2.42-2.2c.426-1.456-1.6-3.142-2.42-.945m-11.546,1.6a1.492,1.492,0,0,0,.177,2.073,5.2,5.2,0,0,0,3.272.933,7.334,7.334,0,0,0-1.583-2.838,2.668,2.668,0,0,0-1.865-.168" transform="translate(-877.465 -67.309)" fill="#e0eeff"/>
      <path id="Trazado_27811" data-name="Trazado 27811" d="M1263.7,153.19c.013.062.019.125.033.187l1.662,7.411a4.015,4.015,0,0,1-2.729,4.714l-4.428,1.372a4.015,4.015,0,0,1-4.916-2.344c-1.262-3.154-2.067-5.462-2.9-7.224Z" transform="translate(-893.213 -109.428)" fill="#b3d5ff"/>
      <path id="Trazado_27812" data-name="Trazado 27812" d="M1256.091,8.875l.281-7.51a1.317,1.317,0,1,0-2.632-.1l-.282,7.51a1.317,1.317,0,1,0,2.632.1" transform="translate(-895.383 0.001)" fill="#b3d5ff"/>
      <path id="Trazado_27813" data-name="Trazado 27813" d="M1307.327,52.19l6.731-4.135a1.317,1.317,0,1,0-1.379-2.244l-6.732,4.135a1.317,1.317,0,1,0,1.379,2.244" transform="translate(-932.43 -32.584)" fill="#b3d5ff"/>
      <path id="Trazado_27814" data-name="Trazado 27814" d="M1348.827,123.318a1.317,1.317,0,0,0-.842-1.661,42.994,42.994,0,0,0-7.964-1.785,1.317,1.317,0,0,0-.329,2.613,40.415,40.415,0,0,1,7.474,1.675,1.316,1.316,0,0,0,1.661-.843" transform="translate(-956.159 -85.62)" fill="#b3d5ff"/>
      <path id="Trazado_27815" data-name="Trazado 27815" d="M1180.294,33.026a1.317,1.317,0,0,0,.113-1.859,50.074,50.074,0,0,1-6.026-8.42,1.317,1.317,0,0,0-2.289,1.3,52.762,52.762,0,0,0,6.342,8.864,1.317,1.317,0,0,0,1.859.113" transform="translate(-837.137 -15.772)" fill="#b3d5ff"/>
      <path id="Trazado_27816" data-name="Trazado 27816" d="M1164.1,102.028a1.318,1.318,0,0,0-1.522-1.074l-8.421,1.453a1.317,1.317,0,1,0,.448,2.6l8.422-1.453a1.317,1.317,0,0,0,1.074-1.522" transform="translate(-823.666 -72.1)" fill="#b3d5ff"/>
      <path id="Trazado_27817" data-name="Trazado 27817" d="M1178.93,171.75a1.311,1.311,0,0,0,.3-.2,41.322,41.322,0,0,0,5.86-6.6,1.317,1.317,0,0,0-2.146-1.528,38.72,38.72,0,0,1-5.485,6.181,1.317,1.317,0,0,0,1.474,2.153" transform="translate(-840.784 -116.338)" fill="#b3d5ff"/>
      <rect id="Rectángulo_4298" data-name="Rectángulo 4298" width="121.236" height="39.945" transform="translate(261.315 216.692)" fill="#11508f"/>
      <rect id="Rectángulo_4299" data-name="Rectángulo 4299" width="9.201" height="20.375" transform="translate(248.729 369.87)"/>
      <rect id="Rectángulo_4300" data-name="Rectángulo 4300" width="9.201" height="20.049" transform="translate(197.724 370.185)"/>
      <path id="Trazado_27818" data-name="Trazado 27818" d="M1686.1,1106.669h9.7c-13.316-8.648-20.951-31.1-24.924-46.133a333.827,333.827,0,0,1-9.467-57.4l-13.185,1.923c4.154,27.393,15.409,80.786,37.871,101.609" transform="translate(-1177.382 -716.571)" fill="#386eba"/>
      <rect id="Rectángulo_4301" data-name="Rectángulo 4301" width="147.452" height="155.847" transform="translate(161.32 214.408)" fill="#386eba"/>
      <rect id="Rectángulo_4302" data-name="Rectángulo 4302" width="10.853" height="179.366" transform="translate(161.518 210.95)"/>
      <path id="Trazado_27819" data-name="Trazado 27819" d="M557.973,679.667h93.812a6.612,6.612,0,0,0,6.488-6.73v-4a6.612,6.612,0,0,0-6.488-6.729H557.973a13.29,13.29,0,0,1,.173,17.256Z" transform="translate(-398.577 -473.034)" fill="#9469bf"/>
      <path id="Trazado_27820" data-name="Trazado 27820" d="M563.033,669.209h52.033a6.734,6.734,0,0,1,0,13.459H563.028a13.35,13.35,0,0,0,0-13.459" transform="translate(-402.188 -478.036)" fill="#e0eeff"/>
      <path id="Trazado_27821" data-name="Trazado 27821" d="M653.337,619.422h78.144a4.394,4.394,0,0,1,4.394,4.394v3.7a4.393,4.393,0,0,1-4.394,4.394H653.337l.041-.043a8.948,8.948,0,0,0-.041-12.441" transform="translate(-466.698 -442.471)" fill="#b192d0"/>
      <path id="Trazado_27822" data-name="Trazado 27822" d="M658.18,625.89h41.774a4.394,4.394,0,0,1,0,8.788H658.181a8.962,8.962,0,0,0,0-8.788" transform="translate(-470.158 -447.092)" fill="#e0eeff"/>
      <path id="Trazado_27823" data-name="Trazado 27823" d="M1252.529,508.618c-5.882-7.47-18.353-2.75-13.725,22,.026.139,1.286,19.436.721,26.9-5.93-1.379-16.735-4.964-24.621-5.369,0,0-9.647-9.4-13.442-11.109-2.812-1.267-10.441-.626-10.441-.626s-11.119,5.873-10.258,7.768c1.176,2.592,7.586-4.768,11.088-3.571,0,0-8.108,4.544-6.176,5.367s5.169-.257,6.744-.367,7.266,4.582,11.7,6.912c.732.385,2.443,1.886,5.786,3.721,3.391,1.861,6.959,5,11.589,6.91,12.451,5.132,26.29,11.937,31.079,8.286l-.025-.053c5.472-6.471,9.788-54.312-.019-66.766" transform="translate(-843.422 -361.01)" fill="#f19a5e"/>
      <path id="Trazado_27824" data-name="Trazado 27824" d="M1493.981,569.325h0c-6.641-1.422-13.3,2.3-14.99,8.374L1454.183,666.9a7.7,7.7,0,0,1-7.543,5.387h-75.777a11.432,11.432,0,0,0-.415,22.857l91.107,3.308c6.065,0,12.835-8.186,14.3-13.6L1503.3,583.341c1.689-6.247-2.508-12.556-9.323-14.016" transform="translate(-971.082 -406.469)" fill="#11508f"/>
      <path id="Trazado_27825" data-name="Trazado 27825" d="M1386.916,1084.792h4.906c4.428-30.469,5.325-66.175.375-112.281l-11.873.242c7.881,45.76,9.178,81.5,6.592,112.039" transform="translate(-986.007 -694.693)" fill="#11508f"/>
      <rect id="Rectángulo_4303" data-name="Rectángulo 4303" width="12.82" height="181.39" transform="translate(372.189 209.296)"/>
      <path id="Trazado_27826" data-name="Trazado 27826" d="M1121.829,1229.107c-3.333,6.2-11.482,26.634-11.79,28.181a7.571,7.571,0,0,1-1.629,2.219c-10.521,1.054-18.217-4.595-24.061-10.164,5.518.387,13.951-1.038,15.179-1.248,3.2-.547,2.858-10.282,4.686-21.219,2.838,1.3,13.484-1.511,17.615,2.23" transform="translate(-774.583 -876.395)" fill="#f4ae7e"/>
      <path id="Trazado_27827" data-name="Trazado 27827" d="M1074.475,1310.52c-.871,3.421-4.49,9.728-5.189,9.547-.836-.216-31.891-11.366-34.563-15.816-1.649-2.745,6.841-2.877,13.676-2.527,5.844,5.57,24.281,9.683,26.077,8.8" transform="translate(-738.985 -929.76)" fill="#386eba"/>
      <path id="Trazado_27828" data-name="Trazado 27828" d="M1267.939,853.522l-64.144,7.061-34.442,88.309-20.931-4.1s11.748-94.362,18.59-102.259c18.664-21.538,83.871-18.989,83.871-18.989Z" transform="translate(-820.352 -588.217)" fill="#4ea300"/>
      <path id="Trazado_27829" data-name="Trazado 27829" d="M1306.122,1247.116c-.267,4.2-1.23,9.292-1.041,14.2a39.509,39.509,0,0,0,1.5,7.913,7.593,7.593,0,0,1-.555,2.7c-9.123,5.344-18.474,3.419-26.108.793a27.257,27.257,0,0,0,10.08-7.239c2.2-2.389.632-9.551-2.267-20.254,3.122,0,13.08.218,18.4,1.9" transform="translate(-914.28 -889.498)" fill="#f4ae7e"/>
      <path id="Trazado_27830" data-name="Trazado 27830" d="M1322.048,791.046s-67.15,3.635-84.082,28.417c-12.669,18.543,18.879,110,18.879,110l18.984-3.5s-4.374-61.976-7.537-82.424c-.536-3.465-3-13.7-3-13.7s71.941,7.072,83.613,1,16.565-22.528,11.429-33.266-38.282-6.536-38.282-6.536" transform="translate(-882.173 -564.489)" fill="#5cb30b"/>
      <path id="Trazado_27831" data-name="Trazado 27831" d="M1272.617,1328.758c1.184,2.169,1.8,10.571,1.085,10.7-.85.152-36.539,2.151-40.824-.78-2.643-1.808,6.752-3.756,13.11-6.288,7.634,2.626,26.245-1.305,26.629-3.629" transform="translate(-880.355 -949.172)" fill="#386eba"/>
      <path id="Trazado_27832" data-name="Trazado 27832" d="M1377.459,457.54c-5.981,1.046-6.347,5.877-6.347,5.877l-6.126,25.531s-.563,10.815.678,14.953c2.415,8.05,7.3,11.225,15.293,13.96,10.6,3.627,14.791,12.766,19.361,18.1,7.931,9.253,1.477,20.323,1.477,20.323l21.09,6.657,31.551-4.237s3.545-5.459-9.011-35.861c-10.9-26.4-37.039-70.712-67.967-65.3" transform="translate(-974.96 -326.511)" fill="#b192d0"/>
      <path id="Trazado_27833" data-name="Trazado 27833" d="M1433.439,948.726h4.817c6.236-45.97,4.353-97.185-1.809-142.98a8.763,8.763,0,0,1,8.269-9.926l72.534-3.436v-5.009c-.029,0-61.325-3.751-88.862-5.33a7.862,7.862,0,0,0-8.117,9.583c.808,3.584,1.771,8.083,2.826,13.474,9.057,45.945,14.039,96.865,10.342,143.625" transform="translate(-1014.402 -558.627)" fill="#386eba"/>
      <path id="Trazado_27834" data-name="Trazado 27834" d="M1283.333,470.019c-6.8-7.47-18.842-2.676-13.49,22.075.03.139-.016,23.979-.669,31.44-6.856-1.379-21.629-8.028-30.994-10.257,0,0-9.5-9.129-13.889-10.838-3.251-1.267-12.071-.626-12.071-.626s-12.855,5.873-11.861,7.768c1.36,2.592,8.772-4.768,12.82-3.57,0,0-9.375,4.544-7.141,5.367s5.976-.257,7.8-.367,6.819,5.273,11.946,7.6a73.576,73.576,0,0,1,8.271,3.029c3.921,1.861,42.908,29.1,46.493,23.519,9.5-14.781,14.126-62.69,2.788-75.144" transform="translate(-857.412 -333.447)" fill="#f4ae7e"/>
      <path id="Trazado_27835" data-name="Trazado 27835" d="M1447.416,512.77a201.782,201.782,0,0,1-23.036-4.695s-1.964-22.145-2.044-22.966c-.707-11.372-2.119-18.953,5.24-27.055,3.495-3.847,19.734-1.486,22.447,12.205,2.515,12.689-.138,30.688-1.861,41.949l-.1.646Z" transform="translate(-1015.593 -326.016)" fill="#9469bf"/>
      <path id="Trazado_27836" data-name="Trazado 27836" d="M1363.351,164.582a15.329,15.329,0,0,0-6.942-2.484c2.183-17.223-21.292-30.673-34-9.861-13.719,22.465-13.819,3.821-30.759,3.246s-16.931,27.3-17.776,34.632a7.063,7.063,0,0,1-2,4.514,23.714,23.714,0,0,0-7.769-9.564c-9.833-6.862-29.18-3.254-34.968,8.87-4.485,9.4-3.074,21.365,9.575,31.94,7.8,6.52,21.845,5.376,28.975-1.2a22.427,22.427,0,0,0,6.76-14.106c8.552,12.394,14.888,13.88,23.531,9.958,10.382-4.712,5.061-14.285,15.883-13.6s21.8,28.42,41.9,7.873c7.359-7.523,10.3-15.746,9.778-23.527,1.049-.96.98-2.363,1.807-3.607,5.2-7.829,3.414-18.166-3.994-23.089" transform="translate(-876.349 -101.19)" fill="#262526"/>
      <path id="Trazado_27837" data-name="Trazado 27837" d="M1334.069,394.059a34.07,34.07,0,0,0,16.605,17.98c1.592.81-18.044,32.391-18.053,32.014-.057-2.437,3.395-16.664,2.556-18.412-2.3-4.785-15.63-26.6-15.63-26.6Z" transform="translate(-942.593 -281.488)" fill="#f4ae7e"/>
      <path id="Trazado_27838" data-name="Trazado 27838" d="M1326.652,396.6l-7.1,2.437c.013.021,5.859,9.587,10.472,17.433a15.49,15.49,0,0,0,4.24-5.951,22.642,22.642,0,0,0,1.42-12.927,22.993,22.993,0,0,1-1.611-3.535Z" transform="translate(-942.593 -281.489)" fill="#d48a57"/>
      <path id="Trazado_27839" data-name="Trazado 27839" d="M1253.446,316.1a19.537,19.537,0,0,1,13.282-.1c6.919,2.592,19.352,19.414,12.945,34.17s-21.724,7.423-28.523-1.936-13.566-23.471,2.3-32.135" transform="translate(-888.426 -224.92)" fill="#f4ae7e"/>
      <path id="Trazado_27840" data-name="Trazado 27840" d="M1281.334,314.9c-5.483-9.52-11.5-15.1-19.951-12.938s-16.035,3.614-16.6,13.535l-.609,1.694s12.242-5.979,17.318-1.3,15.711,6.208,17.124,9.453,4.91,9.119,4.91,9.119l.631-3.647s2.664-6.4-2.818-15.916" transform="translate(-888.747 -215.368)" fill="#262526"/>
      <path id="Trazado_27841" data-name="Trazado 27841" d="M1327.723,351.063c1.144,2.954,3.73,4.659,5.775,3.809s2.777-3.933,1.633-6.886-3.73-4.659-5.776-3.809-2.777,3.933-1.633,6.886" transform="translate(-948.046 -245.699)" fill="#f4ae7e"/>
      <rect id="Rectángulo_4304" data-name="Rectángulo 4304" width="12.182" height="179.367" transform="translate(306.716 210.95)"/>
      <path id="Trazado_27842" data-name="Trazado 27842" d="M835.683,407.824a21.825,21.825,0,0,1,12.264,12.152c4.794,12.487-2.62,32.5-.5,38.073s12.1,11.651,12.1,11.651l22.632-8.027s-7.916-14.94-7.693-20.068-.557-29.322-10.034-33.782Z" transform="translate(-596.953 -291.321)" fill="#e0eeff"/>
      <path id="Trazado_27843" data-name="Trazado 27843" d="M893.441,423.547H875.157a.446.446,0,0,1,0-.892h18.284a.446.446,0,0,1,0,.892" transform="translate(-624.832 -301.915)" fill="#11508f"/>
      <path id="Trazado_27844" data-name="Trazado 27844" d="M903.643,435.646h-18.73a.446.446,0,1,1,0-.892h18.73a.446.446,0,1,1,0,.892" transform="translate(-631.801 -310.558)" fill="#11508f"/>
      <path id="Trazado_27845" data-name="Trazado 27845" d="M921.54,449.3H908.719a.446.446,0,1,1,0-.892H921.54a.446.446,0,0,1,0,.892" transform="translate(-648.807 -320.315)" fill="#11508f"/>
      <rect id="Rectángulo_4305" data-name="Rectángulo 4305" width="20.217" height="4.98" transform="translate(251.736 201.458)" fill="#11508f"/>
      <rect id="Rectángulo_4306" data-name="Rectángulo 4306" width="21.555" height="5.983" transform="translate(320.86 200.417)" fill="#11508f"/>
      <path id="Trazado_27846" data-name="Trazado 27846" d="M864,553.9h-6.987V542.079h6.169Z" transform="translate(-612.193 -387.223)" fill="#11508f"/>
      <path id="Trazado_27847" data-name="Trazado 27847" d="M852.518,493.906a9.068,9.068,0,1,1-9.068-9.068,9.068,9.068,0,0,1,9.068,9.068" transform="translate(-596.024 -346.334)" fill="#5684c4"/>
      <path id="Trazado_27848" data-name="Trazado 27848" d="M858.986,504.687a4.757,4.757,0,1,1-4.757-4.757,4.757,4.757,0,0,1,4.757,4.757" transform="translate(-606.803 -357.115)" fill="#11508f"/>
      <path id="Trazado_27849" data-name="Trazado 27849" d="M906.172,468.242a3.568,3.568,0,1,1-3.568-3.567,3.568,3.568,0,0,1,3.568,3.567" transform="translate(-642.208 -331.931)" fill="#11508f"/>
      <path id="Trazado_27850" data-name="Trazado 27850" d="M874.216,511.692l-1.7-2.35c.1-.07,9.685-7.051,11.629-12.781,1.91-5.63-.609-11.85-.635-11.912l2.677-1.113c.122.294,2.971,7.271.7,13.956-2.241,6.606-12.252,13.892-12.677,14.2" transform="translate(-623.267 -345.405)" fill="#11508f"/>
      <path id="Trazado_27851" data-name="Trazado 27851" d="M987.349,468.242a3.568,3.568,0,1,1-3.568-3.567,3.568,3.568,0,0,1,3.568,3.567" transform="translate(-700.196 -331.931)" fill="#11508f"/>
      <path id="Trazado_27852" data-name="Trazado 27852" d="M955.393,511.692l-1.7-2.35c.1-.07,9.685-7.051,11.629-12.781,1.91-5.63-.61-11.85-.635-11.912l2.677-1.113c.122.294,2.971,7.271.7,13.956-2.241,6.606-12.251,13.892-12.676,14.2" transform="translate(-681.254 -345.405)" fill="#11508f"/>
      <rect id="Rectángulo_4307" data-name="Rectángulo 4307" width="21.071" height="1.784" transform="translate(261.065 134.974)" fill="#11508f"/>
      <path id="Trazado_27853" data-name="Trazado 27853" d="M1002.838,499.564c0,4.434-3.128,8.027-6.987,8.027s-6.987-3.594-6.987-8.027,3.128-8.027,6.987-8.027,6.987,3.594,6.987,8.027" transform="translate(-706.375 -351.119)" fill="#5684c4"/>
      <rect id="Rectángulo_4308" data-name="Rectángulo 4308" width="17.244" height="16.296" transform="translate(272.418 140.455)" fill="#5684c4"/>
      <path id="Trazado_27854" data-name="Trazado 27854" d="M941.937,499.825a8.485,8.485,0,1,1-8.473-8.027,8.259,8.259,0,0,1,8.473,8.027" transform="translate(-660.749 -351.306)" fill="#11508f"/>
      <path id="Trazado_27855" data-name="Trazado 27855" d="M1136.47,615.951c0,.924-1.722,1.672-3.846,1.672s-3.847-.748-3.847-1.672,1.722-1.672,3.847-1.672,3.846.749,3.846,1.672" transform="translate(-806.32 -438.798)" fill="#11508f"/>
      <path id="Trazado_27856" data-name="Trazado 27856" d="M1167.414,630.893c0,.877-1.4,1.589-3.122,1.589s-3.121-.712-3.121-1.589,1.4-1.589,3.121-1.589,3.122.712,3.122,1.589" transform="translate(-829.459 -449.53)" fill="#11508f"/>
      <path id="Trazado_27857" data-name="Trazado 27857" d="M1201.758,630.893c0,.877-1.4,1.589-3.121,1.589s-3.122-.712-3.122-1.589,1.4-1.589,3.122-1.589,3.121.712,3.121,1.589" transform="translate(-853.992 -449.53)" fill="#11508f"/>
      <path id="Trazado_27858" data-name="Trazado 27858" d="M1184.976,618.4c0,.878-1.4,1.589-3.122,1.589s-3.122-.711-3.122-1.589,1.4-1.589,3.122-1.589,3.122.711,3.122,1.589" transform="translate(-842.004 -440.61)" fill="#11508f"/>
      <rect id="Rectángulo_4309" data-name="Rectángulo 4309" width="1.561" height="11.65" transform="translate(334.109 182.003)" fill="#11508f"/>
      <path id="Trazado_27859" data-name="Trazado 27859" d="M1151.8,641.821c0,.877-1.4,1.589-3.122,1.589s-3.121-.712-3.121-1.589,1.4-1.589,3.121-1.589,3.122.712,3.122,1.589" transform="translate(-818.309 -457.337)" fill="#11508f"/>
      <rect id="Rectángulo_4310" data-name="Rectángulo 4310" width="1.561" height="11.65" transform="translate(329.649 185.125)" fill="#11508f"/>
      <rect id="Rectángulo_4311" data-name="Rectángulo 4311" width="1.561" height="11.651" transform="translate(325.524 178.213)" fill="#11508f"/>
      <rect id="Rectángulo_4312" data-name="Rectángulo 4312" width="1.561" height="11.651" transform="translate(343.92 181.948)" fill="#11508f"/>
      <rect id="Rectángulo_4313" data-name="Rectángulo 4313" width="1.561" height="12.32" transform="translate(339.07 178.993)" fill="#11508f"/>
      <path id="Trazado_27860" data-name="Trazado 27860" d="M948.065,575.467v13.459H837.244V552.581h16.873l6.54-11.818,40.881-.2,4.025-.018c-1.692,23.551,20.546,40.937,42.5,34.918" transform="translate(-598.069 -386.13)" fill="#11508f"/>
      <path id="Trazado_27861" data-name="Trazado 27861" d="M1108.638,575.467v4.148a37.712,37.712,0,0,1-46.527-39.048l4.025-.018c-1.692,23.551,20.546,40.937,42.5,34.918" transform="translate(-758.642 -386.13)" fill="#5684c4"/>
      <path id="Trazado_27862" data-name="Trazado 27862" d="M931.678,619.683H853.412V592.7a.669.669,0,1,0-1.338,0v27.649a.669.669,0,0,0,.669.669h78.935a.669.669,0,0,0,0-1.338" transform="translate(-608.662 -422.907)" fill="#5684c4"/>
      <path id="Trazado_27863" data-name="Trazado 27863" d="M457.663,733.511H723.22a4.708,4.708,0,0,0,4.708-4.708V727.18a4.708,4.708,0,0,0-4.708-4.708H457.663a4.707,4.707,0,0,0-4.708,4.708V728.8a4.707,4.707,0,0,0,4.708,4.708" transform="translate(-323.559 -516.083)"/>
      <path id="Trazado_27864" data-name="Trazado 27864" d="M573.784,531.8l-5.15.483-4.7-43.341,1.61-8.4,3.54,7.915Z" transform="translate(-402.839 -343.27)" fill="#9469bf"/>
      <path id="Trazado_27865" data-name="Trazado 27865" d="M569.165,494.593l-.009-.079-2.458-5.5-1.572.135-1.093,5.7a22.415,22.415,0,0,0,5.131-.262" transform="translate(-402.906 -349.32)" fill="#c8d5e6"/>
      <path id="Trazado_27866" data-name="Trazado 27866" d="M588.794,558.074l-5.147-.5,4.752-38.763c.158-1.4,1.257-4.451,2.664-4.313,1.436.14,1.583,3.371,1.422,4.805Z" transform="translate(-416.917 -367.516)" fill="#11508f"/>
      <path id="Trazado_27867" data-name="Trazado 27867" d="M608.029,511.7l-.037,0a.3.3,0,0,1-.257-.33l.689-5.513a.3.3,0,0,1,.586.073l-.689,5.513a.3.3,0,0,1-.293.259" transform="translate(-434.122 -361.159)" fill="#11508f"/>
      <path id="Trazado_27868" data-name="Trazado 27868" d="M562.345,631.386H547.828a4.235,4.235,0,0,1-4.235-4.234V594.909H566.58v32.242a4.235,4.235,0,0,1-4.235,4.234" transform="translate(-388.305 -424.961)" fill="#5cb30b"/>
      <path id="Trazado_27869" data-name="Trazado 27869" d="M557.327,627.151V594.909H543.594v32.242a4.234,4.234,0,0,0,4.235,4.234h5.263a4.235,4.235,0,0,0,4.235-4.234" transform="translate(-388.306 -424.961)" fill="#5cb30b"/>
      <path id="Trazado_27870" data-name="Trazado 27870" d="M1166.563,530.633l-1.069,2.277a1.535,1.535,0,1,1-2.761-1.341l5.555-11.067,4.044.688,1.633,12.285a1.535,1.535,0,0,1-1.779,1.715l-.138-.023a1.535,1.535,0,0,1-1.265-1.324l-.316-2.545Zm3.85-1.717-.357-3.037c-.1-.85-.175-1.9-.24-2.746l-.04-.007c-.34.774-.718,1.771-1.075,2.522l-1.3,2.755Z" transform="translate(-830.458 -371.809)" fill="#5cb30b"/>
      <path id="Trazado_27871" data-name="Trazado 27871" d="M1087.739,463.237a32.188,32.188,0,0,1,4.561-2.6c2.229-1.068,3.7-1.507,5.205-1.375a3.9,3.9,0,0,1,3.457,2.233,4.05,4.05,0,0,1-1.006,4.726l.023.047a4.482,4.482,0,0,1,5.118,2.439,4.773,4.773,0,0,1-.035,4.231c-.726,1.5-2.438,2.966-5.649,4.506a31.511,31.511,0,0,1-4.069,1.656Zm6.582,4.448,1.2-.575c1.917-.919,2.569-2.2,1.994-3.4-.586-1.222-1.83-1.421-3.484-.628a10.94,10.94,0,0,0-1.512.842Zm3.434,7.165a12.8,12.8,0,0,0,1.437-.63c1.653-.792,2.817-2.116,2-3.817-.781-1.63-2.553-1.577-4.375-.7l-1.246.6Z" transform="translate(-777.005 -328.049)" fill="#87bdff"/>
      <path id="Trazado_27872" data-name="Trazado 27872" d="M1156.462,389.471a1.8,1.8,0,0,1-1.122,2.264,16.816,16.816,0,0,1-3.253.733c-6.713.865-10.708-2.868-11.421-8.4-.854-6.627,3.4-10.923,9.273-11.681a15.02,15.02,0,0,1,3.07-.093,1.79,1.79,0,0,1,1.618,2.01l-.008.066a1.8,1.8,0,0,1-1.932,1.568,9.959,9.959,0,0,0-2.078.053c-3.486.449-5.923,2.9-5.367,7.223.5,3.889,3.122,6.042,7.041,5.537a11.663,11.663,0,0,0,1.96-.44,1.787,1.787,0,0,1,2.219,1.158" transform="translate(-814.734 -265.913)" fill="#87bdff"/>
      <path id="Trazado_27873" data-name="Trazado 27873" d="M1038.957,280.808a50.562,50.562,0,0,1,7.11-2.9c4.519-1.493,7.718-1.65,10.584-.678,3.079,1.019,5.6,3.437,6.989,7.638,1.5,4.555.884,8.245-.77,10.945-1.818,2.912-5.3,5.16-9.964,6.7a49.208,49.208,0,0,1-6.226,1.666Zm11.818,17.634a10.433,10.433,0,0,0,1.907-.513c4.884-1.575,7.174-5.308,5.3-10.992-1.6-4.954-5.356-6.61-9.981-5.082a11.729,11.729,0,0,0-2.366,1.018Z" transform="translate(-742.158 -197.598)" fill="#5cb30b"/>
      <path id="Trazado_27874" data-name="Trazado 27874" d="M1976.784,1048.01a2.446,2.446,0,1,1-2.713-2.145,2.446,2.446,0,0,1,2.713,2.145" transform="translate(-1408.594 -747.081)" fill="#e0eeff"/>
      <path id="Trazado_27875" data-name="Trazado 27875" d="M1975.593,1052.989a1.581,1.581,0,1,0,1.141-2.436,1.583,1.583,0,0,0-1.141,2.436" transform="translate(-1411.041 -750.434)" fill="#b192d0"/>
      <path id="Trazado_27876" data-name="Trazado 27876" d="M2030.443,1064.167a2.446,2.446,0,1,0,3.446-.291,2.445,2.445,0,0,0-3.446.291" transform="translate(-1449.994 -759.546)" fill="#e0eeff"/>
      <path id="Trazado_27877" data-name="Trazado 27877" d="M2032.206,1070.284a1.581,1.581,0,1,0,.887-2.784,1.583,1.583,0,0,0-.887,2.784" transform="translate(-1451.267 -762.543)" fill="#b192d0"/>
      <path id="Trazado_27878" data-name="Trazado 27878" d="M1993.279,1047.076a2.446,2.446,0,1,0,2.454-2.438,2.446,2.446,0,0,0-2.454,2.438" transform="translate(-1423.859 -746.216)" fill="#e0eeff"/>
      <path id="Trazado_27879" data-name="Trazado 27879" d="M1997.672,1052.53a1.581,1.581,0,1,0-1.576-1.586,1.584,1.584,0,0,0,1.576,1.586" transform="translate(-1425.871 -749.595)" fill="#b192d0"/>
      <path id="Trazado_27880" data-name="Trazado 27880" d="M1953.825,1057.87a2.445,2.445,0,1,0,.313-3.445,2.445,2.445,0,0,0-.312,3.445" transform="translate(-1395.271 -752.803)" fill="#e0eeff"/>
      <path id="Trazado_27881" data-name="Trazado 27881" d="M1957.582,1060.921a1.581,1.581,0,1,0,.2-2.227,1.583,1.583,0,0,0-.2,2.227" transform="translate(-1398.097 -755.995)" fill="#b192d0"/>
      <path id="Trazado_27882" data-name="Trazado 27882" d="M2019.336,1157.843a2.446,2.446,0,1,1,3.283,1.088,2.445,2.445,0,0,1-3.283-1.088" transform="translate(-1442.287 -824.55)" fill="#e0eeff"/>
      <path id="Trazado_27883" data-name="Trazado 27883" d="M2021.417,1158.344a1.581,1.581,0,1,0,.612-2.282,1.579,1.579,0,0,0-.612,2.282" transform="translate(-1443.773 -825.689)" fill="#b192d0"/>
      <path id="Trazado_27884" data-name="Trazado 27884" d="M2044.983,1125.975a2.446,2.446,0,1,1,3.214-1.277,2.446,2.446,0,0,1-3.214,1.277" transform="translate(-1459.738 -800.966)" fill="#e0eeff"/>
      <path id="Trazado_27885" data-name="Trazado 27885" d="M2045.133,1126.259a1.581,1.581,0,1,0,1.948-2.321,1.583,1.583,0,0,0-1.948,2.321Z" transform="translate(-1460.71 -802.766)" fill="#b192d0"/>
      <path id="Trazado_27886" data-name="Trazado 27886" d="M2044.147,1085.078a2.446,2.446,0,1,1,1.641-3.044,2.446,2.446,0,0,1-1.641,3.044" transform="translate(-1457.947 -771.682)" fill="#e0eeff"/>
      <path id="Trazado_27887" data-name="Trazado 27887" d="M2045.427,1086.341a1.581,1.581,0,1,0-2.906-.3,1.573,1.573,0,0,0,2.906.3" transform="translate(-1458.985 -774.342)" fill="#b192d0"/>
      <path id="Trazado_27888" data-name="Trazado 27888" d="M2037.542,1140.726a2.446,2.446,0,1,0,.884,3.344,2.445,2.445,0,0,0-.884-3.344" transform="translate(-1452.851 -814.617)" fill="#e0eeff"/>
      <path id="Trazado_27889" data-name="Trazado 27889" d="M2037.5,1145.5a1.581,1.581,0,1,0-1.771-2.324,1.583,1.583,0,0,0,1.771,2.324" transform="translate(-1454.025 -816.043)" fill="#b192d0"/>
      <path id="Trazado_27890" data-name="Trazado 27890" d="M2017.219,1054.286a2.446,2.446,0,1,1-.7-3.387,2.446,2.446,0,0,1,.7,3.387" transform="translate(-1437.754 -750.401)" fill="#e0eeff"/>
      <path id="Trazado_27891" data-name="Trazado 27891" d="M2015.7,1057.962a1.58,1.58,0,1,0-.453-.453,1.583,1.583,0,0,0,.453.453" transform="translate(-1439.369 -753.661)" fill="#b192d0"/>
      <path id="Trazado_27892" data-name="Trazado 27892" d="M2047.928,1101.163a2.446,2.446,0,1,0,2.827,1.994,2.446,2.446,0,0,0-2.827-1.994" transform="translate(-1461.447 -786.568)" fill="#e0eeff"/>
      <path id="Trazado_27893" data-name="Trazado 27893" d="M2049.063,1107.382a1.581,1.581,0,1,0-1.827-1.289,1.584,1.584,0,0,0,1.827,1.289" transform="translate(-1462.386 -788.793)" fill="#b192d0"/>
      <path id="Trazado_27894" data-name="Trazado 27894" d="M1965.972,1063.658l-.386.254,16.16,24.66.387-.252-7.187-11.024,10.56,7.853.275-.37-11-8.184,13.121,3.987.134-.442-12.591-3.825,13.137-.772-.027-.461-13.69.8,12.614-5.38-.181-.425-12.106,5.163,9.567-9.039-.317-.336-9.967,9.418,6.2-12.228-.412-.209-5.955,11.737,1.518-13.074-.458-.053-1.582,13.621-3.11-13.356-.449.1,2.985,12.817Z" transform="translate(-1404.077 -758.233)" fill="#b192d0"/>
      <rect id="Rectángulo_4314" data-name="Rectángulo 4314" width="61.797" height="1.977" transform="translate(518.5 350.16) rotate(-33.223)" fill="#b192d0"/>
      <path id="Trazado_27895" data-name="Trazado 27895" d="M1883.1,830.283a4.14,4.14,0,1,1-5.777-.951,4.14,4.14,0,0,1,5.777.951" transform="translate(-1339.793 -591.862)" fill="#e0eeff"/>
      <path id="Trazado_27896" data-name="Trazado 27896" d="M1884.114,840.859a2.677,2.677,0,1,0-.309-4.542,2.68,2.68,0,0,0,.309,4.542" transform="translate(-1344.863 -597.046)" fill="#b192d0"/>
      <path id="Trazado_27897" data-name="Trazado 27897" d="M1975.806,810.2a4.14,4.14,0,1,0,4.865-3.256,4.14,4.14,0,0,0-4.865,3.256" transform="translate(-1411.32 -576.367)" fill="#e0eeff"/>
      <path id="Trazado_27898" data-name="Trazado 27898" d="M1982.124,820.049a2.676,2.676,0,1,0-.969-4.85,2.679,2.679,0,0,0,.969,4.85" transform="translate(-1414.354 -581.998)" fill="#b192d0"/>
      <path id="Trazado_27899" data-name="Trazado 27899" d="M1906.757,815.37a4.14,4.14,0,1,0,1.634-5.622,4.14,4.14,0,0,0-1.634,5.622" transform="translate(-1361.688 -578.061)" fill="#e0eeff"/>
      <path id="Trazado_27900" data-name="Trazado 27900" d="M1916.405,822.043a2.677,2.677,0,1,0-3.635-1.057,2.681,2.681,0,0,0,3.635,1.057" transform="translate(-1366.108 -583.613)" fill="#b192d0"/>
      <path id="Trazado_27901" data-name="Trazado 27901" d="M1857.184,863.712a4.14,4.14,0,1,0-2.362-5.357,4.14,4.14,0,0,0,2.362,5.357" transform="translate(-1324.754 -611.26)" fill="#e0eeff"/>
      <path id="Trazado_27902" data-name="Trazado 27902" d="M1863.937,867.374a2.677,2.677,0,1,0-1.527-3.464,2.68,2.68,0,0,0,1.527,3.464" transform="translate(-1330.245 -615.897)" fill="#b192d0"/>
      <path id="Trazado_27903" data-name="Trazado 27903" d="M2036.187,958.025a4.14,4.14,0,1,1,5.754-1.081,4.14,4.14,0,0,1-5.754,1.081" transform="translate(-1453.221 -678.947)" fill="#e0eeff"/>
      <path id="Trazado_27904" data-name="Trazado 27904" d="M2038.363,959.292a2.677,2.677,0,1,0-.966-3.881,2.673,2.673,0,0,0,.966,3.881" transform="translate(-1455.04 -681.644)" fill="#b192d0"/>
      <path id="Trazado_27905" data-name="Trazado 27905" d="M2048.031,889.8a4.14,4.14,0,1,1,3.713-4.527,4.14,4.14,0,0,1-3.713,4.527" transform="translate(-1459.722 -629.713)" fill="#e0eeff"/>
      <path id="Trazado_27906" data-name="Trazado 27906" d="M2047.216,892.341a2.677,2.677,0,1,0,.982-5.033,2.68,2.68,0,0,0-.982,5.033Z" transform="translate(-1461.368 -633.821)" fill="#b192d0"/>
      <path id="Trazado_27907" data-name="Trazado 27907" d="M2013.254,829.93a4.14,4.14,0,1,1-.065-5.854,4.14,4.14,0,0,1,.065,5.854" transform="translate(-1433.056 -587.819)" fill="#e0eeff"/>
      <path id="Trazado_27908" data-name="Trazado 27908" d="M2014.862,832.965a2.677,2.677,0,1,0-4.548,1.944,2.659,2.659,0,0,0,4.548-1.944" transform="translate(-1435.452 -593.12)" fill="#b192d0"/>
      <path id="Trazado_27909" data-name="Trazado 27909" d="M2049.11,917.752a4.14,4.14,0,1,0,4.051,4.227,4.14,4.14,0,0,0-4.051-4.227" transform="translate(-1460.72 -655.577)" fill="#e0eeff"/>
      <path id="Trazado_27910" data-name="Trazado 27910" d="M2051.659,927.074a2.677,2.677,0,1,0-4.528-1.989,2.68,2.68,0,0,0,4.528,1.989" transform="translate(-1462.327 -658.944)" fill="#b192d0"/>
      <path id="Trazado_27911" data-name="Trazado 27911" d="M1948.125,806.416a4.14,4.14,0,1,1-3.813-4.443,4.14,4.14,0,0,1,3.813,4.443" transform="translate(-1385.698 -572.864)" fill="#e0eeff"/>
      <path id="Trazado_27912" data-name="Trazado 27912" d="M1947.582,815.331a2.672,2.672,0,1,0-1.044-.3,2.68,2.68,0,0,0,1.044.3" transform="translate(-1389.45 -578.597)" fill="#b192d0"/>
      <path id="Trazado_27913" data-name="Trazado 27913" d="M2032.043,850.645a4.14,4.14,0,1,0,5.82.634,4.14,4.14,0,0,0-5.82-.634" transform="translate(-1450.444 -606.989)" fill="#e0eeff"/>
      <path id="Trazado_27914" data-name="Trazado 27914" d="M2037.513,861.154a2.677,2.677,0,1,0-3.763-.41,2.681,2.681,0,0,0,3.763.41" transform="translate(-1452.348 -611.745)" fill="#b192d0"/>
      <path id="Trazado_27915" data-name="Trazado 27915" d="M1881.23,843.608l-.363.692,44.153,23.264.366-.691-19.683-10.43,22.078,2.968.1-.774-23.006-3.093,22.7-4.857-.164-.764-21.783,4.661,18.82-11.917-.417-.66-19.613,12.417,14.267-18.311-.616-.48-13.693,17.574,6.753-21.231-.745-.237-7.036,22.12-.84-23.2-.781.028.807,22.264-8.473-20.6-.723.3,8.829,21.468-15.56-17.226-.58.523,14.932,16.532Z" transform="translate(-1343.56 -593.367)" fill="#b192d0"/>
      <rect id="Rectángulo_4315" data-name="Rectángulo 4315" width="104.605" height="3.346" transform="translate(510.105 352.077) rotate(-62.209)" fill="#b192d0"/>
      <path id="Trazado_27916" data-name="Trazado 27916" d="M1693.87,997.881s-33.88-25.149-38.523-35.987,4.93-9.615,4.93-9.615-13.68-19.383-10.049-25.788,11.186,1.775,11.186,1.775-6.347-26.223-.828-27.682c10.278-2.716,18.712,25.5,18.712,25.5s-.756-11.717,5.677-10.139c9.7,2.38,4.569,27.605,4.569,27.605s3.093-4.473,8.413-.218c9.547,7.635-4.087,54.543-4.087,54.543" transform="translate(-1178.369 -643.183)" fill="#5684c4"/>
      <path id="Trazado_27917" data-name="Trazado 27917" d="M1726.825,943.992c-5.321-4.255-9.849-.435-9.849-.435s5.132-25.225-4.569-27.605c-6.434-1.578-5.677,10.139-5.677,10.139s-8.434-28.221-18.712-25.5l33.537,97.216c1.5-6.071,14.187-46.679,5.27-53.81" transform="translate(-1205.802 -643.184)" fill="#386eba"/>
      <path id="Trazado_27918" data-name="Trazado 27918" d="M1653.9,1115.065s-34.719-.036-41.885-6.054,1.624-6.486,1.624-6.486-16.593-8.808-16.351-14.681,5.867-4.69,5.867-4.69-11.468-10.274-9.114-15.254c3.618-7.653,20.02,6.861,20.02,6.861s-1.254-5.821,3.833-7.037c7.672-1.834,15.455,19.979,15.455,19.979s-3.669-9.826,1.6-8.734c9.456,1.958,18.949,36.1,18.949,36.1" transform="translate(-1138.441 -761.241)" fill="#9fb9de"/>
      <path id="Trazado_27919" data-name="Trazado 27919" d="M1784.922,1007.778s30.816-26.3,34.576-36.891-5.274-8.848-5.274-8.848,11.84-19.271,8-25.146a6.6,6.6,0,0,0-9.288-2.4s3.2-20.568-2.138-21.622c-9.944-1.961-16.256,25.4-16.256,25.4s.01-11.193-6.016-9.3c-9.086,2.853-2.674,26.542-2.674,26.542s-3.354-8.856-8.158-4.484c-8.62,7.843,7.23,56.749,7.23,56.749" transform="translate(-1268.025 -652.02)" fill="#386eba"/>
      <path id="Trazado_27920" data-name="Trazado 27920" d="M1772.4,949.137c5.57-3.342,8.919,1.115,8.919,1.115s-5.093-18.427,3.993-21.28c6.025-1.892,6.016,9.3,6.016,9.3s6.313-27.362,16.257-25.4l-26.012,94.529c-1.8-5.685-15.807-54.284-9.173-58.265" transform="translate(-1264.813 -652.021)" fill="#5684c4"/>
      <path id="Trazado_27921" data-name="Trazado 27921" d="M1820.282,1167.494s33.852.013,38.56-.535-.494-4.751-.494-4.751,10.533.384,12.139-2.178-2.7-3.571-2.7-3.571,10.49-3.04,9.989-5.271c-.933-4.155-12.518-1.446-12.518-1.446s4.3-2.089,2.555-4.031c-2.638-2.929-13.9,5.034-13.9,5.034s4.228-8,1.733-9.013c-4.476-1.818-35.366,25.761-35.366,25.761" transform="translate(-1300.282 -815.512)" fill="#b3c8e5"/>
      <path id="Trazado_27922" data-name="Trazado 27922" d="M1736.458,1267.682h-56.34a33.718,33.718,0,0,1-11.388-25.483,30.5,30.5,0,0,1,3.256-13.64l72.64.816a32.317,32.317,0,0,1,3,14.126,33.519,33.519,0,0,1-11.173,24.181" transform="translate(-1192.021 -877.596)" fill="#b192d0"/>
    </g>
  </g>
</svg>
