<svg id="Grupo_31329" data-name="Grupo 31329" xmlns="http://www.w3.org/2000/svg" xmlns:xlink="http://www.w3.org/1999/xlink" width="635.855" height="398.549" viewBox="0 0 635.855 398.549">
  <defs>
    <clipPath id="clip-path">
      <rect id="Rectángulo_4415" data-name="Rectángulo 4415" width="635.855" height="398.549" fill="none"/>
    </clipPath>
    <clipPath id="clip-path-2">
      <rect id="Rectángulo_4414" data-name="Rectángulo 4414" width="635.856" height="398.55" fill="none"/>
    </clipPath>
    <clipPath id="clip-path-3">
      <rect id="Rectángulo_4328" data-name="Rectángulo 4328" width="24.428" height="34.569" fill="none"/>
    </clipPath>
    <clipPath id="clip-path-4">
      <rect id="Rectángulo_4334" data-name="Rectángulo 4334" width="6.634" height="14.614" fill="none"/>
    </clipPath>
    <clipPath id="clip-path-5">
      <rect id="Rectángulo_4335" data-name="Rectángulo 4335" width="87.735" height="2.176" fill="none"/>
    </clipPath>
    <clipPath id="clip-path-6">
      <rect id="Rectángulo_4336" data-name="Rectángulo 4336" width="104.552" height="97.904" fill="none"/>
    </clipPath>
    <clipPath id="clip-path-7">
      <rect id="Rectángulo_4337" data-name="Rectángulo 4337" width="25.679" height="25.677" fill="none"/>
    </clipPath>
    <clipPath id="clip-path-8">
      <rect id="Rectángulo_4338" data-name="Rectángulo 4338" width="86.808" height="17.319" fill="none"/>
    </clipPath>
    <clipPath id="clip-path-9">
      <rect id="Rectángulo_4339" data-name="Rectángulo 4339" width="153.268" height="27.014" fill="none"/>
    </clipPath>
    <clipPath id="clip-path-10">
      <rect id="Rectángulo_4340" data-name="Rectángulo 4340" width="55.761" height="14.635" fill="none"/>
    </clipPath>
    <clipPath id="clip-path-11">
      <rect id="Rectángulo_4341" data-name="Rectángulo 4341" width="54.448" height="19.081" fill="none"/>
    </clipPath>
    <clipPath id="clip-path-12">
      <rect id="Rectángulo_4342" data-name="Rectángulo 4342" width="54.445" height="19.081" fill="none"/>
    </clipPath>
    <clipPath id="clip-path-14">
      <rect id="Rectángulo_4344" data-name="Rectángulo 4344" width="53.771" height="21.266" fill="none"/>
    </clipPath>
    <clipPath id="clip-path-18">
      <rect id="Rectángulo_4348" data-name="Rectángulo 4348" width="209.266" height="249.732" fill="none"/>
    </clipPath>
    <clipPath id="clip-path-19">
      <rect id="Rectángulo_4349" data-name="Rectángulo 4349" width="1.818" height="3.846" fill="none"/>
    </clipPath>
    <clipPath id="clip-path-20">
      <rect id="Rectángulo_4350" data-name="Rectángulo 4350" width="3.71" height="5.901" fill="none"/>
    </clipPath>
    <clipPath id="clip-path-21">
      <rect id="Rectángulo_4351" data-name="Rectángulo 4351" width="1.848" height="24.569" fill="none"/>
    </clipPath>
    <clipPath id="clip-path-22">
      <rect id="Rectángulo_4352" data-name="Rectángulo 4352" width="1.244" height="1.938" fill="none"/>
    </clipPath>
    <clipPath id="clip-path-23">
      <rect id="Rectángulo_4353" data-name="Rectángulo 4353" width="2.361" height="5.136" fill="none"/>
    </clipPath>
    <clipPath id="clip-path-24">
      <rect id="Rectángulo_4354" data-name="Rectángulo 4354" width="6.225" height="9.301" fill="none"/>
    </clipPath>
    <clipPath id="clip-path-25">
      <rect id="Rectángulo_4355" data-name="Rectángulo 4355" width="5.014" height="7.49" fill="none"/>
    </clipPath>
    <clipPath id="clip-path-26">
      <rect id="Rectángulo_4356" data-name="Rectángulo 4356" width="2.008" height="5.018" fill="none"/>
    </clipPath>
    <clipPath id="clip-path-27">
      <rect id="Rectángulo_4357" data-name="Rectángulo 4357" width="4.896" height="4.835" fill="none"/>
    </clipPath>
    <clipPath id="clip-path-28">
      <rect id="Rectángulo_4358" data-name="Rectángulo 4358" width="4.835" height="3.265" fill="none"/>
    </clipPath>
    <clipPath id="clip-path-29">
      <rect id="Rectángulo_4359" data-name="Rectángulo 4359" width="3.809" height="3.869" fill="none"/>
    </clipPath>
    <clipPath id="clip-path-30">
      <rect id="Rectángulo_4360" data-name="Rectángulo 4360" width="9.16" height="3.29" fill="none"/>
    </clipPath>
    <clipPath id="clip-path-31">
      <rect id="Rectángulo_4361" data-name="Rectángulo 4361" width="10.448" height="1.849" fill="none"/>
    </clipPath>
    <clipPath id="clip-path-32">
      <rect id="Rectángulo_4362" data-name="Rectángulo 4362" width="8.84" height="1.071" fill="none"/>
    </clipPath>
    <clipPath id="clip-path-33">
      <rect id="Rectángulo_4364" data-name="Rectángulo 4364" width="5.412" height="3.752" fill="none"/>
    </clipPath>
    <clipPath id="clip-path-34">
      <rect id="Rectángulo_4365" data-name="Rectángulo 4365" width="1.536" height="1.075" fill="none"/>
    </clipPath>
    <clipPath id="clip-path-35">
      <rect id="Rectángulo_4366" data-name="Rectángulo 4366" width="2.741" height="4.604" fill="none"/>
    </clipPath>
    <clipPath id="clip-path-36">
      <rect id="Rectángulo_4367" data-name="Rectángulo 4367" width="4.224" height="6.165" fill="none"/>
    </clipPath>
    <clipPath id="clip-path-37">
      <rect id="Rectángulo_4368" data-name="Rectángulo 4368" width="11.544" height="5.483" fill="none"/>
    </clipPath>
    <clipPath id="clip-path-38">
      <rect id="Rectángulo_4369" data-name="Rectángulo 4369" width="12.211" height="4.874" fill="none"/>
    </clipPath>
    <clipPath id="clip-path-39">
      <rect id="Rectángulo_4370" data-name="Rectángulo 4370" width="14.096" height="19.013" fill="none"/>
    </clipPath>
    <clipPath id="clip-path-40">
      <rect id="Rectángulo_4371" data-name="Rectángulo 4371" width="2.708" height="8.476" fill="none"/>
    </clipPath>
    <clipPath id="clip-path-41">
      <rect id="Rectángulo_4372" data-name="Rectángulo 4372" width="1.762" height="5.147" fill="none"/>
    </clipPath>
    <clipPath id="clip-path-42">
      <rect id="Rectángulo_4373" data-name="Rectángulo 4373" width="3.275" height="5.274" fill="none"/>
    </clipPath>
    <clipPath id="clip-path-43">
      <rect id="Rectángulo_4374" data-name="Rectángulo 4374" width="5.642" height="3.175" fill="none"/>
    </clipPath>
    <clipPath id="clip-path-44">
      <rect id="Rectángulo_4375" data-name="Rectángulo 4375" width="3.142" height="3.208" fill="none"/>
    </clipPath>
    <clipPath id="clip-path-45">
      <rect id="Rectángulo_4376" data-name="Rectángulo 4376" width="45.413" height="67.38" fill="none"/>
    </clipPath>
    <clipPath id="clip-path-46">
      <rect id="Rectángulo_4377" data-name="Rectángulo 4377" width="7.466" height="5.853" fill="none"/>
    </clipPath>
    <clipPath id="clip-path-47">
      <rect id="Rectángulo_4378" data-name="Rectángulo 4378" width="2.915" height="4.099" fill="none"/>
    </clipPath>
    <clipPath id="clip-path-48">
      <rect id="Rectángulo_4379" data-name="Rectángulo 4379" width="86.814" height="109.103" fill="none"/>
    </clipPath>
    <clipPath id="clip-path-49">
      <rect id="Rectángulo_4380" data-name="Rectángulo 4380" width="30.929" height="30.929" fill="none"/>
    </clipPath>
    <clipPath id="clip-path-50">
      <rect id="Rectángulo_4381" data-name="Rectángulo 4381" width="56.415" height="5.347" fill="none"/>
    </clipPath>
    <clipPath id="clip-path-51">
      <rect id="Rectángulo_4382" data-name="Rectángulo 4382" width="173.572" height="7.609" fill="none"/>
    </clipPath>
  </defs>
  <g id="Grupo_31328" data-name="Grupo 31328" clip-path="url(#clip-path)">
    <g id="Grupo_31327" data-name="Grupo 31327" transform="translate(0 -0.001)">
      <g id="Grupo_31326" data-name="Grupo 31326" clip-path="url(#clip-path-2)">
        <path id="Trazado_27923" data-name="Trazado 27923" d="M478.741,225.519C316.733,205.947,196.577,387.266,344.547,549.013H706.82c120.927-58.678,57.658-162.257-13.266-176.544s-62.76-128.581-214.812-146.95" transform="translate(-200.922 -162.259)" fill="#bbebe4"/>
        <path id="Trazado_27924" data-name="Trazado 27924" d="M234.769,241.708a.447.447,0,0,1-.37-.7c.5-.744,1.026-1.486,1.561-2.2a.447.447,0,1,1,.717.533c-.527.708-1.044,1.439-1.537,2.171a.446.446,0,0,1-.371.2" transform="translate(-169.691 -172.806)" fill="#568584"/>
        <path id="Trazado_27925" data-name="Trazado 27925" d="M251.405,179.946a.447.447,0,0,1-.335-.743c1.068-1.21,2.2-2.391,3.368-3.508a.447.447,0,0,1,.618.645c-1.149,1.1-2.265,2.263-3.316,3.454a.445.445,0,0,1-.335.151m6.964-6.671a.447.447,0,0,1-.281-.794c1.257-1.017,2.571-1.992,3.906-2.9a.447.447,0,1,1,.5.739c-1.314.892-2.607,1.852-3.845,2.853a.444.444,0,0,1-.281.1m7.978-5.416a.447.447,0,0,1-.219-.837c1.409-.792,2.867-1.533,4.335-2.2a.447.447,0,1,1,.371.813c-1.446.659-2.882,1.389-4.268,2.169a.445.445,0,0,1-.219.057m8.773-4a.447.447,0,0,1-.15-.868c1.523-.544,3.085-1.028,4.645-1.44a.447.447,0,1,1,.228.864c-1.535.405-3.074.882-4.572,1.418a.448.448,0,0,1-.15.026" transform="translate(-181.738 -116.98)" fill="#568584"/>
        <path id="Trazado_27926" data-name="Trazado 27926" d="M371.214,157.624a.447.447,0,0,1-.077-.887c.882-.155,1.782-.291,2.673-.4a.447.447,0,0,1,.113.887c-.877.111-1.762.245-2.631.4a.463.463,0,0,1-.077.007" transform="translate(-268.5 -113.209)" fill="#568584"/>
        <path id="Trazado_27927" data-name="Trazado 27927" d="M457.3,161.634a.456.456,0,0,1-.122-.017c-.852-.241-1.718-.464-2.576-.664a.447.447,0,1,1,.2-.871c.871.2,1.751.43,2.617.675a.447.447,0,0,1-.122.877" transform="translate(-328.958 -115.918)" fill="#568584"/>
        <path id="Trazado_27928" data-name="Trazado 27928" d="M257.861,280.487a.447.447,0,0,1-.006-.894c1.8-.025,3.616-.134,5.4-.327a.447.447,0,1,1,.1.888c-1.808.2-3.652.307-5.48.332Zm-5.445-.18-.036,0c-1.822-.146-3.655-.381-5.447-.7a.447.447,0,1,1,.156-.88c1.764.312,3.568.544,5.362.688a.447.447,0,0,1-.035.892m16.267-.991a.447.447,0,0,1-.089-.885c1.76-.362,3.522-.813,5.238-1.341a.447.447,0,0,1,.263.854c-1.742.536-3.533,1-5.32,1.363a.442.442,0,0,1-.091.009M241.7,278.41a.452.452,0,0,1-.12-.016c-1.758-.488-3.513-1.067-5.216-1.72a.447.447,0,1,1,.32-.834c1.676.644,3.4,1.213,5.135,1.694a.447.447,0,0,1-.12.877m37.392-2.3a.447.447,0,0,1-.172-.86c1.656-.689,3.3-1.467,4.887-2.313a.447.447,0,0,1,.42.789c-1.611.859-3.282,1.65-4.964,2.35a.443.443,0,0,1-.172.034m-47.557-1.6a.445.445,0,0,1-.2-.047c-1.631-.813-3.245-1.714-4.794-2.68a.447.447,0,1,1,.473-.758c1.526.951,3.114,1.838,4.72,2.639a.447.447,0,0,1-.2.847m57.164-3.517a.447.447,0,0,1-.247-.819c1.5-.992,2.965-2.067,4.362-3.2a.447.447,0,0,1,.562.7c-1.419,1.147-2.91,2.239-4.431,3.246a.443.443,0,0,1-.246.074m-66.4-2.241a.447.447,0,0,1-.271-.092c-1.449-1.106-2.863-2.3-4.2-3.537a.447.447,0,1,1,.607-.656c1.32,1.221,2.712,2.393,4.138,3.482a.447.447,0,0,1-.271.8m74.873-4.6a.447.447,0,0,1-.312-.767c1.285-1.256,2.524-2.588,3.684-3.96a.447.447,0,0,1,.682.577c-1.178,1.392-2.437,2.745-3.742,4.021a.445.445,0,0,1-.312.127M214.3,261.355a.445.445,0,0,1-.333-.149c-1.217-1.361-2.382-2.8-3.464-4.263a.447.447,0,1,1,.72-.53c1.064,1.445,2.212,2.857,3.41,4.2a.447.447,0,0,1-.333.744m89.9-5.52a.447.447,0,0,1-.367-.7c1.026-1.475,1.992-3.017,2.872-4.582a.447.447,0,0,1,.779.438c-.895,1.59-1.876,3.156-2.918,4.654a.447.447,0,0,1-.367.192m-96.354-3.246a.448.448,0,0,1-.384-.217c-.938-1.565-1.812-3.193-2.6-4.84a.447.447,0,0,1,.807-.384c.773,1.62,1.633,3.224,2.557,4.765a.447.447,0,0,1-.383.677m101.692-6.244a.447.447,0,0,1-.408-.628c.728-1.643,1.384-3.339,1.951-5.043a.447.447,0,1,1,.848.282c-.576,1.73-1.243,3.454-1.982,5.123a.447.447,0,0,1-.409.266m-106.376-3.584a.448.448,0,0,1-.42-.294c-.624-1.714-1.172-3.479-1.63-5.245a.447.447,0,0,1,.866-.224c.45,1.739.99,3.476,1.6,5.163a.447.447,0,0,1-.42.6m109.815-6.747a.447.447,0,0,1-.436-.547c.4-1.748.722-3.538.956-5.321a.447.447,0,1,1,.886.116c-.237,1.811-.564,3.629-.971,5.405a.447.447,0,0,1-.435.347m-112.545-3.792a.447.447,0,0,1-.44-.376c-.286-1.8-.49-3.635-.6-5.458a.447.447,0,1,1,.892-.056c.114,1.8.314,3.6.6,5.374a.447.447,0,0,1-.371.512.473.473,0,0,1-.071.005m113.958-7h-.016a.447.447,0,0,1-.431-.463c.025-.685.037-1.38.037-2.066,0-1.111-.033-2.235-.1-3.341a.447.447,0,1,1,.892-.052c.065,1.124.1,2.265.1,3.393,0,.7-.013,1.4-.037,2.1a.447.447,0,0,1-.447.431m-.633-10.87a.447.447,0,0,1-.441-.379c-.273-1.776-.635-3.559-1.075-5.3a.447.447,0,1,1,.866-.219c.448,1.768.815,3.579,1.093,5.383a.447.447,0,0,1-.442.515M311.079,203.8a.448.448,0,0,1-.421-.3c-.605-1.689-1.3-3.37-2.063-5a.447.447,0,1,1,.809-.38c.776,1.65,1.482,3.358,2.1,5.074a.448.448,0,0,1-.421.6m-4.63-9.849a.446.446,0,0,1-.385-.219c-.914-1.544-1.915-3.063-2.973-4.516a.447.447,0,0,1,.722-.526c1.075,1.475,2.091,3.018,3.02,4.586a.447.447,0,0,1-.384.675m-6.412-8.8A.445.445,0,0,1,299.7,185c-1.19-1.345-2.459-2.649-3.771-3.877a.447.447,0,1,1,.61-.653c1.333,1.247,2.621,2.571,3.83,3.937a.447.447,0,0,1-.335.743m-7.953-7.438a.447.447,0,0,1-.273-.093c-1.422-1.1-2.914-2.141-4.433-3.1a.447.447,0,1,1,.477-.756c1.543.973,3.058,2.031,4.5,3.147a.447.447,0,0,1-.274.8m-9.213-5.808a.447.447,0,0,1-.2-.048c-1.6-.81-3.266-1.551-4.94-2.2a.447.447,0,0,1,.325-.833c1.7.663,3.389,1.416,5.018,2.239a.447.447,0,0,1-.2.846" transform="translate(-144.386 -122.231)" fill="#568584"/>
        <path id="Trazado_27929" data-name="Trazado 27929" d="M199.516,349.7H199.5a.447.447,0,0,1-.432-.461c.029-.9.079-1.8.148-2.7a.447.447,0,0,1,.891.07c-.069.88-.118,1.774-.146,2.656a.447.447,0,0,1-.447.433" transform="translate(-144.161 -250.657)" fill="#568584"/>
        <path id="Trazado_27930" data-name="Trazado 27930" d="M234.769,241.708a.447.447,0,0,1-.37-.7c.5-.744,1.026-1.486,1.561-2.2a.447.447,0,1,1,.717.533c-.527.708-1.044,1.439-1.537,2.171a.446.446,0,0,1-.371.2" transform="translate(-169.691 -172.806)" fill="#568584"/>
        <path id="Trazado_27931" data-name="Trazado 27931" d="M251.405,179.946a.447.447,0,0,1-.335-.743c1.068-1.21,2.2-2.391,3.368-3.508a.447.447,0,0,1,.618.645c-1.149,1.1-2.265,2.263-3.316,3.454a.445.445,0,0,1-.335.151m6.964-6.671a.447.447,0,0,1-.281-.794c1.257-1.017,2.571-1.992,3.906-2.9a.447.447,0,1,1,.5.739c-1.314.892-2.607,1.852-3.845,2.853a.444.444,0,0,1-.281.1m7.978-5.416a.447.447,0,0,1-.219-.837c1.409-.792,2.867-1.533,4.335-2.2a.447.447,0,1,1,.371.813c-1.446.659-2.882,1.389-4.268,2.169a.445.445,0,0,1-.219.057m8.773-4a.447.447,0,0,1-.15-.868c1.523-.544,3.085-1.028,4.645-1.44a.447.447,0,1,1,.228.864c-1.535.405-3.074.882-4.572,1.418a.448.448,0,0,1-.15.026" transform="translate(-181.738 -116.98)" fill="#568584"/>
        <path id="Trazado_27932" data-name="Trazado 27932" d="M371.214,157.624a.447.447,0,0,1-.077-.887c.882-.155,1.782-.291,2.673-.4a.447.447,0,0,1,.113.887c-.877.111-1.762.245-2.631.4a.463.463,0,0,1-.077.007" transform="translate(-268.5 -113.209)" fill="#568584"/>
        <path id="Trazado_27933" data-name="Trazado 27933" d="M390.557,136.9l-7.092-5.153-7.091,5.153,2.708-8.337-7.092-5.152h8.766l2.709-8.337,2.709,8.337h8.766l-7.092,5.152Zm-7.092-6.257,5.392,3.917-2.059-6.338,5.392-3.918h-6.664l-2.06-6.338-2.06,6.338h-6.664l5.392,3.918-2.06,6.338Z" transform="translate(-269.386 -83.33)" fill="#568584"/>
        <path id="Trazado_27934" data-name="Trazado 27934" d="M189.415,286.833a2.964,2.964,0,0,1-2.961-2.961v-.746a5.773,5.773,0,0,0-1.4-3.7,5.635,5.635,0,0,1-1.288-3.9,5.7,5.7,0,0,1,5.378-5.351,5.652,5.652,0,0,1,4.57,9.317,5.368,5.368,0,0,0-1.339,3.464v.909a2.964,2.964,0,0,1-2.961,2.961m0-16.04c-.081,0-.162,0-.244.006a5.075,5.075,0,0,0-4.79,4.766,5.02,5.02,0,0,0,1.147,3.471,6.47,6.47,0,0,1,1.54,4.091v.746a2.344,2.344,0,0,0,4.687,0v-.909a5.985,5.985,0,0,1,1.488-3.865,5.036,5.036,0,0,0-3.829-8.305" transform="translate(-133.075 -195.654)" fill="#568584"/>
        <rect id="Rectángulo_4317" data-name="Rectángulo 4317" width="0.617" height="3.947" transform="translate(56.033 69.293)" fill="#568584"/>
        <rect id="Rectángulo_4318" data-name="Rectángulo 4318" width="3.946" height="0.617" transform="matrix(0.707, -0.707, 0.707, 0.707, 61.055, 75.117)" fill="#568584"/>
        <rect id="Rectángulo_4319" data-name="Rectángulo 4319" width="3.947" height="0.617" transform="translate(63.279 79.996)" fill="#568584"/>
        <rect id="Rectángulo_4320" data-name="Rectángulo 4320" width="0.617" height="3.947" transform="translate(48.363 72.673) rotate(-45)" fill="#568584"/>
        <rect id="Rectángulo_4321" data-name="Rectángulo 4321" width="3.947" height="0.617" transform="translate(45.329 79.869)" fill="#568584"/>
        <rect id="Rectángulo_4322" data-name="Rectángulo 4322" width="4.519" height="0.617" transform="translate(54.049 86.171)" fill="#568584"/>
        <rect id="Rectángulo_4323" data-name="Rectángulo 4323" width="4.074" height="0.617" transform="translate(54.241 88.017)" fill="#568584"/>
        <rect id="Rectángulo_4324" data-name="Rectángulo 4324" width="0.973" height="3.281" transform="translate(86.124 75.346)" fill="#568584"/>
        <rect id="Rectángulo_4325" data-name="Rectángulo 4325" width="0.973" height="3.281" transform="translate(86.124 80.992)" fill="#568584"/>
        <rect id="Rectángulo_4326" data-name="Rectángulo 4326" width="3.281" height="0.973" transform="translate(87.793 79.323)" fill="#568584"/>
        <rect id="Rectángulo_4327" data-name="Rectángulo 4327" width="3.281" height="0.973" transform="translate(82.147 79.323)" fill="#568584"/>
        <path id="Trazado_27935" data-name="Trazado 27935" d="M139.187,787.109c6.249,6.548,15.808,7.567,15.808,7.567s-.572-9.6-6.821-16.144-13.326-9.935-15.808-7.567.572,9.6,6.821,16.144" transform="translate(-95.232 -557.766)" fill="#3ca7bd"/>
        <path id="Trazado_27936" data-name="Trazado 27936" d="M233.1,923.031a.992.992,0,0,0,.688-1.128c-6.32-34.422-18.9-58.974-28.334-73.509-10.248-15.785-18.878-23.3-19.24-23.616a.992.992,0,0,0-1.3,1.5c.087.075,8.822,7.7,18.922,23.271,9.32,14.373,21.743,38.654,28,72.71a.992.992,0,0,0,1.155.8,1.07,1.07,0,0,0,.109-.026" transform="translate(-133.665 -597.108)" fill="#13849c"/>
        <path id="Trazado_27937" data-name="Trazado 27937" d="M165.333,899.164c8.725,2.405,17.449-1.633,17.449-1.633s-5.423-7.937-14.148-10.343-16.537-1.674-17.449,1.633,5.423,7.938,14.148,10.343" transform="translate(-109.421 -641.452)" fill="#3ca7bd"/>
        <path id="Trazado_27938" data-name="Trazado 27938" d="M296.312,882.312c-4.074,8.082-1.83,17.429-1.83,17.429s8.849-3.756,12.923-11.838,4.893-15.885,1.83-17.429-8.849,3.756-12.923,11.837" transform="translate(-212.81 -630.181)" fill="#3ca7bd"/>
        <path id="Trazado_27939" data-name="Trazado 27939" d="M15.219,1043.05c8.935,1.443,17.168-3.519,17.168-3.519s-6.253-7.3-15.188-8.745-16.622.133-17.168,3.519,6.253,7.3,15.188,8.745" transform="translate(0 -746.081)" fill="#3ca7bd"/>
        <path id="Trazado_27940" data-name="Trazado 27940" d="M170.293,1102.964a.992.992,0,0,0-.133-1.315c-25.831-23.613-50.685-35.582-66.986-41.464-17.7-6.388-29.122-7.166-29.6-7.2a.992.992,0,0,0-.125,1.98c.115.007,11.679.8,29.137,7.114,16.11,5.823,40.679,17.669,66.235,41.03a.992.992,0,0,0,1.4-.063.96.96,0,0,0,.071-.086" transform="translate(-52.517 -762.545)" fill="#13849c"/>
        <path id="Trazado_27941" data-name="Trazado 27941" d="M105.385,1098c8.406-3.354,12.919-11.843,12.919-11.843s-9.117-3.049-17.523.3-14.19,8.656-12.919,11.842,9.116,3.05,17.523-.3" transform="translate(-63.5 -785.649)" fill="#3ca7bd"/>
        <path id="Trazado_27942" data-name="Trazado 27942" d="M217.553,1010.509c1.636,8.9,9.071,15,9.071,15s4.783-8.339,3.147-17.24-5.7-15.615-9.071-15-4.783,8.339-3.147,17.24" transform="translate(-157.052 -719.27)" fill="#3ca7bd"/>
        <path id="Trazado_27943" data-name="Trazado 27943" d="M237.973,1170.553c8.474-3.178,13.163-11.57,13.163-11.57s-9.051-3.24-17.525-.061-14.368,8.358-13.163,11.57,9.051,3.24,17.525.062" transform="translate(-159.529 -838.249)" fill="#3ca7bd"/>
        <path id="Trazado_27944" data-name="Trazado 27944" d="M351.213,992.688V956.482h-27.17v36.206a44.009,44.009,0,1,0,27.17,0" transform="translate(-212.632 -692.659)" fill="#314a66"/>
        <g id="Grupo_31181" data-name="Grupo 31181" transform="translate(99.803 308.724)" style="mix-blend-mode: screen;isolation: isolate">
          <g id="Grupo_31180" data-name="Grupo 31180">
            <g id="Grupo_31179" data-name="Grupo 31179" clip-path="url(#clip-path-3)">
              <path id="Trazado_27945" data-name="Trazado 27945" d="M370.06,1119.27h16.2a49.339,49.339,0,0,0-23.726,34.569c-3.317-17.221,6.123-33.293,7.526-34.569" transform="translate(-361.832 -1119.27)" fill="#242424"/>
            </g>
          </g>
        </g>
        <rect id="Rectángulo_4329" data-name="Rectángulo 4329" width="8.419" height="60.842" transform="translate(114.472 202.976)" fill="#a3a3a3"/>
        <rect id="Rectángulo_4330" data-name="Rectángulo 4330" width="12.501" height="40.819" transform="translate(112.431 182.312)" fill="#c7c7c7"/>
        <rect id="Rectángulo_4331" data-name="Rectángulo 4331" width="5.357" height="10.588" transform="translate(116.003 171.724)" fill="#a3a3a3"/>
        <path id="Trazado_27946" data-name="Trazado 27946" d="M369.44,691.708a.978.978,0,0,1-.978-.978V645.318A11.961,11.961,0,0,1,380.41,633.37a.978.978,0,1,1,0,1.956,10,10,0,0,0-9.992,9.992V690.73a.978.978,0,0,1-.978.978" transform="translate(-266.831 -458.669)" fill="#a3a3a3"/>
        <path id="Trazado_27947" data-name="Trazado 27947" d="M364.159,841.564a6.25,6.25,0,1,1-6.25-6.25,6.25,6.25,0,0,1,6.25,6.25" transform="translate(-254.662 -604.912)" fill="#a3a3a3"/>
        <rect id="Rectángulo_4332" data-name="Rectángulo 4332" width="8.674" height="100.244" transform="translate(128.44 163.56)" fill="#004059"/>
        <rect id="Rectángulo_4333" data-name="Rectángulo 4333" width="8.674" height="31.38" transform="translate(128.44 153.355)" fill="#155973"/>
        <path id="Trazado_27948" data-name="Trazado 27948" d="M462.411,443.14h-.323s-12.5,27.043-4.082,31.125h8.486c8.419-4.082-4.082-31.125-4.082-31.125" transform="translate(-329.566 -320.91)" fill="#6ba1b5"/>
        <g id="Grupo_31184" data-name="Grupo 31184" transform="translate(129.46 127.006)" style="mix-blend-mode: multiply;isolation: isolate">
          <g id="Grupo_31183" data-name="Grupo 31183">
            <g id="Grupo_31182" data-name="Grupo 31182" clip-path="url(#clip-path-4)">
              <path id="Trazado_27949" data-name="Trazado 27949" d="M473.553,468.567a47.856,47.856,0,0,0-.953-8.114h-.044a47.449,47.449,0,0,0-.951,8.172,3.315,3.315,0,1,0,1.948-.058" transform="translate(-469.355 -460.453)" fill="#bfbfbf"/>
            </g>
          </g>
        </g>
        <path id="Trazado_27950" data-name="Trazado 27950" d="M1597.517,300.653c-44.464,3.146-7.654,101.028,52.045,113.274S1705.688,293,1597.517,300.653" transform="translate(-1142.643 -217.494)" fill="#bbebe4"/>
        <path id="Trazado_27951" data-name="Trazado 27951" d="M1762.923,182.3c0,25.076-22.418,45.4-22.418,45.4s-22.419-20.328-22.419-45.4,10.037-45.4,22.419-45.4,22.418,20.328,22.418,45.4" transform="translate(-1244.194 -99.132)" fill="#13849c"/>
        <path id="Trazado_27952" data-name="Trazado 27952" d="M1793.653,426.755a2.176,2.176,0,0,1-2.176-2.176V183.649a2.176,2.176,0,0,1,4.351,0v240.93a2.176,2.176,0,0,1-2.176,2.176" transform="translate(-1297.342 -131.418)" fill="#005769"/>
        <path id="Trazado_27953" data-name="Trazado 27953" d="M1695.423,1140.688s44.27-59.594,5.959-97.9h-75.2c-38.31,38.31,5.959,97.9,5.959,97.9Z" transform="translate(-1166.336 -755.157)" fill="#314a66"/>
        <g id="Grupo_31187" data-name="Grupo 31187" transform="translate(452.657 302.289)" style="mix-blend-mode: multiply;isolation: isolate">
          <g id="Grupo_31186" data-name="Grupo 31186">
            <g id="Grupo_31185" data-name="Grupo 31185" clip-path="url(#clip-path-5)">
              <path id="Trazado_27954" data-name="Trazado 27954" d="M1727.742,1098.116h-85.559a1.088,1.088,0,1,1,0-2.176h85.559a1.088,1.088,0,1,1,0,2.176" transform="translate(-1641.096 -1095.94)" fill="#e3e3e3"/>
            </g>
          </g>
        </g>
        <path id="Trazado_27955" data-name="Trazado 27955" d="M1893.247,451.735c-16.312,13.057-41.208,9.058-41.208,9.058s1.55-25.167,17.862-38.224,34.761-17.112,41.208-9.058-1.551,25.168-17.862,38.224" transform="translate(-1341.199 -296.455)" fill="#13849c"/>
        <path id="Trazado_27956" data-name="Trazado 27956" d="M1797.076,507.688a1.812,1.812,0,0,1,.282-2.548l57.87-46.322a1.813,1.813,0,1,1,2.266,2.831l-57.87,46.322a1.813,1.813,0,0,1-2.548-.282" transform="translate(-1301.108 -331.976)" fill="#08697d"/>
        <path id="Trazado_27957" data-name="Trazado 27957" d="M1577.92,689.606c16.312,13.057,41.207,9.058,41.207,9.058s-1.55-25.167-17.862-38.224-34.761-17.112-41.208-9.058,1.55,25.167,17.863,38.224" transform="translate(-1128.138 -468.716)" fill="#13849c"/>
        <path id="Trazado_27958" data-name="Trazado 27958" d="M1664.97,740.393a1.813,1.813,0,0,0-.282-2.548l-49.26-41.156a1.813,1.813,0,1,0-2.266,2.83l49.26,41.156a1.812,1.812,0,0,0,2.548-.282" transform="translate(-1167.719 -504.235)" fill="#08697d"/>
        <path id="Trazado_27959" data-name="Trazado 27959" d="M1857.2,738.04a1.813,1.813,0,0,0-2.546-.3l-57.8,43.631a1.813,1.813,0,1,0,2.245,2.847l57.8-43.631a1.813,1.813,0,0,0,.3-2.546" transform="translate(-1300.733 -533.969)" fill="#08697d"/>
        <path id="Trazado_27960" data-name="Trazado 27960" d="M1864.6,749.084c-7.921,40.571-36.169,48.394-57.8,43.631Z" transform="translate(-1308.439 -542.467)" fill="#13849c"/>
        <g id="Grupo_31190" data-name="Grupo 31190" transform="translate(444.237 287.627)" style="mix-blend-mode: multiply;isolation: isolate">
          <g id="Grupo_31189" data-name="Grupo 31189">
            <g id="Grupo_31188" data-name="Grupo 31188" clip-path="url(#clip-path-6)">
              <path id="Trazado_27961" data-name="Trazado 27961" d="M1639.188,1042.783h-13.007c-38.31,38.311,5.959,97.9,5.959,97.9h63.283s14.464-19.472,19.7-43.31c-25.384-10.661-65.383-30.693-75.937-54.594" transform="translate(-1610.572 -1042.783)" fill="#e3e3e3"/>
            </g>
          </g>
        </g>
        <g id="Grupo_31193" data-name="Grupo 31193" transform="translate(512.057 297.149)" style="mix-blend-mode: screen;isolation: isolate">
          <g id="Grupo_31192" data-name="Grupo 31192">
            <g id="Grupo_31191" data-name="Grupo 31191" clip-path="url(#clip-path-7)">
              <path id="Trazado_27962" data-name="Trazado 27962" d="M1882.13,1090.144a12.839,12.839,0,1,1-12.839-12.839,12.839,12.839,0,0,1,12.839,12.839" transform="translate(-1856.451 -1077.305)" fill="#4d4d4d"/>
            </g>
          </g>
        </g>
        <path id="Trazado_27963" data-name="Trazado 27963" d="M776.189,1412.635h-529.8v-10.142a2.159,2.159,0,0,1,2.159-2.159H774.03a2.159,2.159,0,0,1,2.159,2.159Z" transform="translate(-178.427 -1014.086)" fill="#568584"/>
        <path id="Trazado_27964" data-name="Trazado 27964" d="M893.41,238.3c0-1.948.974-91.9.974-91.9l182.491,34.745,4.546,73.711Z" transform="translate(-646.984 -106.021)" fill="#f5d2a9"/>
        <g id="Grupo_31196" data-name="Grupo 31196" transform="translate(263.094 65.383)" style="mix-blend-mode: multiply;isolation: isolate">
          <g id="Grupo_31195" data-name="Grupo 31195">
            <g id="Grupo_31194" data-name="Grupo 31194" clip-path="url(#clip-path-8)">
              <path id="Trazado_27965" data-name="Trazado 27965" d="M1038.163,254.362a2.5,2.5,0,0,1-.374-.028L955.96,241.995a2.49,2.49,0,0,1,.742-4.923l81.829,12.339a2.49,2.49,0,0,1-.368,4.952" transform="translate(-953.841 -237.042)" fill="#bfbfbf"/>
            </g>
          </g>
        </g>
        <g id="Grupo_31199" data-name="Grupo 31199" transform="translate(261.389 92.852)" style="mix-blend-mode: multiply;isolation: isolate">
          <g id="Grupo_31198" data-name="Grupo 31198">
            <g id="Grupo_31197" data-name="Grupo 31197" clip-path="url(#clip-path-9)">
              <path id="Trazado_27966" data-name="Trazado 27966" d="M1098.441,363.642a2.51,2.51,0,0,1-.374-.028L949.779,341.58a2.49,2.49,0,1,1,.742-4.924l148.288,22.034a2.49,2.49,0,0,1-.368,4.952" transform="translate(-947.66 -336.629)" fill="#bfbfbf"/>
            </g>
          </g>
        </g>
        <g id="Grupo_31202" data-name="Grupo 31202" transform="translate(357.947 77.293)" style="mix-blend-mode: multiply;isolation: isolate">
          <g id="Grupo_31201" data-name="Grupo 31201">
            <g id="Grupo_31200" data-name="Grupo 31200" clip-path="url(#clip-path-10)">
              <path id="Trazado_27967" data-name="Trazado 27967" d="M1351,293.368c-.123,0-.248-.009-.374,1.485l-50.784-8.173c-1.359-1.718-2.3-2.986-2.09-4.345a2.49,2.49,0,0,1,2.833-2.091l50.784,8.173a2.49,2.49,0,0,1-.368,4.952" transform="translate(-1297.727 -280.217)" fill="#bfbfbf"/>
            </g>
          </g>
        </g>
        <path id="Trazado_27968" data-name="Trazado 27968" d="M584.956,556.678c-27.763,19.483-98.877,38.479-98.877,38.479l80.855,188.5,47.246-8.767Z" transform="translate(-352.006 -403.131)" fill="#f5d2a9"/>
        <path id="Trazado_27969" data-name="Trazado 27969" d="M1446.111,659.1l113.976,29.712-61.859,169.015h-55.04Z" transform="translate(-1045.12 -477.302)" fill="#f5d2a9"/>
        <g id="Grupo_31205" data-name="Grupo 31205" transform="translate(439.134 215.255)" style="mix-blend-mode: multiply;isolation: isolate">
          <g id="Grupo_31204" data-name="Grupo 31204">
            <g id="Grupo_31203" data-name="Grupo 31203" clip-path="url(#clip-path-11)">
              <path id="Trazado_27970" data-name="Trazado 27970" d="M1643.737,799.461a2.526,2.526,0,0,1-.368-.072l-49.467-14.1a2.49,2.49,0,0,1,1.318-4.8l49.467,14.1a2.489,2.489,0,0,1-.949,4.873" transform="translate(-1592.071 -780.398)" fill="#bfbfbf"/>
            </g>
          </g>
        </g>
        <g id="Grupo_31208" data-name="Grupo 31208" transform="translate(411.372 227.675)" style="mix-blend-mode: multiply;isolation: isolate">
          <g id="Grupo_31207" data-name="Grupo 31207">
            <g id="Grupo_31206" data-name="Grupo 31206" clip-path="url(#clip-path-12)">
              <path id="Trazado_27971" data-name="Trazado 27971" d="M1543.082,844.492a2.489,2.489,0,0,1-.368-.072l-49.467-14.1a2.49,2.49,0,0,1,1.318-4.8l49.466,14.1a2.49,2.49,0,0,1-.949,4.874" transform="translate(-1491.417 -825.429)" fill="#bfbfbf"/>
            </g>
          </g>
        </g>
        <g id="Grupo_31211" data-name="Grupo 31211" transform="translate(409.179 284.663)" style="mix-blend-mode: multiply;isolation: isolate">
          <g id="Grupo_31210" data-name="Grupo 31210">
            <g id="Grupo_31209" data-name="Grupo 31209" clip-path="url(#clip-path-11)">
              <path id="Trazado_27972" data-name="Trazado 27972" d="M1535.136,1051.1a2.43,2.43,0,0,1-.368-.072l-49.467-14.1a2.49,2.49,0,1,1,1.318-4.8l49.466,14.1a2.49,2.49,0,0,1-.949,4.874" transform="translate(-1483.47 -1032.037)" fill="#bfbfbf"/>
            </g>
          </g>
        </g>
        <g id="Grupo_31214" data-name="Grupo 31214" transform="translate(182.052 192.487)" style="mix-blend-mode: multiply;isolation: isolate">
          <g id="Grupo_31213" data-name="Grupo 31213">
            <g id="Grupo_31212" data-name="Grupo 31212" clip-path="url(#clip-path-14)">
              <path id="Trazado_27973" data-name="Trazado 27973" d="M712.463,702.55a2.457,2.457,0,0,1-.345.149l-48.791,16.285a2.489,2.489,0,1,1-1.623-4.707L710.5,697.992a2.49,2.49,0,0,1,1.968,4.558" transform="translate(-660.026 -697.855)" fill="#bfbfbf"/>
            </g>
          </g>
        </g>
        <g id="Grupo_31217" data-name="Grupo 31217" transform="translate(176.207 230.479)" style="mix-blend-mode: multiply;isolation: isolate">
          <g id="Grupo_31216" data-name="Grupo 31216">
            <g id="Grupo_31215" data-name="Grupo 31215" clip-path="url(#clip-path-14)">
              <path id="Trazado_27974" data-name="Trazado 27974" d="M691.273,840.289a2.455,2.455,0,0,1-.345.148l-48.791,16.286a2.489,2.489,0,1,1-1.623-4.707l48.791-16.286a2.49,2.49,0,0,1,1.968,4.558" transform="translate(-638.836 -835.594)" fill="#bfbfbf"/>
            </g>
          </g>
        </g>
        <g id="Grupo_31220" data-name="Grupo 31220" transform="translate(186.923 260.678)" style="mix-blend-mode: multiply;isolation: isolate">
          <g id="Grupo_31219" data-name="Grupo 31219">
            <g id="Grupo_31218" data-name="Grupo 31218" clip-path="url(#clip-path-14)">
              <path id="Trazado_27975" data-name="Trazado 27975" d="M730.123,949.774a2.508,2.508,0,0,1-.345.148l-48.791,16.286a2.489,2.489,0,1,1-1.623-4.707l48.791-16.286a2.49,2.49,0,0,1,1.968,4.558" transform="translate(-677.686 -945.078)" fill="#bfbfbf"/>
            </g>
          </g>
        </g>
        <g id="Grupo_31223" data-name="Grupo 31223" transform="translate(213.225 305.489)" style="mix-blend-mode: multiply;isolation: isolate">
          <g id="Grupo_31222" data-name="Grupo 31222">
            <g id="Grupo_31221" data-name="Grupo 31221" clip-path="url(#clip-path-14)">
              <path id="Trazado_27976" data-name="Trazado 27976" d="M825.48,1112.235a2.515,2.515,0,0,1-.345.149l-48.791,16.286a2.489,2.489,0,1,1-1.623-4.707l48.791-16.286a2.49,2.49,0,0,1,1.968,4.558" transform="translate(-773.043 -1107.54)" fill="#bfbfbf"/>
            </g>
          </g>
        </g>
        <path id="Trazado_27977" data-name="Trazado 27977" d="M752.728,337.708C846.247,377.161,991.4,376.187,991.4,376.187l-19.97,247.435h-188.5Z" transform="translate(-545.106 -244.559)" fill="#ffe9bf"/>
        <g id="Grupo_31226" data-name="Grupo 31226" transform="translate(237.023 129.331)" style="mix-blend-mode: multiply;isolation: isolate">
          <g id="Grupo_31225" data-name="Grupo 31225">
            <g id="Grupo_31224" data-name="Grupo 31224" clip-path="url(#clip-path-18)">
              <path id="Trazado_27978" data-name="Trazado 27978" d="M859.321,711.064l.8,7.551h188.5l19.97-247.435s-23.981.161-58.729-2.3C980.446,571.645,894.95,672.307,859.321,711.064" transform="translate(-859.321 -468.883)" fill="#ededed"/>
            </g>
          </g>
        </g>
        <path id="Trazado_27979" data-name="Trazado 27979" d="M1047.265,1203.324h0a8.28,8.28,0,0,0-8.281-8.281h-27.926a8.28,8.28,0,0,0-8.28,8.281,8.28,8.28,0,0,1-8.28,8.28H980.86a8.28,8.28,0,0,0-8.28,8.28v20.457h104.884v-20.457a8.28,8.28,0,0,0-8.28-8.28h-13.638a8.28,8.28,0,0,1-8.28-8.28" transform="translate(-704.317 -865.419)" fill="#273b52"/>
        <path id="Trazado_27980" data-name="Trazado 27980" d="M1010.7,1366.73H823.658V1354.6a1.511,1.511,0,0,1,1.511-1.511h184.015a1.511,1.511,0,0,1,1.511,1.511Z" transform="translate(-596.472 -979.874)" fill="#314a66"/>
        <path id="Trazado_27981" data-name="Trazado 27981" d="M1379.276,739.011l-51.821-39.268a44.578,44.578,0,0,0-15.611-5.472l-.483,1.126s4.828,9.978,9.334,13.036l66.627,52.626Z" transform="translate(-949.654 -502.772)" fill="#314a66"/>
        <path id="Trazado_27982" data-name="Trazado 27982" d="M1585.976,1347.319c0,.4-.483,4.345,1.046,6.156s2.615,5.794,1.368,7.725h-24.825c.925-1.811,10.3-5.392,12.352-6.92s.885-5.794.885-5.794Z" transform="translate(-1132.294 -975.693)" fill="#ff8762"/>
        <path id="Trazado_27983" data-name="Trazado 27983" d="M1626.049,960.042c4.225,6.2,2.293,19.835,1.086,26.353s-5.793,36.452-5.793,36.452-1.328,29.813-1.328,30.538-1.569,15.329-1.811,15.691c-3.138,3.5-12.191.12-12.191.12s1.448-49.97,1.569-51.3,3.259-46.953,3.38-47.315,3.621-10.26,3.621-10.26Z" transform="translate(-1163.033 -695.237)" fill="#004059"/>
        <path id="Trazado_27984" data-name="Trazado 27984" d="M1575.918,1371.307a2.426,2.426,0,0,0,.478-.475c1.274,1.127,1.5,2.834,3.465,3.653,2.256.94,6.024-.39,8.246-2.164.854,1.959,1.2,4.486.284,5.906h-24.824c.925-1.811,10.3-5.391,12.352-6.92" transform="translate(-1132.294 -992.721)" fill="#2b1710"/>
        <path id="Trazado_27985" data-name="Trazado 27985" d="M1643.009,1347.319c0,.4-.483,4.345,1.046,6.156s2.615,5.794,1.368,7.725H1620.6c.925-1.811,10.3-5.392,12.352-6.92s.885-5.794.885-5.794Z" transform="translate(-1173.596 -975.693)" fill="#ff8762"/>
        <path id="Trazado_27986" data-name="Trazado 27986" d="M1593.711,959.772c0,.322,4.989,8.208,4.426,13.6s-5.311,9.415-5.311,9.415c0,.644,3.058,33.233,4.506,35.486,2.092,3.3,5.472,13.68,7.162,23.818s3.138,24.865,3.138,24.865c-2.173,2.9-12.553,1.448-12.553,1.448s-8.208-32.59-14.726-45.143-13.76-44.74-10.139-61.719c3.138-3.219,23.5-1.77,23.5-1.77" transform="translate(-1136.409 -694.806)" fill="#005769"/>
        <path id="Trazado_27987" data-name="Trazado 27987" d="M1502.8,785.584c1.931.322,13.921,4.587,17.059,11.588s8.69,23.5,5.23,28.244-9.576,4.265-9.576,4.265c-.241,1.609-2.575,2.495-2.575,2.495l.4,1.529c-12.794,3.782-29.21,1.931-29.21,1.931l-.725-3.621c-3.379-3.058-3.862-11.426-3.862-11.426s-7.081,7.966-12.633,8.127-9.093-3.782-11.185-9.334-5.351-15.168-5.351-15.168a14.737,14.737,0,0,1,5.351-5.19c.322-.08,10.38,10.622,10.622,10.622,3.219-2.333,7.725-12.07,12.553-16.818s13.157-6.679,13.157-6.679Z" transform="translate(-1050.323 -568.899)" fill="#f27522"/>
        <path id="Trazado_27988" data-name="Trazado 27988" d="M1597.585,681.5c-5.914-3.561-12.251,0-13.1,3.5s1.287,3.943,1.287,3.943,2.455,7.282,2.455,7.463,3.621,9.294,3.8,9.717,1.57,3.017,1.871,3.017,4.225-2.374,4.225-2.374c2.656.081,4.466-1.67,3.8-1.911s-2.052-.362.543-3.621,10.561-17.079-4.889-19.735" transform="translate(-1147.302 -492.453)" fill="#2b1710"/>
        <path id="Trazado_27989" data-name="Trazado 27989" d="M1581.872,722.713a1.939,1.939,0,1,1,1.9,2.307,2.137,2.137,0,0,1-1.9-2.307m.308,0a1.637,1.637,0,1,0,1.6-2,1.834,1.834,0,0,0-1.6,2" transform="translate(-1145.551 -521.699)" fill="#2b1710"/>
        <path id="Trazado_27990" data-name="Trazado 27990" d="M1587.23,726.362l-1.932,4.1s1.408,1.287,1.529,1.328.4-5.432.4-5.432" transform="translate(-1148.033 -526.012)" fill="#f57954"/>
        <path id="Trazado_27991" data-name="Trazado 27991" d="M1589.152,712.359c.724,3.46,3.1,3.862,3.1,3.862a3.692,3.692,0,0,0,.885,1.971c1.006-2.374,3.3-1.489,3.34.966s-1.811,3.5-1.811,6.4,2.334,5.593,6.84,4.627c-.16,1.891,1.65,2.213,1.65,2.374-1.408,2.736-7,4.265-10.743.564,1.931-1.328.966-5.029-.04-5.472s-2.011-.6-2.816-1.972-.684-6.116-.322-7.6-.523-4.265-.081-5.713" transform="translate(-1150.679 -515.871)" fill="#ff8762"/>
        <path id="Trazado_27992" data-name="Trazado 27992" d="M1433.554,811.909c0-3.138-1.368-4.265-2.736-5.472s-1.61-3.058-1.931-3.058-.925,1.006-.443,2.776,1.126,2.978-1.891,2.213-5.955-3.822-6.437-3.621-.2,1.006-.241,1.167c-.362.6.241,1.569.241,1.569a7.2,7.2,0,0,0,3.42,5.07c2.575,1.449,4.546,4.908,4.667,4.546a13.246,13.246,0,0,1,5.351-5.19" transform="translate(-1028.153 -581.786)" fill="#ff8762"/>
        <g id="Grupo_31229" data-name="Grupo 31229" transform="translate(442.885 201.309)" style="mix-blend-mode: multiply;isolation: isolate">
          <g id="Grupo_31228" data-name="Grupo 31228">
            <g id="Grupo_31227" data-name="Grupo 31227" clip-path="url(#clip-path-19)">
              <path id="Trazado_27993" data-name="Trazado 27993" d="M1605.941,733.683a1.267,1.267,0,0,0,1.239-.657,1.289,1.289,0,0,0-.169-1.363,1.062,1.062,0,0,0-.961-.383c.092-.415.39-1.048.692-1.127.146-.038.3.074.462.335a.154.154,0,0,0,.262-.162c-.3-.485-.6-.525-.8-.472-.589.155-.937,1.259-.951,1.613a.154.154,0,0,0,.2.154.777.777,0,0,1,.865.239.973.973,0,0,1,.13,1.027,1.043,1.043,0,0,1-1.07.483.154.154,0,0,0-.015.308c.042,0,.083,0,.122,0" transform="translate(-1605.672 -729.837)" fill="#e0b3a8"/>
            </g>
          </g>
        </g>
        <g id="Grupo_31232" data-name="Grupo 31232" transform="translate(441.236 204.682)" style="mix-blend-mode: multiply;isolation: isolate">
          <g id="Grupo_31231" data-name="Grupo 31231">
            <g id="Grupo_31230" data-name="Grupo 31230" clip-path="url(#clip-path-20)">
              <path id="Trazado_27994" data-name="Trazado 27994" d="M1599.847,747.969a.156.156,0,0,0,.052-.009c1.562-.562,1.781-2.609,1.792-4.159a2.252,2.252,0,0,0,1.706-1.543.154.154,0,0,0-.3-.071,2,2,0,0,1-1.569,1.33.146.146,0,0,0-.145.154c0,1.471-.165,3.487-1.588,4a.154.154,0,0,0,.052.3" transform="translate(-1599.692 -742.068)" fill="#e0b3a8"/>
            </g>
          </g>
        </g>
        <g id="Grupo_31235" data-name="Grupo 31235" transform="translate(463.63 235.602)" style="mix-blend-mode: multiply;isolation: isolate">
          <g id="Grupo_31234" data-name="Grupo 31234">
            <g id="Grupo_31233" data-name="Grupo 31233" clip-path="url(#clip-path-21)">
              <path id="Trazado_27995" data-name="Trazado 27995" d="M1682.2,878.736a.155.155,0,0,0,.141-.09c.63-1.386.486-5.692-.351-10.471-1.1-6.307-1.066-10.949.111-13.8a.154.154,0,1,0-.285-.118c-1.2,2.9-1.244,7.6-.13,13.966.813,4.649.971,8.976.373,10.29a.154.154,0,0,0,.077.2.151.151,0,0,0,.063.014" transform="translate(-1680.878 -854.166)" fill="#bfbfbf"/>
            </g>
          </g>
        </g>
        <g id="Grupo_31238" data-name="Grupo 31238" transform="translate(463.646 238.529)" style="mix-blend-mode: multiply;isolation: isolate">
          <g id="Grupo_31237" data-name="Grupo 31237">
            <g id="Grupo_31236" data-name="Grupo 31236" clip-path="url(#clip-path-22)">
              <path id="Trazado_27996" data-name="Trazado 27996" d="M1681.094,866.715a.154.154,0,0,0,.144-.1,7.462,7.462,0,0,1,.914-1.592.154.154,0,0,0-.244-.188,7.606,7.606,0,0,0-.957,1.667.154.154,0,0,0,.143.211" transform="translate(-1680.94 -864.778)" fill="#bfbfbf"/>
            </g>
          </g>
        </g>
        <g id="Grupo_31241" data-name="Grupo 31241" transform="translate(465.577 226.911)" style="mix-blend-mode: multiply;isolation: isolate">
          <g id="Grupo_31240" data-name="Grupo 31240">
            <g id="Grupo_31239" data-name="Grupo 31239" clip-path="url(#clip-path-23)">
              <path id="Trazado_27997" data-name="Trazado 27997" d="M1688.1,827.8a.155.155,0,0,0,.149-.113,25.525,25.525,0,0,1,2.039-4.8.154.154,0,0,0-.271-.148,25.912,25.912,0,0,0-2.065,4.861.154.154,0,0,0,.108.19.152.152,0,0,0,.041.006" transform="translate(-1687.941 -822.659)" fill="#bfbfbf"/>
            </g>
          </g>
        </g>
        <g id="Grupo_31244" data-name="Grupo 31244" transform="translate(429.849 223.652)" style="mix-blend-mode: multiply;isolation: isolate">
          <g id="Grupo_31243" data-name="Grupo 31243">
            <g id="Grupo_31242" data-name="Grupo 31242" clip-path="url(#clip-path-24)">
              <path id="Trazado_27998" data-name="Trazado 27998" d="M1564.481,820.144a.154.154,0,0,0,.154-.151c.065-2.667-1.327-8.413-6.045-9.148a.154.154,0,1,0-.048.3c4.472.7,5.844,6.36,5.784,8.836a.154.154,0,0,0,.15.158Z" transform="translate(-1558.412 -810.843)" fill="#bfbfbf"/>
            </g>
          </g>
        </g>
        <g id="Grupo_31247" data-name="Grupo 31247" transform="translate(430.092 243.146)" style="mix-blend-mode: multiply;isolation: isolate">
          <g id="Grupo_31246" data-name="Grupo 31246">
            <g id="Grupo_31245" data-name="Grupo 31245" clip-path="url(#clip-path-25)">
              <path id="Trazado_27999" data-name="Trazado 27999" d="M1559.44,889.007a.154.154,0,0,0,.123-.061,60.919,60.919,0,0,0,4.721-7.2.154.154,0,0,0-.272-.146,60.479,60.479,0,0,1-4.694,7.161.154.154,0,0,0,.123.247" transform="translate(-1559.287 -881.516)" fill="#bfbfbf"/>
            </g>
          </g>
        </g>
        <g id="Grupo_31250" data-name="Grupo 31250" transform="translate(413.857 241.695)" style="mix-blend-mode: multiply;isolation: isolate">
          <g id="Grupo_31249" data-name="Grupo 31249">
            <g id="Grupo_31248" data-name="Grupo 31248" clip-path="url(#clip-path-26)">
              <path id="Trazado_28000" data-name="Trazado 28000" d="M1501.307,881.276h0a.155.155,0,0,0,.151-.157,11.184,11.184,0,0,1,.751-3.82c.218-.638.3-.877.142-1-.129-.1-.288.007-.348.047a6.93,6.93,0,0,0-1.561,2.111.154.154,0,0,0,.276.138,7.314,7.314,0,0,1,1.375-1.934c-.039.141-.108.341-.175.537a11.438,11.438,0,0,0-.768,3.926.154.154,0,0,0,.154.151" transform="translate(-1500.429 -876.258)" fill="#bfbfbf"/>
            </g>
          </g>
        </g>
        <g id="Grupo_31253" data-name="Grupo 31253" transform="translate(401.244 231.377)" style="mix-blend-mode: multiply;isolation: isolate">
          <g id="Grupo_31252" data-name="Grupo 31252">
            <g id="Grupo_31251" data-name="Grupo 31251" clip-path="url(#clip-path-27)">
              <path id="Trazado_28001" data-name="Trazado 28001" d="M1454.854,843.685a.155.155,0,0,0,.133-.075c.01-.016,1-1.647,4.55-4.485a.154.154,0,0,0-.193-.241c-3.6,2.881-4.583,4.5-4.623,4.568a.154.154,0,0,0,.054.211.151.151,0,0,0,.079.022" transform="translate(-1454.7 -838.85)" fill="#bfbfbf"/>
            </g>
          </g>
        </g>
        <g id="Grupo_31256" data-name="Grupo 31256" transform="translate(391.83 224.196)" style="mix-blend-mode: multiply;isolation: isolate">
          <g id="Grupo_31255" data-name="Grupo 31255">
            <g id="Grupo_31254" data-name="Grupo 31254" clip-path="url(#clip-path-28)">
              <path id="Trazado_28002" data-name="Trazado 28002" d="M1425.248,816.078a.154.154,0,0,0,.052-.3c-.033-.012-3.344-1.21-4.449-2.9a.154.154,0,1,0-.258.169c1.162,1.773,4.463,2.968,4.6,3.018a.154.154,0,0,0,.052.009" transform="translate(-1420.568 -812.813)" fill="#e0b3a8"/>
            </g>
          </g>
        </g>
        <g id="Grupo_31259" data-name="Grupo 31259" transform="translate(392.13 225.704)" style="mix-blend-mode: multiply;isolation: isolate">
          <g id="Grupo_31258" data-name="Grupo 31258">
            <g id="Grupo_31257" data-name="Grupo 31257" clip-path="url(#clip-path-29)">
              <path id="Trazado_28003" data-name="Trazado 28003" d="M1425.315,822.151a.154.154,0,0,0,.082-.285,11.2,11.2,0,0,1-3.446-3.5.154.154,0,1,0-.273.144,11.294,11.294,0,0,0,3.555,3.619.152.152,0,0,0,.082.023" transform="translate(-1421.661 -818.283)" fill="#e0b3a8"/>
            </g>
          </g>
        </g>
        <path id="Trazado_28004" data-name="Trazado 28004" d="M1605.984,980.171l-12.875.322s-.965,7.564,9.013,9.817c5.955-1.609,3.862-10.139,3.862-10.139" transform="translate(-1153.67 -709.814)" fill="#004059"/>
        <g id="Grupo_31262" data-name="Grupo 31262" transform="translate(446.366 286.373)" style="mix-blend-mode: multiply;isolation: isolate">
          <g id="Grupo_31261" data-name="Grupo 31261">
            <g id="Grupo_31260" data-name="Grupo 31260" clip-path="url(#clip-path-30)">
              <path id="Trazado_28005" data-name="Trazado 28005" d="M1622.306,1041.525a.165.165,0,0,0,.049-.008c.014,0,1.478-.491,4.179-1.286.3-.09.583-.2.554-.43-.026-.2-.065-.509-4.418-.8-1.049-.069-2.1-.12-2.894-.153a16.525,16.525,0,0,1,7.469.25.154.154,0,1,0,.1-.291c-3.7-1.288-8.887-.017-8.939,0a.154.154,0,0,0,.033.3c3.7.11,7.688.4,8.293.719a1.622,1.622,0,0,1-.284.106c-2.708.8-4.175,1.285-4.19,1.289a.154.154,0,0,0,.049.3" transform="translate(-1618.29 -1038.235)" fill="#bfbfbf"/>
            </g>
          </g>
        </g>
        <path id="Trazado_28006" data-name="Trazado 28006" d="M1675.123,988.982c-1.609-.483-3.863-3.863-4.345-9.978.966.483,3.219,0,3.219,0a21.542,21.542,0,0,1,1.127,9.978" transform="translate(-1209.935 -708.969)" fill="#004059"/>
        <g id="Grupo_31265" data-name="Grupo 31265" transform="translate(459.401 368.535)" style="mix-blend-mode: multiply;isolation: isolate">
          <g id="Grupo_31264" data-name="Grupo 31264">
            <g id="Grupo_31263" data-name="Grupo 31263" clip-path="url(#clip-path-31)">
              <path id="Trazado_28007" data-name="Trazado 28007" d="M1668.672,1337.96a19.541,19.541,0,0,0,7.23-1.551.154.154,0,1,0-.115-.287c-6.3,2.518-9.989,1.141-10.026,1.126a.154.154,0,0,0-.112.287,8.89,8.89,0,0,0,3.022.424" transform="translate(-1665.551 -1336.111)" fill="#bfbfbf"/>
            </g>
          </g>
        </g>
        <g id="Grupo_31268" data-name="Grupo 31268" transform="translate(446.043 368.374)" style="mix-blend-mode: multiply;isolation: isolate">
          <g id="Grupo_31267" data-name="Grupo 31267">
            <g id="Grupo_31266" data-name="Grupo 31266" clip-path="url(#clip-path-32)">
              <path id="Trazado_28008" data-name="Trazado 28008" d="M1623.164,1336.6c.811,0,1.7-.035,2.657-.12a.154.154,0,0,0-.027-.307,21.515,21.515,0,0,1-8.463-.635.154.154,0,0,0-.107.29,19.04,19.04,0,0,0,5.939.772" transform="translate(-1617.123 -1335.528)" fill="#bfbfbf"/>
            </g>
          </g>
        </g>
        <rect id="Rectángulo_4363" data-name="Rectángulo 4363" width="0.308" height="6.123" transform="translate(436.43 200.903) rotate(-78.242)" fill="#2b1710"/>
        <path id="Trazado_28009" data-name="Trazado 28009" d="M1632.952,1371.307a2.441,2.441,0,0,0,.478-.475c1.274,1.127,1.5,2.834,3.465,3.653,2.256.94,6.024-.39,8.246-2.164.854,1.959,1.2,4.486.284,5.906H1620.6c.926-1.811,10.3-5.391,12.352-6.92" transform="translate(-1173.597 -992.721)" fill="#3b1f16"/>
        <path id="Trazado_28010" data-name="Trazado 28010" d="M1311.361,695.4l.483-1.126a44.578,44.578,0,0,1,15.611,5.472c-4.667,2.454-6.558,6.518-6.76,8.69-4.506-3.058-9.334-13.036-9.334-13.036" transform="translate(-949.654 -502.772)" fill="#3b597a"/>
        <path id="Trazado_28011" data-name="Trazado 28011" d="M1304.64,690.175s-3.038-2.213-3.219-1.368,2.736,2.494,2.736,2.494Z" transform="translate(-942.45 -498.676)" fill="#314a66"/>
        <g id="Grupo_31271" data-name="Grupo 31271" transform="translate(368.448 193.93)" style="mix-blend-mode: screen;isolation: isolate">
          <g id="Grupo_31270" data-name="Grupo 31270">
            <g id="Grupo_31269" data-name="Grupo 31269" clip-path="url(#clip-path-33)">
              <path id="Trazado_28012" data-name="Trazado 28012" d="M1335.976,703.088c5.309.559,5.915,3.923,4.708,3.742s-5.854-3.862-4.708-3.742" transform="translate(-1335.797 -703.086)" fill="#4d4d4d"/>
            </g>
          </g>
        </g>
        <g id="Grupo_31274" data-name="Grupo 31274" transform="translate(366.001 193.083)" style="mix-blend-mode: screen;isolation: isolate">
          <g id="Grupo_31273" data-name="Grupo 31273">
            <g id="Grupo_31272" data-name="Grupo 31272" clip-path="url(#clip-path-34)">
              <path id="Trazado_28013" data-name="Trazado 28013" d="M1327.441,700.021c1.352.1,1.267,1.448.3.966s-1.086-1.026-.3-.966" transform="translate(-1326.927 -700.016)" fill="#4d4d4d"/>
            </g>
          </g>
        </g>
        <path id="Trazado_28014" data-name="Trazado 28014" d="M586.144,421H535.88a2.267,2.267,0,0,1-2.267-2.266v-2.527a2.266,2.266,0,0,1,2.267-2.266h50.264a2.266,2.266,0,0,1,2.267,2.266v2.527A2.266,2.266,0,0,1,586.144,421" transform="translate(-386.429 -299.763)" fill="#572807"/>
        <path id="Trazado_28015" data-name="Trazado 28015" d="M458.108,690.246c-.053,0-.107,0-.161-.008a1.718,1.718,0,0,1-1.551-1.87L481.272,421.44a1.718,1.718,0,1,1,3.422.319L459.817,688.686a1.718,1.718,0,0,1-1.709,1.559" transform="translate(-330.504 -304.066)" fill="#572807"/>
        <path id="Trazado_28016" data-name="Trazado 28016" d="M621.633,690.246c-.053,0-.107,0-.161-.008a1.718,1.718,0,0,1-1.551-1.87L644.8,421.44a1.718,1.718,0,1,1,3.422.319L623.342,688.686a1.719,1.719,0,0,1-1.709,1.559" transform="translate(-448.925 -304.066)" fill="#572807"/>
        <path id="Trazado_28017" data-name="Trazado 28017" d="M827.971,573.124s.667,3.067-.756,4.579a7.83,7.83,0,0,0-2.356,6.224l26.451,7.157c-.311-2.712-6.491-9.691-9.069-11.292s-4.179-2.579-4.179-3.957v-2.979Z" transform="translate(-597.298 -414.848)" fill="#ff8762"/>
        <path id="Trazado_28018" data-name="Trazado 28018" d="M824.859,592.863l26.451,7.157c-.311-2.712-6.491-9.691-9.069-11.292-2.305-1.431-3.825-2.365-4.122-3.531-.65.526-.765,1.609-2.635,2.376-1.785.732-5.4-.809-7.661-1.948a2.972,2.972,0,0,1-.608,1.015,7.831,7.831,0,0,0-2.356,6.224" transform="translate(-597.298 -423.784)" fill="#2b1710"/>
        <path id="Trazado_28019" data-name="Trazado 28019" d="M872.921,593.638a.17.17,0,0,1-.059-.33,4.664,4.664,0,0,0,2.564-2.739.17.17,0,1,1,.323.108,4.925,4.925,0,0,1-2.771,2.951.172.172,0,0,1-.058.01" transform="translate(-632.023 -427.589)" fill="#4a281c"/>
        <path id="Trazado_28020" data-name="Trazado 28020" d="M885.17,601.307a.17.17,0,0,1-.054-.332,5.417,5.417,0,0,0,2.226-2.07.17.17,0,0,1,.279.2,5.584,5.584,0,0,1-2.4,2.2.177.177,0,0,1-.054.009" transform="translate(-640.894 -433.658)" fill="#4a281c"/>
        <path id="Trazado_28021" data-name="Trazado 28021" d="M853.467,612.312a.169.169,0,0,1-.047-.007l-21.161-6.046a.17.17,0,0,1,.094-.328l21.161,6.046a.17.17,0,0,1-.047.334" transform="translate(-602.611 -438.794)" fill="#4a281c"/>
        <path id="Trazado_28022" data-name="Trazado 28022" d="M646.182,329.161s39.877,9.736,42.411,13.737,9.6,54.948,9.6,54.948c-3.6,2-14.4.4-14.4.4s-8.8-42.144-13.337-44.012-40.944-15.337-40.944-16,6.8-8.936,6.8-8.936Z" transform="translate(-455.876 -238.369)" fill="#004059"/>
        <path id="Trazado_28023" data-name="Trazado 28023" d="M738.036,576.025s.667,3.067-.756,4.579a7.831,7.831,0,0,0-2.356,6.224l26.451,7.157c-.311-2.712-6.491-9.691-9.069-11.292s-4.179-2.578-4.179-3.956v-2.979Z" transform="translate(-532.17 -416.948)" fill="#ff8762"/>
        <path id="Trazado_28024" data-name="Trazado 28024" d="M734.923,595.763l26.451,7.157c-.311-2.712-6.49-9.691-9.069-11.292-2.305-1.431-3.825-2.365-4.122-3.532-.65.526-.765,1.609-2.635,2.376-1.785.732-5.4-.809-7.661-1.948a2.973,2.973,0,0,1-.608,1.014,7.833,7.833,0,0,0-2.356,6.224" transform="translate(-532.169 -425.884)" fill="#2b1710"/>
        <path id="Trazado_28025" data-name="Trazado 28025" d="M564.354,313.2c-2.934,10.4-3.2,23.473,6.4,27.474s33.342,5.068,33.342,5.068,5.335,40.01,6.135,40.811c5.068,2.4,15.2.267,15.2.267s-2.134-57.082-3.2-57.882-25.607-5.868-25.607-5.868v-8.536Z" transform="translate(-407.389 -226.814)" fill="#005769"/>
        <path id="Trazado_28026" data-name="Trazado 28026" d="M658.217,33.733c.7-1.3.5-6.8-.033-9s-.867-9.536,3.2-9.4c1.734-2.734,2.6-1.334,2.6-1.334,4.535-1.8,9.136.4,11.8.667s3.134.934,2.267,1.867c2.2,3.468.8,6.2-1.934,7.335s-10.67,8.2-10.67,8.2-6.068,3.2-7.235,1.667" transform="translate(-476.413 -9.626)" fill="#2b1710"/>
        <path id="Trazado_28027" data-name="Trazado 28027" d="M599.778,96.855c.689,1.178-.2,3.4-.2,3.4,5.512,7.557,16.982,17.16,26.229,18.4,10.136-4.357,21.917-8.469,21.917-8.469l3.934,4.668c-.067.244-18.561,19.538-23.984,20.161s-25.251-5.957-25.251-5.691c-1.689,4.8,2.045,24.1-1.245,26.585s-32.275,3.29-35.654-4.535c1.334-13.693,4.179-37.521,12.27-46.946S588.22,88.12,590.609,89.253s9.169,7.6,9.169,7.6" transform="translate(-409.539 -64.546)" fill="#de442a"/>
        <path id="Trazado_28028" data-name="Trazado 28028" d="M863.537,138.7c.8-2.334,3.467-5.8,5.868-6.6a15.584,15.584,0,0,0,5.468-3.6c1,1.267-1.934,5.6-1.934,5.6l9.336-.333-.2.734a4.521,4.521,0,0,1-.867,1.734c0,.867-2.334,3.467-4.2,4s-8,3.2-9.536,3.134c-2.734-.733-3.934-4.668-3.934-4.668" transform="translate(-625.351 -93.054)" fill="#ff8762"/>
        <path id="Trazado_28029" data-name="Trazado 28029" d="M675.74,43.035c.067.4.867,4.735.567,5.5s-1.334,1.334-1.1,2.9,1.934,3.568,1.867,3.8-1.634.567-2.1.633-.434,1.7-1,1.834c-.233,1-1.067,1.867-1.067,2.767s.133,2.2-1.167,2.467-3.834-1.567-4.435-1.334c-.6.267-1.667,1.867-1.667,1.867-.067-.067-8.569-1.967-9.169-7.6a7.21,7.21,0,0,0,2.867-3.8c-.266-2.367.534-4.935,2.734-4.634s2.667,2.8,2.8,3.3c.267.634,1.5-.3,1.867-1.367,2-1.233,1.367-2.234,1.934-3.9s2.134-2,3.768-1.567a4.36,4.36,0,0,0,3.3-.867" transform="translate(-475.397 -31.164)" fill="#ff8762"/>
        <path id="Trazado_28030" data-name="Trazado 28030" d="M713.761,66.474c0,.639-.278,1.156-.622,1.156s-.622-.517-.622-1.156.278-1.156.622-1.156.622.517.622,1.156" transform="translate(-515.986 -47.301)" fill="#2b1710"/>
        <path id="Trazado_28031" data-name="Trazado 28031" d="M707.519,54.955a5.908,5.908,0,0,1,4.179-.445c-1.067-2.223-3.245-2.178-4.179.445" transform="translate(-512.367 -38.316)" fill="#2b1710"/>
        <path id="Trazado_28032" data-name="Trazado 28032" d="M706.3,90.206l-.029,0a9.12,9.12,0,0,1-4.31-2,.17.17,0,0,1,.23-.251,8.948,8.948,0,0,0,4.137,1.914.17.17,0,0,1-.029.338" transform="translate(-508.302 -63.661)" fill="#2b1710"/>
        <g id="Grupo_31277" data-name="Grupo 31277" transform="translate(185.424 17.717)" style="mix-blend-mode: multiply;isolation: isolate">
          <g id="Grupo_31276" data-name="Grupo 31276">
            <g id="Grupo_31275" data-name="Grupo 31275" clip-path="url(#clip-path-35)">
              <path id="Trazado_28033" data-name="Trazado 28033" d="M674.332,68.834l-.026,0c-1.137-.173-1.485-.878-1.437-1.429a1.7,1.7,0,0,1,1.732-1.4,1.832,1.832,0,0,0-2.151-1.4.17.17,0,0,1-.06-.336,2.265,2.265,0,0,1,2.6,1.87.169.169,0,0,1-.037.142.171.171,0,0,1-.134.06c-.987-.023-1.561.544-1.608,1.088-.037.424.245.925,1.149,1.062a.17.17,0,0,1-.025.339" transform="translate(-672.249 -64.229)" fill="#e0b3a8"/>
            </g>
          </g>
        </g>
        <g id="Grupo_31280" data-name="Grupo 31280" transform="translate(186.875 23.849)" style="mix-blend-mode: multiply;isolation: isolate">
          <g id="Grupo_31279" data-name="Grupo 31279">
            <g id="Grupo_31278" data-name="Grupo 31278" clip-path="url(#clip-path-36)">
              <path id="Trazado_28034" data-name="Trazado 28034" d="M681.565,92.623a.171.171,0,0,1-.061-.011c-3.85-1.477-4.071-3.867-3.977-5.99a.173.173,0,0,1,.178-.163.17.17,0,0,1,.163.178c-.094,2.1.12,4.261,3.758,5.657a.17.17,0,0,1-.061.33" transform="translate(-677.512 -86.459)" fill="#e0b3a8"/>
            </g>
          </g>
        </g>
        <g id="Grupo_31283" data-name="Grupo 31283" transform="translate(174.798 34.399)" style="mix-blend-mode: multiply;isolation: isolate">
          <g id="Grupo_31282" data-name="Grupo 31282">
            <g id="Grupo_31281" data-name="Grupo 31281" clip-path="url(#clip-path-37)">
              <path id="Trazado_28035" data-name="Trazado 28035" d="M633.9,130.192a.17.17,0,0,1-.156-.24c1.824-4.1,5.867-5.892,11.385-5.034a.17.17,0,1,1-.052.337c-5.352-.832-9.265.885-11.021,4.836a.171.171,0,0,1-.156.1" transform="translate(-633.728 -124.709)" fill="#bfbfbf"/>
            </g>
          </g>
        </g>
        <g id="Grupo_31286" data-name="Grupo 31286" transform="translate(180.133 58.614)" style="mix-blend-mode: multiply;isolation: isolate">
          <g id="Grupo_31285" data-name="Grupo 31285">
            <g id="Grupo_31284" data-name="Grupo 31284" clip-path="url(#clip-path-38)">
              <path id="Trazado_28036" data-name="Trazado 28036" d="M665.109,217.373a.164.164,0,0,1-.041-.005c-9-2.25-11.82-4.474-11.936-4.567a.17.17,0,0,1,.214-.265c.028.023,2.894,2.274,11.8,4.5a.171.171,0,0,1-.041.336" transform="translate(-653.069 -212.498)" fill="#bfbfbf"/>
            </g>
          </g>
        </g>
        <g id="Grupo_31289" data-name="Grupo 31289" transform="translate(177.314 65.68)" style="mix-blend-mode: multiply;isolation: isolate">
          <g id="Grupo_31288" data-name="Grupo 31288">
            <g id="Grupo_31287" data-name="Grupo 31287" clip-path="url(#clip-path-39)">
              <path id="Trazado_28037" data-name="Trazado 28037" d="M643.036,257.137a.17.17,0,0,1-.17-.156c-.312-3.593,3.149-10.424,13.8-18.82a.17.17,0,1,1,.211.268c-10.546,8.313-13.977,15.019-13.673,18.523a.171.171,0,0,1-.155.185h-.015" transform="translate(-642.848 -238.123)" fill="#bfbfbf"/>
            </g>
          </g>
        </g>
        <g id="Grupo_31292" data-name="Grupo 31292" transform="translate(182.968 80.352)" style="mix-blend-mode: multiply;isolation: isolate">
          <g id="Grupo_31291" data-name="Grupo 31291">
            <g id="Grupo_31290" data-name="Grupo 31290" clip-path="url(#clip-path-40)">
              <path id="Trazado_28038" data-name="Trazado 28038" d="M665.882,299.788a.169.169,0,0,1-.1-.036c-.123-.095-3-2.394-2.332-8.29a.17.17,0,1,1,.339.039c-.647,5.692,2.174,7.959,2.2,7.982a.17.17,0,0,1-.1.305" transform="translate(-663.345 -291.311)" fill="#bfbfbf"/>
            </g>
          </g>
        </g>
        <g id="Grupo_31295" data-name="Grupo 31295" transform="translate(216.589 54.606)" style="mix-blend-mode: multiply;isolation: isolate">
          <g id="Grupo_31294" data-name="Grupo 31294">
            <g id="Grupo_31293" data-name="Grupo 31293" clip-path="url(#clip-path-41)">
              <path id="Trazado_28039" data-name="Trazado 28039" d="M785.5,203.117a.17.17,0,0,1-.17-.17c0-.978-.03-1.866-.054-2.579-.056-1.646-.063-2.174.168-2.347a.261.261,0,0,1,.244-.036c.422.141,1,1.971,1.31,3.049a.17.17,0,0,1-.328.094,12.713,12.713,0,0,0-1.042-2.771,12.154,12.154,0,0,0-.012,2c.025.716.055,1.607.055,2.591a.17.17,0,0,1-.17.17" transform="translate(-785.239 -197.969)" fill="#bfbfbf"/>
            </g>
          </g>
        </g>
        <g id="Grupo_31298" data-name="Grupo 31298" transform="translate(236.148 46.877)" style="mix-blend-mode: multiply;isolation: isolate">
          <g id="Grupo_31297" data-name="Grupo 31297">
            <g id="Grupo_31296" data-name="Grupo 31296" clip-path="url(#clip-path-42)">
              <path id="Trazado_28040" data-name="Trazado 28040" d="M859.254,175.223a.171.171,0,0,1-.165-.126c-.009-.034-.942-3.427-2.87-4.842a.17.17,0,1,1,.2-.275c2.026,1.485,2.959,4.884,3,5.028a.17.17,0,0,1-.12.209.177.177,0,0,1-.044.006" transform="translate(-856.15 -169.948)" fill="#bfbfbf"/>
            </g>
          </g>
        </g>
        <g id="Grupo_31301" data-name="Grupo 31301" transform="translate(250.919 41.375)" style="mix-blend-mode: multiply;isolation: isolate">
          <g id="Grupo_31300" data-name="Grupo 31300">
            <g id="Grupo_31299" data-name="Grupo 31299" clip-path="url(#clip-path-43)">
              <path id="Trazado_28041" data-name="Trazado 28041" d="M909.87,153.176a.171.171,0,0,1-.035-.337,13.6,13.6,0,0,0,5.228-2.8.17.17,0,1,1,.218.262,13.662,13.662,0,0,1-5.375,2.87.157.157,0,0,1-.035,0" transform="translate(-909.7 -150.001)" fill="#e0b3a8"/>
            </g>
          </g>
        </g>
        <g id="Grupo_31304" data-name="Grupo 31304" transform="translate(252.286 43.209)" style="mix-blend-mode: multiply;isolation: isolate">
          <g id="Grupo_31303" data-name="Grupo 31303">
            <g id="Grupo_31302" data-name="Grupo 31302" clip-path="url(#clip-path-44)">
              <path id="Trazado_28042" data-name="Trazado 28042" d="M914.827,159.858a.17.17,0,0,1-.1-.305,14.573,14.573,0,0,0,2.761-2.824.17.17,0,0,1,.288.182,14.625,14.625,0,0,1-2.84,2.911.171.171,0,0,1-.1.036" transform="translate(-914.656 -156.65)" fill="#e0b3a8"/>
            </g>
          </g>
        </g>
        <g id="Grupo_31307" data-name="Grupo 31307" transform="translate(162.135 91.467)" style="mix-blend-mode: multiply;isolation: isolate">
          <g id="Grupo_31306" data-name="Grupo 31306">
            <g id="Grupo_31305" data-name="Grupo 31305" clip-path="url(#clip-path-45)">
              <path id="Trazado_28043" data-name="Trazado 28043" d="M633.058,398.986a.17.17,0,0,1-.168-.145c-.218-1.453-5.334-35.621-4.98-38.457a16.537,16.537,0,0,1,.341-1.885c.188-.806.192-.822-.486-1.726-1.014-1.352-1.89-2.52-.185-5.173a.3.3,0,0,0,.02-.315c-1.043-2.334-20.393-6.131-29.6-7.6-4.509-.722-7.313-2.031-8.824-4.122-1.317-1.823-1.666-4.3-1.1-7.81a.17.17,0,0,1,.337.055c-.553,3.41-.223,5.811,1.037,7.556,1.454,2.013,4.188,3.279,8.6,3.985.284.046,28.441,4.633,29.857,7.8a.645.645,0,0,1-.044.639c-1.577,2.454-.844,3.431.171,4.784.752,1,.754,1.114.545,2.008a16.125,16.125,0,0,0-.335,1.85c-.349,2.789,4.925,38.008,4.978,38.363a.17.17,0,0,1-.143.194l-.025,0" transform="translate(-587.816 -331.607)" fill="#bfbfbf"/>
            </g>
          </g>
        </g>
        <g id="Grupo_31310" data-name="Grupo 31310" transform="translate(162.929 92.711)" style="mix-blend-mode: multiply;isolation: isolate">
          <g id="Grupo_31309" data-name="Grupo 31309">
            <g id="Grupo_31308" data-name="Grupo 31308" clip-path="url(#clip-path-46)">
              <path id="Trazado_28044" data-name="Trazado 28044" d="M590.865,341.971a.17.17,0,0,1-.028-.338c.073-.012,7.31-1.268,6.971-5.33a.17.17,0,1,1,.339-.028c.365,4.374-6.943,5.643-7.255,5.695a.162.162,0,0,1-.028,0" transform="translate(-590.695 -336.118)" fill="#bfbfbf"/>
            </g>
          </g>
        </g>
        <g id="Grupo_31313" data-name="Grupo 31313" transform="translate(197.698 115.117)" style="mix-blend-mode: multiply;isolation: isolate">
          <g id="Grupo_31312" data-name="Grupo 31312">
            <g id="Grupo_31311" data-name="Grupo 31311" clip-path="url(#clip-path-47)">
              <path id="Trazado_28045" data-name="Trazado 28045" d="M717.434,421.448a1.433,1.433,0,0,1-.285-.026.463.463,0,0,1-.36-.256c-.151-.338.151-.851.607-1.628a12.911,12.911,0,0,0,1.049-2.076.17.17,0,1,1,.32.116,13.194,13.194,0,0,1-1.075,2.132c-.329.56-.669,1.139-.59,1.315.012.028.051.048.116.061a4.2,4.2,0,0,0,2.188-.689.17.17,0,0,1,.181.289,5.086,5.086,0,0,1-2.151.76" transform="translate(-716.75 -417.35)" fill="#bfbfbf"/>
            </g>
          </g>
        </g>
        <path id="Trazado_28046" data-name="Trazado 28046" d="M782.986,596.539a.17.17,0,0,1-.058-.33,4.665,4.665,0,0,0,2.564-2.739.171.171,0,1,1,.324.108,4.925,4.925,0,0,1-2.771,2.951.17.17,0,0,1-.058.01" transform="translate(-566.895 -429.69)" fill="#4a281c"/>
        <path id="Trazado_28047" data-name="Trazado 28047" d="M795.235,604.209a.17.17,0,0,1-.054-.332,5.42,5.42,0,0,0,2.226-2.07.171.171,0,0,1,.279.2,5.585,5.585,0,0,1-2.4,2.2.177.177,0,0,1-.054.009" transform="translate(-575.765 -435.76)" fill="#4a281c"/>
        <path id="Trazado_28048" data-name="Trazado 28048" d="M763.531,615.212a.19.19,0,0,1-.047-.006l-21.161-6.046a.171.171,0,0,1,.094-.328l21.161,6.046a.17.17,0,0,1-.047.334" transform="translate(-537.481 -440.895)" fill="#4a281c"/>
        <path id="Trazado_28049" data-name="Trazado 28049" d="M581,540.477H537.634a1.718,1.718,0,0,1,0-3.437H581a1.718,1.718,0,0,1,0,3.437" transform="translate(-388.097 -388.91)" fill="#572807"/>
        <path id="Trazado_28050" data-name="Trazado 28050" d="M571.657,651.051H528.289a1.718,1.718,0,1,1,0-3.437h43.368a1.718,1.718,0,0,1,0,3.437" transform="translate(-381.329 -468.985)" fill="#572807"/>
        <path id="Trazado_28051" data-name="Trazado 28051" d="M560.756,761.624H517.388a1.718,1.718,0,0,1,0-3.437h43.367a1.718,1.718,0,0,1,0,3.437" transform="translate(-373.435 -549.059)" fill="#572807"/>
        <path id="Trazado_28052" data-name="Trazado 28052" d="M554.526,872.2H511.158a1.718,1.718,0,0,1,0-3.437h43.368a1.718,1.718,0,0,1,0,3.437" transform="translate(-368.923 -629.134)" fill="#572807"/>
        <path id="Trazado_28053" data-name="Trazado 28053" d="M543.624,982.772H500.256a1.718,1.718,0,0,1,0-3.436h43.367a1.718,1.718,0,0,1,0,3.436" transform="translate(-361.028 -709.209)" fill="#572807"/>
        <path id="Trazado_28054" data-name="Trazado 28054" d="M531.165,1093.346H487.8a1.718,1.718,0,0,1,0-3.437h43.367a1.718,1.718,0,0,1,0,3.437" transform="translate(-352.006 -789.283)" fill="#572807"/>
        <path id="Trazado_28055" data-name="Trazado 28055" d="M521.821,1203.919H478.453a1.718,1.718,0,0,1,0-3.437h43.368a1.718,1.718,0,0,1,0,3.437" transform="translate(-345.239 -869.358)" fill="#572807"/>
        <path id="Trazado_28056" data-name="Trazado 28056" d="M869.443,1122.365c-7.934-3.675-18.6,2.488-23.826,13.768s-3.029,23.4,4.9,27.077,18.6-2.489,23.825-13.768,3.031-23.4-4.9-27.076M852.98,1157.9c-4.285-1.985-6.182-10.4-2.055-19.311s11.775-12.9,16.059-10.919,6.181,10.4,2.055,19.311-11.775,12.9-16.059,10.919" transform="translate(-610.319 -812.017)" fill="#8ddbd9"/>
        <path id="Trazado_28057" data-name="Trazado 28057" d="M592.127,1006.951H493.762c-10.681,54.552,3.434,93.081,24.033,109.1h50.3c20.6-16.022,34.714-54.551,24.033-109.1" transform="translate(-354.92 -729.207)" fill="#8ddbd9"/>
        <g id="Grupo_31316" data-name="Grupo 31316" transform="translate(154.054 277.744)" style="mix-blend-mode: multiply;isolation: isolate">
          <g id="Grupo_31315" data-name="Grupo 31315">
            <g id="Grupo_31314" data-name="Grupo 31314" clip-path="url(#clip-path-48)">
              <path id="Trazado_28058" data-name="Trazado 28058" d="M641.672,1006.951H616.4c-6.956,47.213-32.566,79.417-57.879,100.326a53.682,53.682,0,0,0,8.822,8.777h50.3c20.6-16.022,34.714-54.551,24.033-109.1" transform="translate(-558.518 -1006.951)" fill="#ededed"/>
            </g>
          </g>
        </g>
        <g id="Grupo_31319" data-name="Grupo 31319" transform="translate(141.805 287.01)" style="mix-blend-mode: screen;isolation: isolate">
          <g id="Grupo_31318" data-name="Grupo 31318">
            <g id="Grupo_31317" data-name="Grupo 31317" clip-path="url(#clip-path-49)">
              <path id="Trazado_28059" data-name="Trazado 28059" d="M545.041,1056.012a15.464,15.464,0,1,1-15.464-15.464,15.464,15.464,0,0,1,15.464,15.464" transform="translate(-514.112 -1040.548)" fill="#4d4d4d"/>
            </g>
          </g>
        </g>
        <g id="Grupo_31322" data-name="Grupo 31322" transform="translate(302.876 185.879)" style="mix-blend-mode: multiply;isolation: isolate">
          <g id="Grupo_31321" data-name="Grupo 31321">
            <g id="Grupo_31320" data-name="Grupo 31320" clip-path="url(#clip-path-50)">
              <path id="Trazado_28060" data-name="Trazado 28060" d="M1152.378,679.214a2.5,2.5,0,0,1-.374.029l-51.436-.368a2.49,2.49,0,1,1-.014-4.979l51.436.368a2.49,2.49,0,0,1,.388,4.95" transform="translate(-1098.072 -673.896)" fill="#bfbfbf"/>
            </g>
          </g>
        </g>
        <g id="Grupo_31325" data-name="Grupo 31325" transform="translate(249.424 155.622)" style="mix-blend-mode: multiply;isolation: isolate">
          <g id="Grupo_31324" data-name="Grupo 31324">
            <g id="Grupo_31323" data-name="Grupo 31323" clip-path="url(#clip-path-51)">
              <path id="Trazado_28061" data-name="Trazado 28061" d="M1075.744,571.783a2.492,2.492,0,0,1-.374.029l-168.593-2.63a2.49,2.49,0,0,1-.014-4.979l168.594,2.63a2.49,2.49,0,0,1,.388,4.95" transform="translate(-904.28 -564.202)" fill="#bfbfbf"/>
            </g>
          </g>
        </g>
        <path id="Trazado_28062" data-name="Trazado 28062" d="M1995.016,910.639q-.447,0-.891-.011a.388.388,0,0,1-.378-.4.4.4,0,0,1,.4-.379,35.91,35.91,0,0,0,4.6-.185.388.388,0,0,1,.082.772,36.534,36.534,0,0,1-3.811.2m-5.516-.425a.385.385,0,0,1-.06,0,35.859,35.859,0,0,1-4.59-1.028.388.388,0,1,1,.219-.745,35.072,35.072,0,0,0,4.491,1.006.388.388,0,0,1-.06.772m13.871-.562a.388.388,0,0,1-.09-.766,34.94,34.94,0,0,0,4.392-1.371.388.388,0,0,1,.28.725,35.78,35.78,0,0,1-4.49,1.4.378.378,0,0,1-.091.011m-22.783-2.062a.385.385,0,0,1-.158-.034,36.052,36.052,0,0,1-4.166-2.191.388.388,0,0,1,.406-.662,35.264,35.264,0,0,0,4.075,2.144.388.388,0,0,1-.158.743m31.446-1.281a.388.388,0,0,1-.187-.729,35.418,35.418,0,0,0,3.887-2.467.388.388,0,0,1,.458.627,36.1,36.1,0,0,1-3.973,2.521.385.385,0,0,1-.186.048m-39.369-3.573a.387.387,0,0,1-.244-.086,36.2,36.2,0,0,1-3.456-3.192.388.388,0,0,1,.563-.535,35.362,35.362,0,0,0,3.382,3.123.388.388,0,0,1-.245.69m46.869-1.906a.388.388,0,0,1-.268-.669,35.453,35.453,0,0,0,3.119-3.387.388.388,0,0,1,.6.488,36.237,36.237,0,0,1-3.187,3.461.39.39,0,0,1-.268.107M1966.268,896a.387.387,0,0,1-.314-.16,36.072,36.072,0,0,1-2.515-3.974.388.388,0,1,1,.681-.372,35.429,35.429,0,0,0,2.461,3.888.388.388,0,0,1-.313.617m59.1-2.4a.388.388,0,0,1-.331-.591,35.158,35.158,0,0,0,2.138-4.078.388.388,0,0,1,.71.314,35.807,35.807,0,0,1-2.185,4.168.387.387,0,0,1-.332.186m-63.541-5.748a.388.388,0,0,1-.362-.249,35.734,35.734,0,0,1-1.4-4.493.388.388,0,1,1,.755-.181,34.951,34.951,0,0,0,1.365,4.4.388.388,0,0,1-.362.528m-2.166-9.031a.388.388,0,0,1-.385-.348,36.466,36.466,0,0,1-.195-3.768q0-.467.012-.933a.388.388,0,1,1,.776.02q-.011.455-.011.913a35.73,35.73,0,0,0,.191,3.687.388.388,0,0,1-.346.426l-.041,0m.24-9.285a.408.408,0,0,1-.061,0,.388.388,0,0,1-.323-.444,35.867,35.867,0,0,1,1.034-4.59.388.388,0,1,1,.745.22,35.17,35.17,0,0,0-1.011,4.49.388.388,0,0,1-.383.328m2.634-8.908a.389.389,0,0,1-.354-.546,35.963,35.963,0,0,1,2.2-4.163.388.388,0,0,1,.662.407,35.187,35.187,0,0,0-2.149,4.073.388.388,0,0,1-.355.23m63.758-2.436a.388.388,0,0,1-.342-.2,35.291,35.291,0,0,0-2.452-3.9.388.388,0,1,1,.628-.456,36.075,36.075,0,0,1,2.507,3.982.388.388,0,0,1-.341.573m-58.895-5.481a.388.388,0,0,1-.3-.633,36.367,36.367,0,0,1,3.2-3.452.388.388,0,1,1,.534.563,35.55,35.55,0,0,0-3.127,3.379.388.388,0,0,1-.3.143m53.442-2.041a.387.387,0,0,1-.282-.122,35.513,35.513,0,0,0-3.375-3.131.388.388,0,0,1,.49-.6,36.257,36.257,0,0,1,3.449,3.2.388.388,0,0,1-.282.655m-46.7-4.349a.388.388,0,0,1-.229-.7,36.008,36.008,0,0,1,3.977-2.51.388.388,0,1,1,.37.682,35.267,35.267,0,0,0-3.89,2.456.389.389,0,0,1-.228.074m39.495-1.512a.388.388,0,0,1-.2-.058,35.168,35.168,0,0,0-4.07-2.153.388.388,0,1,1,.317-.708,35.94,35.94,0,0,1,4.16,2.2.388.388,0,0,1-.2.719m-31.338-2.917a.389.389,0,0,1-.139-.751,35.809,35.809,0,0,1,4.495-1.39.388.388,0,1,1,.18.755,34.967,34.967,0,0,0-4.4,1.36.388.388,0,0,1-.139.026m22.859-.876a.393.393,0,0,1-.111-.016,35.038,35.038,0,0,0-4.491-1.017.388.388,0,0,1,.121-.767,35.791,35.791,0,0,1,4.59,1.04.388.388,0,0,1-.11.76m-13.826-1.278a.388.388,0,0,1-.04-.775,36.5,36.5,0,0,1,4.7-.178.388.388,0,1,1-.02.776,36.064,36.064,0,0,0-4.6.174l-.04,0" transform="translate(-1418.717 -607.416)" fill="#568584"/>
        <path id="Trazado_28063" data-name="Trazado 28063" d="M1838.842,194.183q-.447,0-.891-.011a.388.388,0,0,1-.378-.4.4.4,0,0,1,.4-.379,35.922,35.922,0,0,0,4.6-.185.388.388,0,0,1,.082.772,36.511,36.511,0,0,1-3.811.2m-5.516-.425a.407.407,0,0,1-.06,0,35.822,35.822,0,0,1-4.591-1.029.388.388,0,1,1,.219-.745,34.931,34.931,0,0,0,4.491,1.006.388.388,0,0,1-.059.772m13.871-.562a.388.388,0,0,1-.09-.766,34.949,34.949,0,0,0,4.392-1.371.388.388,0,0,1,.28.725,35.825,35.825,0,0,1-4.49,1.4.4.4,0,0,1-.092.011m-22.783-2.062a.386.386,0,0,1-.158-.034,35.985,35.985,0,0,1-4.166-2.191.388.388,0,0,1,.406-.662,35.265,35.265,0,0,0,4.075,2.143.388.388,0,0,1-.158.743m31.447-1.281a.388.388,0,0,1-.187-.729,35.291,35.291,0,0,0,3.887-2.467.388.388,0,0,1,.458.627,36.07,36.07,0,0,1-3.972,2.521.383.383,0,0,1-.186.048m-39.369-3.573a.386.386,0,0,1-.244-.086,36.246,36.246,0,0,1-3.456-3.192.388.388,0,1,1,.563-.535,35.352,35.352,0,0,0,3.382,3.123.388.388,0,0,1-.245.69m46.869-1.906a.388.388,0,0,1-.268-.669,35.432,35.432,0,0,0,3.119-3.387.388.388,0,0,1,.6.488,36.271,36.271,0,0,1-3.187,3.461.389.389,0,0,1-.268.107m-53.267-4.826a.388.388,0,0,1-.314-.159,36.082,36.082,0,0,1-2.515-3.974.388.388,0,1,1,.682-.371,35.392,35.392,0,0,0,2.461,3.888.388.388,0,0,1-.313.617m59.1-2.4a.388.388,0,0,1-.331-.591,35.159,35.159,0,0,0,2.138-4.078.388.388,0,1,1,.71.314,35.86,35.86,0,0,1-2.185,4.168.388.388,0,0,1-.332.186m-63.541-5.748a.388.388,0,0,1-.362-.249,35.71,35.71,0,0,1-1.4-4.493.388.388,0,0,1,.755-.181,35,35,0,0,0,1.365,4.4.389.389,0,0,1-.362.528m-2.166-9.031a.388.388,0,0,1-.385-.348,36.523,36.523,0,0,1-.2-3.767q0-.468.012-.933a.384.384,0,0,1,.4-.378.388.388,0,0,1,.378.4q-.011.455-.011.913a35.8,35.8,0,0,0,.191,3.687.388.388,0,0,1-.346.426l-.041,0m.241-9.285a.379.379,0,0,1-.061,0,.388.388,0,0,1-.323-.444,35.913,35.913,0,0,1,1.034-4.59.388.388,0,1,1,.745.22,35.176,35.176,0,0,0-1.011,4.49.388.388,0,0,1-.383.328m2.634-8.908a.389.389,0,0,1-.354-.547,36,36,0,0,1,2.2-4.163.388.388,0,0,1,.662.407,35.173,35.173,0,0,0-2.149,4.073.389.389,0,0,1-.354.23m63.758-2.436a.388.388,0,0,1-.342-.2,35.261,35.261,0,0,0-2.452-3.9.388.388,0,1,1,.628-.456,36.119,36.119,0,0,1,2.507,3.982.388.388,0,0,1-.341.573m-58.895-5.481a.388.388,0,0,1-.3-.633,36.391,36.391,0,0,1,3.2-3.453.388.388,0,1,1,.535.563,35.522,35.522,0,0,0-3.128,3.379.388.388,0,0,1-.3.143m53.443-2.041a.386.386,0,0,1-.282-.122,35.524,35.524,0,0,0-3.375-3.131.388.388,0,1,1,.49-.6,36.356,36.356,0,0,1,3.449,3.2.389.389,0,0,1-.282.655m-46.7-4.35a.388.388,0,0,1-.229-.7,36.031,36.031,0,0,1,3.976-2.511.388.388,0,1,1,.371.682,35.264,35.264,0,0,0-3.891,2.456.387.387,0,0,1-.228.074m39.495-1.512a.388.388,0,0,1-.2-.058,35.213,35.213,0,0,0-4.07-2.153.388.388,0,0,1,.317-.709,35.989,35.989,0,0,1,4.16,2.2.388.388,0,0,1-.2.719m-31.338-2.918a.388.388,0,0,1-.139-.751,35.8,35.8,0,0,1,4.495-1.391.388.388,0,0,1,.18.755,35,35,0,0,0-4.4,1.36.386.386,0,0,1-.139.026m22.859-.876a.383.383,0,0,1-.111-.016,35.081,35.081,0,0,0-4.491-1.017.388.388,0,1,1,.121-.767,35.834,35.834,0,0,1,4.59,1.04.388.388,0,0,1-.11.76m-13.826-1.278a.388.388,0,0,1-.039-.774,36.461,36.461,0,0,1,4.7-.178.388.388,0,1,1-.02.776,36.006,36.006,0,0,0-4.6.174l-.041,0" transform="translate(-1305.62 -88.576)" fill="#568584"/>
        <path id="Trazado_28064" data-name="Trazado 28064" d="M2205.179,941.33h-37.9l-.058-.469a3.886,3.886,0,0,1,1.513-3.692,6.453,6.453,0,0,1,5.541-.87,12.166,12.166,0,0,1,3.228-8.6,13.279,13.279,0,0,1,17.457,0,12.166,12.166,0,0,1,3.228,8.6,6.453,6.453,0,0,1,5.54.87,3.886,3.886,0,0,1,1.513,3.692Zm-36.927-1.07H2204.2a2.787,2.787,0,0,0-1.133-2.244,5.568,5.568,0,0,0-5.227-.476l-.753.3.02-.811c.09-3.594-.918-6.56-2.915-8.578a12.222,12.222,0,0,0-15.937,0c-2,2.018-3,4.984-2.915,8.578l.02.811-.753-.3a5.567,5.567,0,0,0-5.227.476,2.789,2.789,0,0,0-1.133,2.244" transform="translate(-1569.418 -669.446)" fill="#568584"/>
        <path id="Trazado_28065" data-name="Trazado 28065" d="M2016.736,233.411h-11.7a5.2,5.2,0,0,1-5.2-5.2v-14.18a1.122,1.122,0,0,1,1.121-1.121v.43a.692.692,0,0,0-.691.691v14.18a4.774,4.774,0,0,0,4.768,4.768h11.7a.692.692,0,0,0,.691-.691v-.906h.429v.906a1.122,1.122,0,0,1-1.121,1.121" transform="translate(-1448.233 -154.185)" fill="#568584"/>
        <path id="Trazado_28066" data-name="Trazado 28066" d="M2019.33,231.6h-8.258a7.956,7.956,0,0,1-7.947-7.947v-10.74h8.258a7.956,7.956,0,0,1,7.947,7.947Zm-15.776-18.257v10.31a7.526,7.526,0,0,0,7.518,7.517h7.828v-10.31a7.526,7.526,0,0,0-7.517-7.517Z" transform="translate(-1450.612 -154.185)" fill="#568584"/>
        <path id="Trazado_28067" data-name="Trazado 28067" d="M2070.139,233.411h-11.7a1.122,1.122,0,0,1-1.121-1.121v-.965h.429v.965a.692.692,0,0,0,.692.691h11.7a4.774,4.774,0,0,0,4.768-4.768v-14.18a.692.692,0,0,0-.691-.691v-.43a1.122,1.122,0,0,1,1.121,1.121v14.18a5.2,5.2,0,0,1-5.2,5.2" transform="translate(-1489.858 -154.185)" fill="#568584"/>
        <path id="Trazado_28068" data-name="Trazado 28068" d="M2068.862,231.6H2060.6V220.86a7.956,7.956,0,0,1,7.947-7.947h8.258v10.74a7.956,7.956,0,0,1-7.947,7.947m-7.829-.43h7.829a7.526,7.526,0,0,0,7.518-7.517v-10.31h-7.829a7.526,7.526,0,0,0-7.518,7.517Z" transform="translate(-1492.237 -154.185)" fill="#568584"/>
        <path id="Trazado_28069" data-name="Trazado 28069" d="M2083.539,1311.587l-2.841,2.244-10.7-13.55,2.841-2.244Zm-2.77,1.641,2.167-1.711-10.172-12.876-2.167,1.711Z" transform="translate(-1499.036 -940.004)" fill="#568584"/>
        <path id="Trazado_28070" data-name="Trazado 28070" d="M2072.385,1295.423l-3.1,2.452-.457-3.77Zm-2.77,1.641,1.9-1.5-2.183-.807Z" transform="translate(-1498.189 -937.157)" fill="#568584"/>
        <path id="Trazado_28071" data-name="Trazado 28071" d="M2105.752,1339.705l-2.841,2.244-2.244-2.841,2.841-2.244Zm-2.77,1.641,2.167-1.712-1.712-2.167-2.167,1.712Z" transform="translate(-1521.249 -968.122)" fill="#568584"/>
        <path id="Trazado_28072" data-name="Trazado 28072" d="M1400.009,164.9l-2.841,2.244-10.7-13.551,2.841-2.244Zm-2.77,1.641,2.167-1.711-10.172-12.876-2.167,1.711Z" transform="translate(-1004.041 -109.599)" fill="#568584"/>
        <path id="Trazado_28073" data-name="Trazado 28073" d="M1388.854,148.731l-3.1,2.452-.457-3.77Zm-2.77,1.641,1.9-1.5-2.183-.808Z" transform="translate(-1003.194 -106.752)" fill="#568584"/>
        <path id="Trazado_28074" data-name="Trazado 28074" d="M1422.221,193.014l-2.841,2.244-2.244-2.841,2.841-2.244Zm-2.77,1.641,2.167-1.711-1.712-2.167-2.166,1.712Z" transform="translate(-1026.253 -137.718)" fill="#568584"/>
        <path id="Trazado_28075" data-name="Trazado 28075" d="M211.017,622.231h-20.6V598.425l4.22-4.221h16.38Zm-19.871-.729h19.141V594.933H194.94l-3.793,3.793Z" transform="translate(-137.895 -430.306)" fill="#568584"/>
        <path id="Trazado_28076" data-name="Trazado 28076" d="M200.266,604.382h-4.58v-.73h3.85V599.8h.73Z" transform="translate(-141.711 -434.36)" fill="#568584"/>
        <path id="Trazado_28077" data-name="Trazado 28077" d="M1172.441,58.356c-.017-.093-1.635-9.571-.552-29.958l.881.047c-1.076,20.268.524,29.665.54,29.758Z" transform="translate(-848.382 -20.564)" fill="#568584"/>
        <path id="Trazado_28078" data-name="Trazado 28078" d="M1154.1,34.806l-.292-.258c-.3-.265-7.34-6.581-7.34-14.531a14.669,14.669,0,0,1,.6-4.047l.12-.419,3.189.878c-.681-.694-1.564-1.587-2.343-2.348l-.219-.215.125-.28a26.148,26.148,0,0,1,5.871-8.1l.293-.259.292.259a24.96,24.96,0,0,1,6.734,10.451l.057.194-.111.169c-1.7,2.6-3.052,4.7-3.927,6.082.842-.618,2.078-1.526,3.88-2.853l.694-.511.012,1c0,7.95-7.041,14.266-7.34,14.531Zm-6.3-18.172a13.592,13.592,0,0,0-.447,3.382c0,6.654,5.419,12.307,6.75,13.6,1.281-1.239,6.344-6.518,6.727-12.841-4.728,3.48-4.882,3.582-4.935,3.617l-.3.2-.264-.251c-.331-.328-.333-.33,4.893-8.348A24.405,24.405,0,0,0,1154.1,6.42a25.956,25.956,0,0,0-5.231,7.245c1.5,1.473,3.255,3.294,3.273,3.313l1.119,1.16Z" transform="translate(-830.239 -3.784)" fill="#568584"/>
        <path id="Trazado_28079" data-name="Trazado 28079" d="M160.858,1302.531c.037-.063,3.78-6.373,14.487-17.693l.489.463c-10.644,11.253-14.359,17.509-14.4,17.57Z" transform="translate(-116.489 -930.446)" fill="#568584"/>
        <path id="Trazado_28080" data-name="Trazado 28080" d="M172.093,1289.19l-.042-.295c-.043-.3-1.015-7.455,2.914-12.078a11.217,11.217,0,0,1,2.347-2.059l.277-.184,1.421,2.087c-.053-.74-.125-1.7-.2-2.524l-.022-.233.211-.1a19.956,19.956,0,0,1,7.418-1.807l.3-.006.042.3a19.054,19.054,0,0,1-1.25,9.406l-.063.141-.148.044c-2.272.675-4.1,1.226-5.289,1.6l3.666.259.656.046-.487.586c-3.93,4.623-11.146,4.815-11.451,4.821Zm5.317-13.682a10.351,10.351,0,0,0-1.932,1.746c-3.289,3.869-2.933,9.835-2.8,11.242,1.357-.087,6.91-.655,10.259-4.141-4.47-.314-4.61-.33-4.658-.336l-.273-.031-.029-.277c-.031-.354-.03-.356,6.971-2.436a18.622,18.622,0,0,0,1.169-8.59,19.807,19.807,0,0,0-6.623,1.627c.142,1.6.264,3.524.266,3.544l.078,1.228Z" transform="translate(-124.496 -921.142)" fill="#568584"/>
        <path id="Trazado_28081" data-name="Trazado 28081" d="M2121.03,630.807a4.413,4.413,0,0,1-4.408-4.408v-1.11a8.6,8.6,0,0,0-2.083-5.5,8.392,8.392,0,0,1-1.918-5.8,8.483,8.483,0,0,1,8.006-7.967,8.415,8.415,0,0,1,6.8,13.872,7.991,7.991,0,0,0-1.995,5.156V626.4a4.413,4.413,0,0,1-4.407,4.408m0-23.881q-.181,0-.363.009a7.556,7.556,0,0,0-7.132,7.1,7.475,7.475,0,0,0,1.708,5.168,9.634,9.634,0,0,1,2.293,6.091v1.11a3.489,3.489,0,1,0,6.978,0v-1.354a8.908,8.908,0,0,1,2.215-5.754,7.5,7.5,0,0,0-5.7-12.365" transform="translate(-1529.898 -438.854)" fill="#568584"/>
        <rect id="Rectángulo_4383" data-name="Rectángulo 4383" width="0.919" height="5.876" transform="translate(590.672 159.368)" fill="#568584"/>
        <rect id="Rectángulo_4384" data-name="Rectángulo 4384" width="5.876" height="0.918" transform="matrix(0.707, -0.707, 0.707, 0.707, 598.15, 168.039)" fill="#568584"/>
        <rect id="Rectángulo_4385" data-name="Rectángulo 4385" width="5.875" height="0.919" transform="translate(601.461 175.303)" fill="#568584"/>
        <rect id="Rectángulo_4386" data-name="Rectángulo 4386" width="0.919" height="5.876" transform="matrix(0.707, -0.707, 0.707, 0.707, 579.253, 164.4)" fill="#568584"/>
        <rect id="Rectángulo_4387" data-name="Rectángulo 4387" width="5.875" height="0.919" transform="translate(574.737 175.113)" fill="#568584"/>
        <rect id="Rectángulo_4388" data-name="Rectángulo 4388" width="6.728" height="0.919" transform="translate(587.72 184.495)" fill="#568584"/>
        <rect id="Rectángulo_4389" data-name="Rectángulo 4389" width="6.065" height="0.919" transform="translate(588.005 187.243)" fill="#568584"/>
        <rect id="Rectángulo_4390" data-name="Rectángulo 4390" width="0.974" height="3.281" transform="translate(552.402 179.521)" fill="#568584"/>
        <rect id="Rectángulo_4391" data-name="Rectángulo 4391" width="0.974" height="3.281" transform="translate(552.402 185.167)" fill="#568584"/>
        <rect id="Rectángulo_4392" data-name="Rectángulo 4392" width="3.281" height="0.973" transform="translate(554.071 183.498)" fill="#568584"/>
        <rect id="Rectángulo_4393" data-name="Rectángulo 4393" width="3.28" height="0.973" transform="translate(548.426 183.498)" fill="#568584"/>
        <rect id="Rectángulo_4394" data-name="Rectángulo 4394" width="0.973" height="3.281" transform="translate(472.473 148.592)" fill="#568584"/>
        <rect id="Rectángulo_4395" data-name="Rectángulo 4395" width="0.973" height="3.28" transform="translate(472.473 154.238)" fill="#568584"/>
        <rect id="Rectángulo_4396" data-name="Rectángulo 4396" width="3.281" height="0.974" transform="translate(474.142 152.569)" fill="#568584"/>
        <rect id="Rectángulo_4397" data-name="Rectángulo 4397" width="3.281" height="0.974" transform="translate(468.496 152.569)" fill="#568584"/>
        <rect id="Rectángulo_4398" data-name="Rectángulo 4398" width="0.973" height="3.281" transform="translate(26.429 183.184)" fill="#568584"/>
        <rect id="Rectángulo_4399" data-name="Rectángulo 4399" width="0.973" height="3.281" transform="translate(26.429 188.83)" fill="#568584"/>
        <rect id="Rectángulo_4400" data-name="Rectángulo 4400" width="3.281" height="0.973" transform="translate(28.098 187.161)" fill="#568584"/>
        <rect id="Rectángulo_4401" data-name="Rectángulo 4401" width="3.281" height="0.973" transform="translate(22.452 187.161)" fill="#568584"/>
        <rect id="Rectángulo_4402" data-name="Rectángulo 4402" width="0.973" height="3.281" transform="translate(71.72 362.38)" fill="#568584"/>
        <rect id="Rectángulo_4403" data-name="Rectángulo 4403" width="0.973" height="3.281" transform="translate(71.72 368.026)" fill="#568584"/>
        <rect id="Rectángulo_4404" data-name="Rectángulo 4404" width="3.281" height="0.973" transform="translate(73.39 366.357)" fill="#568584"/>
        <rect id="Rectángulo_4405" data-name="Rectángulo 4405" width="3.281" height="0.973" transform="translate(67.744 366.357)" fill="#568584"/>
        <rect id="Rectángulo_4406" data-name="Rectángulo 4406" width="0.973" height="3.281" transform="translate(335.658 35.206)" fill="#568584"/>
        <rect id="Rectángulo_4407" data-name="Rectángulo 4407" width="0.973" height="3.281" transform="translate(335.658 40.853)" fill="#568584"/>
        <rect id="Rectángulo_4408" data-name="Rectángulo 4408" width="3.281" height="0.973" transform="translate(337.327 39.183)" fill="#568584"/>
        <rect id="Rectángulo_4409" data-name="Rectángulo 4409" width="3.281" height="0.973" transform="translate(331.681 39.183)" fill="#568584"/>
        <rect id="Rectángulo_4410" data-name="Rectángulo 4410" width="0.973" height="3.281" transform="translate(272.108)" fill="#568584"/>
        <rect id="Rectángulo_4411" data-name="Rectángulo 4411" width="0.973" height="3.281" transform="translate(272.108 5.646)" fill="#568584"/>
        <rect id="Rectángulo_4412" data-name="Rectángulo 4412" width="3.281" height="0.973" transform="translate(273.778 3.977)" fill="#568584"/>
        <rect id="Rectángulo_4413" data-name="Rectángulo 4413" width="3.281" height="0.973" transform="translate(268.132 3.977)" fill="#568584"/>
      </g>
    </g>
  </g>
</svg>
