<svg xmlns="http://www.w3.org/2000/svg" width="808" height="379.275" viewBox="0 0 808 379.275">
  <g id="Grupo_31587" data-name="Grupo 31587" transform="translate(-249.5 -6448.5)">
    <path id="Trazado_28957" data-name="Trazado 28957" d="M94.87,4.889A4.247,4.247,0,0,1,98.122,6.2a4.569,4.569,0,0,1,1.23,3.247,4.456,4.456,0,0,1-1.221,3.228,4.324,4.324,0,0,1-3.262,1.265H91.931V19H89V4.889Zm-.488,6.6a2.153,2.153,0,0,0,1.611-.552A2.1,2.1,0,0,0,96.53,9.41,2.081,2.081,0,0,0,95.988,7.9a2.134,2.134,0,0,0-1.606-.562H91.931v4.15Zm9.756-.937a3.259,3.259,0,0,1,1.318-1.206,4.023,4.023,0,0,1,1.963-.5v2.51a3.8,3.8,0,0,0-2.4.605,2.643,2.643,0,0,0-.742,2.148V19h-2.832V8.961h2.7Zm6.367-3.1a1.579,1.579,0,0,1-1.152-.474,1.555,1.555,0,0,1-.479-1.147,1.536,1.536,0,0,1,.483-1.138,1.584,1.584,0,0,1,1.147-.474,1.626,1.626,0,0,1,1.611,1.611A1.626,1.626,0,0,1,110.5,7.457ZM109.069,19V8.961H111.9V19Zm11.67-10.234a3.914,3.914,0,0,1,2.773.9,3.349,3.349,0,0,1,.967,2.573V19h-2.822V12.848a1.749,1.749,0,0,0-.5-1.387,1.9,1.9,0,0,0-1.294-.439,2.643,2.643,0,0,0-.84.127,2.158,2.158,0,0,0-.7.4,1.748,1.748,0,0,0-.5.757,3.5,3.5,0,0,0-.19,1.162V19h-2.812V8.961h2.813v1.113A3.868,3.868,0,0,1,120.739,8.766Zm11.006,10.42a5.364,5.364,0,0,1-3.877-1.445,4.992,4.992,0,0,1-1.5-3.77,4.981,4.981,0,0,1,1.5-3.77A5.96,5.96,0,0,1,135,9.732a4.316,4.316,0,0,1,1.68,2.725l-2.6.283a2.225,2.225,0,0,0-.84-1.318,2.554,2.554,0,0,0-1.523-.439,2.3,2.3,0,0,0-1.836.82,3.216,3.216,0,0,0-.7,2.168,3.22,3.22,0,0,0,.7,2.163,2.3,2.3,0,0,0,1.836.825,2.532,2.532,0,0,0,1.519-.439,2.277,2.277,0,0,0,.845-1.318l2.6.283a4.328,4.328,0,0,1-1.694,2.725A5.327,5.327,0,0,1,131.745,19.186Zm8.369-11.729a1.579,1.579,0,0,1-1.152-.474,1.555,1.555,0,0,1-.479-1.147,1.536,1.536,0,0,1,.483-1.138,1.584,1.584,0,0,1,1.147-.474,1.626,1.626,0,0,1,1.611,1.611,1.626,1.626,0,0,1-1.611,1.621ZM138.679,19V8.961h2.832V19ZM150.31,8.766a4.883,4.883,0,0,1,1.875.361,4.692,4.692,0,0,1,1.538,1.016,4.6,4.6,0,0,1,1.04,1.655,6.146,6.146,0,0,1,.381,2.2,6.146,6.146,0,0,1-.381,2.2,4.6,4.6,0,0,1-1.04,1.655,4.692,4.692,0,0,1-1.538,1.016,4.883,4.883,0,0,1-1.875.361,4.356,4.356,0,0,1-1.816-.371,2.846,2.846,0,0,1-1.26-1.055v6.074h-2.812V8.961h2.666l.078,1.348a2.75,2.75,0,0,1,1.255-1.138A4.313,4.313,0,0,1,150.31,8.766Zm-.635,8.135a2.527,2.527,0,0,0,1.9-.786A2.92,2.92,0,0,0,152.331,14a2.92,2.92,0,0,0-.757-2.114,2.688,2.688,0,0,0-3.813.015A2.921,2.921,0,0,0,147,14a2.921,2.921,0,0,0,.762,2.1A2.531,2.531,0,0,0,149.675,16.9ZM158.7,7.457a1.579,1.579,0,0,1-1.152-.474,1.555,1.555,0,0,1-.479-1.147,1.536,1.536,0,0,1,.483-1.138,1.584,1.584,0,0,1,1.147-.474,1.626,1.626,0,0,1,1.611,1.611A1.626,1.626,0,0,1,158.7,7.457ZM157.263,19V8.961h2.832V19Zm10.42.2a6.313,6.313,0,0,1-2.842-.615,4.6,4.6,0,0,1-1.948-1.807,5.384,5.384,0,0,1-.708-2.8,4.911,4.911,0,0,1,1.523-3.809,6.368,6.368,0,0,1,7.959,0,4.911,4.911,0,0,1,1.523,3.809,4.938,4.938,0,0,1-1.523,3.823A5.654,5.654,0,0,1,167.683,19.2Zm-.029-2.236a2.577,2.577,0,0,0,1.987-.82,3.071,3.071,0,0,0,.757-2.168,3.071,3.071,0,0,0-.757-2.168,2.577,2.577,0,0,0-1.987-.82,2.483,2.483,0,0,0-1.929.825,3.1,3.1,0,0,0-.747,2.163,3.1,3.1,0,0,0,.747,2.163A2.483,2.483,0,0,0,167.653,16.959Z" transform="translate(249 6493)" fill="#002b45"/>
    <path id="Trazado_28956" data-name="Trazado 28956" d="M99.376,27,97.94,22.926h-8.3L88.206,27h-4.2L91.282,7.244H96.3L103.573,27Zm-8.531-7.506h5.893L93.8,11.113Zm23.461,7.779a11.027,11.027,0,0,1-4.026-.725,9.468,9.468,0,0,1-3.206-2.023,9.121,9.121,0,0,1-2.105-3.213,11.2,11.2,0,0,1-.766-4.2,10.7,10.7,0,0,1,1.313-5.366,8.935,8.935,0,0,1,3.6-3.548,10.787,10.787,0,0,1,5.188-1.23,10.483,10.483,0,0,1,5.8,1.6,8.756,8.756,0,0,1,3.541,4.4l-3.828,1.395A5.412,5.412,0,0,0,117.7,11.7a6.053,6.053,0,0,0-3.391-.957,5.8,5.8,0,0,0-4.32,1.723,6.339,6.339,0,0,0-1.7,4.648,6.348,6.348,0,0,0,1.7,4.655,5.8,5.8,0,0,0,4.313,1.729,6.03,6.03,0,0,0,3.384-.964,5.436,5.436,0,0,0,2.126-2.673l3.828,1.395a8.792,8.792,0,0,1-3.541,4.409A10.45,10.45,0,0,1,114.306,27.273ZM138.464,7.244v3.609h-4.689V27h-4.061V10.854H125V7.244ZM149.62,27.273a10.739,10.739,0,0,1-5.188-1.237,8.97,8.97,0,0,1-3.6-3.562,10.711,10.711,0,0,1-1.312-5.359,10.7,10.7,0,0,1,1.313-5.366,8.936,8.936,0,0,1,3.6-3.548,11.54,11.54,0,0,1,10.37,0,8.947,8.947,0,0,1,3.6,3.548,10.7,10.7,0,0,1,1.313,5.366,10.711,10.711,0,0,1-1.312,5.359,8.97,8.97,0,0,1-3.6,3.562A10.71,10.71,0,0,1,149.62,27.273Zm-4.32-5.489a6.261,6.261,0,0,0,8.641,0,6.381,6.381,0,0,0,1.7-4.669,6.339,6.339,0,0,0-1.7-4.648,6.279,6.279,0,0,0-8.641,0,6.339,6.339,0,0,0-1.7,4.648A6.381,6.381,0,0,0,145.3,21.784ZM170.757,27V7.244h4.1V27Z" transform="translate(249 6456)" fill="#002b45"/>
    <path id="Trazado_28965" data-name="Trazado 28965" d="M7.7,4.889A4.247,4.247,0,0,1,10.947,6.2a4.569,4.569,0,0,1,1.23,3.247,4.456,4.456,0,0,1-1.221,3.228A4.324,4.324,0,0,1,7.7,13.941H4.756V19H1.826V4.889Zm-.488,6.6a2.153,2.153,0,0,0,1.611-.552A2.1,2.1,0,0,0,9.355,9.41,2.081,2.081,0,0,0,8.813,7.9,2.134,2.134,0,0,0,7.207,7.34H4.756v4.15ZM14.268,19V4h2.842V19Zm13.984-2.725a9.392,9.392,0,0,0,.244,2.451V19H25.869l-.225-1.094a3.264,3.264,0,0,1-1.406.967,5.183,5.183,0,0,1-1.816.322,4.776,4.776,0,0,1-.937-.088,3.187,3.187,0,0,1-.845-.3,2.564,2.564,0,0,1-.7-.522,2.291,2.291,0,0,1-.469-.8A3.17,3.17,0,0,1,19.3,16.4a3.02,3.02,0,0,1,.186-1.089,2.552,2.552,0,0,1,.488-.815,2.962,2.962,0,0,1,.791-.6,6.053,6.053,0,0,1,1-.43,11.9,11.9,0,0,1,1.191-.312l1.65-.371a1.82,1.82,0,0,0,.747-.317.633.633,0,0,0,.22-.5A1.036,1.036,0,0,0,25.073,11a2.3,2.3,0,0,0-1.2-.293,1.721,1.721,0,0,0-1.963,1.533l-2.49-.449A3.371,3.371,0,0,1,20.879,9.5a5.783,5.783,0,0,1,3.154-.737q4.219,0,4.219,3.623ZM23.3,17.291a2.262,2.262,0,0,0,1.738-.728,3.066,3.066,0,0,0,.674-2.153l-2.383.674a2.816,2.816,0,0,0-1,.41.842.842,0,0,0-.347.723.935.935,0,0,0,.371.8A1.536,1.536,0,0,0,23.3,17.291ZM36.914,8.766a3.914,3.914,0,0,1,2.773.9,3.349,3.349,0,0,1,.967,2.573V19H37.832V12.848a1.749,1.749,0,0,0-.5-1.387,1.9,1.9,0,0,0-1.294-.439,2.643,2.643,0,0,0-.84.127,2.158,2.158,0,0,0-.7.4,1.748,1.748,0,0,0-.5.757,3.5,3.5,0,0,0-.19,1.162V19H30.986V8.961H33.8v1.113A3.868,3.868,0,0,1,36.914,8.766ZM47.119,19a3.032,3.032,0,0,1-2.266-.815,3.172,3.172,0,0,1-.8-2.319V11.119H42.08V8.961h.635a1.656,1.656,0,0,0,1.25-.42,2.162,2.162,0,0,0,.4-1.494V5.719H46.9V8.961h2.07v2.158H46.9v4.443q0,1.3,1.162,1.3h.908V19Zm13.438-5.166-.029.674H53.086a2.6,2.6,0,0,0,.8,1.836,2.561,2.561,0,0,0,1.768.635,2.468,2.468,0,0,0,1.323-.347,2.131,2.131,0,0,0,.845-1.011L60.4,16a4.383,4.383,0,0,1-1.758,2.354,5.226,5.226,0,0,1-2.969.84,5.435,5.435,0,0,1-3.911-1.382,5.042,5.042,0,0,1-1.45-3.833,5.072,5.072,0,0,1,1.455-3.833,5.273,5.273,0,0,1,3.818-1.4,5.04,5.04,0,0,1,3.6,1.279A5.019,5.019,0,0,1,60.557,13.834Zm-4.951-3.1a2.222,2.222,0,0,0-2.441,1.934h4.609a2.114,2.114,0,0,0-.693-1.436A2.2,2.2,0,0,0,55.605,10.738Zm15.322,5.537a9.392,9.392,0,0,0,.244,2.451V19H68.545l-.225-1.094a3.264,3.264,0,0,1-1.406.967A5.183,5.183,0,0,1,65.1,19.2a4.776,4.776,0,0,1-.937-.088,3.187,3.187,0,0,1-.845-.3,2.563,2.563,0,0,1-.7-.522,2.291,2.291,0,0,1-.469-.8,3.17,3.17,0,0,1-.176-1.089,3.02,3.02,0,0,1,.186-1.089,2.552,2.552,0,0,1,.488-.815,2.962,2.962,0,0,1,.791-.6,6.053,6.053,0,0,1,1-.43,11.9,11.9,0,0,1,1.191-.312l1.65-.371a1.82,1.82,0,0,0,.747-.317.633.633,0,0,0,.22-.5A1.036,1.036,0,0,0,67.749,11a2.3,2.3,0,0,0-1.2-.293,1.721,1.721,0,0,0-1.963,1.533l-2.49-.449A3.371,3.371,0,0,1,63.555,9.5a5.783,5.783,0,0,1,3.154-.737q4.219,0,4.219,3.623Zm-4.951,1.016a2.262,2.262,0,0,0,1.738-.728,3.066,3.066,0,0,0,.674-2.153l-2.383.674a2.816,2.816,0,0,0-1,.41.842.842,0,0,0-.347.723.935.935,0,0,0,.371.8A1.536,1.536,0,0,0,65.977,17.291Zm19.58-8.525a3.836,3.836,0,0,1,2.588.815,2.918,2.918,0,0,1,.947,2.339V19H86.279V12.721a1.677,1.677,0,0,0-.449-1.27,1.573,1.573,0,0,0-1.133-.43,1.814,1.814,0,0,0-1.367.547,2.484,2.484,0,0,0-.527,1.768V19H79.961V12.75a1.721,1.721,0,0,0-.449-1.294,1.6,1.6,0,0,0-1.162-.435,1.757,1.757,0,0,0-1.357.576,2.751,2.751,0,0,0-.527,1.885V19h-2.8V8.961h2.8v1.182a3.414,3.414,0,0,1,2.91-1.377,4.293,4.293,0,0,1,1.89.386,2.572,2.572,0,0,1,1.187,1.118A3.55,3.55,0,0,1,85.557,8.766Zm7.705-1.309a1.579,1.579,0,0,1-1.152-.474,1.555,1.555,0,0,1-.479-1.147A1.536,1.536,0,0,1,92.114,4.7a1.584,1.584,0,0,1,1.147-.474,1.626,1.626,0,0,1,1.611,1.611,1.626,1.626,0,0,1-1.611,1.621ZM91.826,19V8.961h2.832V19Zm15.186-5.166-.029.674H99.541a2.6,2.6,0,0,0,.8,1.836,2.561,2.561,0,0,0,1.768.635,2.468,2.468,0,0,0,1.323-.347,2.131,2.131,0,0,0,.845-1.011l2.578.381a4.383,4.383,0,0,1-1.758,2.354,5.226,5.226,0,0,1-2.969.84,5.435,5.435,0,0,1-3.911-1.382,5.042,5.042,0,0,1-1.45-3.833,5.072,5.072,0,0,1,1.455-3.833,5.273,5.273,0,0,1,3.818-1.4,5.04,5.04,0,0,1,3.6,1.279A5.019,5.019,0,0,1,107.012,13.834Zm-4.951-3.1a2.222,2.222,0,0,0-2.441,1.934h4.609a2.114,2.114,0,0,0-.693-1.436A2.2,2.2,0,0,0,102.061,10.738Zm13.018-1.973a3.914,3.914,0,0,1,2.773.9,3.349,3.349,0,0,1,.967,2.573V19H116V12.848a1.749,1.749,0,0,0-.5-1.387,1.9,1.9,0,0,0-1.294-.439,2.643,2.643,0,0,0-.84.127,2.158,2.158,0,0,0-.7.4,1.748,1.748,0,0,0-.5.757,3.5,3.5,0,0,0-.19,1.162V19H109.15V8.961h2.813v1.113A3.868,3.868,0,0,1,115.078,8.766ZM125.283,19a3.032,3.032,0,0,1-2.266-.815,3.172,3.172,0,0,1-.8-2.319V11.119h-1.973V8.961h.635a1.656,1.656,0,0,0,1.25-.42,2.162,2.162,0,0,0,.4-1.494V5.719h2.539V8.961h2.07v2.158h-2.07v4.443q0,1.3,1.162,1.3h.908V19Zm8.672.2a6.313,6.313,0,0,1-2.842-.615,4.6,4.6,0,0,1-1.948-1.807,5.384,5.384,0,0,1-.708-2.8,4.911,4.911,0,0,1,1.523-3.809,6.368,6.368,0,0,1,7.959,0,4.911,4.911,0,0,1,1.523,3.809,4.938,4.938,0,0,1-1.523,3.823A5.654,5.654,0,0,1,133.955,19.2Zm-.029-2.236a2.577,2.577,0,0,0,1.987-.82,3.071,3.071,0,0,0,.757-2.168,3.071,3.071,0,0,0-.757-2.168,2.577,2.577,0,0,0-1.987-.82,2.483,2.483,0,0,0-1.929.825,3.1,3.1,0,0,0-.747,2.163A3.1,3.1,0,0,0,132,16.134,2.483,2.483,0,0,0,133.926,16.959Z" transform="translate(249 6637)" fill="#00223d"/>
    <path id="Trazado_28974" data-name="Trazado 28974" d="M30.389,4.889A4.247,4.247,0,0,1,33.641,6.2a4.569,4.569,0,0,1,1.23,3.247,4.456,4.456,0,0,1-1.221,3.228,4.324,4.324,0,0,1-3.262,1.265H27.449V19H24.52V4.889Zm-.488,6.6a2.153,2.153,0,0,0,1.611-.552,2.1,2.1,0,0,0,.537-1.528A2.081,2.081,0,0,0,31.507,7.9,2.134,2.134,0,0,0,29.9,7.34H27.449v4.15Zm9.756-.937a3.259,3.259,0,0,1,1.318-1.206,4.023,4.023,0,0,1,1.963-.5v2.51a3.8,3.8,0,0,0-2.4.605,2.643,2.643,0,0,0-.742,2.148V19H36.961V8.961h2.7Zm6.367-3.1a1.579,1.579,0,0,1-1.152-.474,1.555,1.555,0,0,1-.479-1.147A1.536,1.536,0,0,1,44.876,4.7a1.584,1.584,0,0,1,1.147-.474,1.626,1.626,0,0,1,1.611,1.611,1.626,1.626,0,0,1-1.611,1.621ZM44.588,19V8.961H47.42V19ZM62.225,8.766a3.836,3.836,0,0,1,2.588.815,2.918,2.918,0,0,1,.947,2.339V19H62.947V12.721a1.677,1.677,0,0,0-.449-1.27,1.573,1.573,0,0,0-1.133-.43A1.814,1.814,0,0,0,60,11.568a2.484,2.484,0,0,0-.527,1.768V19H56.629V12.75a1.721,1.721,0,0,0-.449-1.294,1.6,1.6,0,0,0-1.162-.435,1.757,1.757,0,0,0-1.357.576,2.751,2.751,0,0,0-.527,1.885V19h-2.8V8.961h2.8v1.182a3.414,3.414,0,0,1,2.91-1.377,4.293,4.293,0,0,1,1.89.386,2.572,2.572,0,0,1,1.187,1.118A3.55,3.55,0,0,1,62.225,8.766Zm15.713,5.068-.029.674H70.467a2.6,2.6,0,0,0,.8,1.836,2.561,2.561,0,0,0,1.768.635,2.468,2.468,0,0,0,1.323-.347,2.131,2.131,0,0,0,.845-1.011L77.781,16a4.383,4.383,0,0,1-1.758,2.354,5.226,5.226,0,0,1-2.969.84,5.435,5.435,0,0,1-3.911-1.382,5.042,5.042,0,0,1-1.45-3.833,5.072,5.072,0,0,1,1.455-3.833,5.273,5.273,0,0,1,3.818-1.4,5.04,5.04,0,0,1,3.6,1.279A5.019,5.019,0,0,1,77.938,13.834Zm-4.951-3.1a2.222,2.222,0,0,0-2.441,1.934h4.609a2.114,2.114,0,0,0-.693-1.436A2.2,2.2,0,0,0,72.986,10.738Zm9.785-.186A3.259,3.259,0,0,1,84.09,9.347a4.023,4.023,0,0,1,1.963-.5v2.51a3.8,3.8,0,0,0-2.4.605,2.643,2.643,0,0,0-.742,2.148V19H80.076V8.961h2.7ZM98.787,8.766a4.883,4.883,0,0,1,1.875.361,4.692,4.692,0,0,1,1.538,1.016,4.6,4.6,0,0,1,1.04,1.655,6.146,6.146,0,0,1,.381,2.2,6.146,6.146,0,0,1-.381,2.2,4.6,4.6,0,0,1-1.04,1.655,4.692,4.692,0,0,1-1.538,1.016,4.883,4.883,0,0,1-1.875.361,4.356,4.356,0,0,1-1.816-.371,2.846,2.846,0,0,1-1.26-1.055v6.074H92.9V8.961h2.666l.078,1.348A2.75,2.75,0,0,1,96.9,9.171,4.313,4.313,0,0,1,98.787,8.766ZM98.152,16.9a2.527,2.527,0,0,0,1.9-.786A2.92,2.92,0,0,0,100.809,14a2.92,2.92,0,0,0-.757-2.114,2.688,2.688,0,0,0-3.813.015,2.921,2.921,0,0,0-.762,2.1,2.921,2.921,0,0,0,.762,2.1A2.531,2.531,0,0,0,98.152,16.9ZM105.74,19V4h2.842V19Zm10.43.2a6.313,6.313,0,0,1-2.842-.615,4.6,4.6,0,0,1-1.948-1.807,5.384,5.384,0,0,1-.708-2.8,4.911,4.911,0,0,1,1.523-3.809,6.368,6.368,0,0,1,7.959,0,4.911,4.911,0,0,1,1.523,3.809,4.938,4.938,0,0,1-1.523,3.823A5.654,5.654,0,0,1,116.17,19.2Zm-.029-2.236a2.577,2.577,0,0,0,1.987-.82,3.071,3.071,0,0,0,.757-2.168,3.071,3.071,0,0,0-.757-2.168,2.577,2.577,0,0,0-1.987-.82,2.483,2.483,0,0,0-1.929.825,3.1,3.1,0,0,0-.747,2.163,3.1,3.1,0,0,0,.747,2.163A2.483,2.483,0,0,0,116.141,16.959ZM127.508,19a3.032,3.032,0,0,1-2.266-.815,3.172,3.172,0,0,1-.8-2.319V11.119h-1.973V8.961h.635a1.656,1.656,0,0,0,1.25-.42,2.162,2.162,0,0,0,.4-1.494V5.719h2.539V8.961h2.07v2.158h-2.07v4.443q0,1.3,1.162,1.3h.908V19ZM142.625,8.766a4.883,4.883,0,0,1,1.875.361,4.692,4.692,0,0,1,1.538,1.016,4.6,4.6,0,0,1,1.04,1.655,6.146,6.146,0,0,1,.381,2.2,6.146,6.146,0,0,1-.381,2.2,4.6,4.6,0,0,1-1.04,1.655,4.692,4.692,0,0,1-1.538,1.016,4.883,4.883,0,0,1-1.875.361,4.356,4.356,0,0,1-1.816-.371,2.846,2.846,0,0,1-1.26-1.055v6.074h-2.812V8.961H139.4l.078,1.348a2.75,2.75,0,0,1,1.255-1.138A4.313,4.313,0,0,1,142.625,8.766ZM141.99,16.9a2.527,2.527,0,0,0,1.9-.786A2.92,2.92,0,0,0,144.646,14a2.92,2.92,0,0,0-.757-2.114,2.688,2.688,0,0,0-3.813.015,2.921,2.921,0,0,0-.762,2.1,2.921,2.921,0,0,0,.762,2.1A2.531,2.531,0,0,0,141.99,16.9ZM154.256,19.2a6.313,6.313,0,0,1-2.842-.615,4.6,4.6,0,0,1-1.948-1.807,5.384,5.384,0,0,1-.708-2.8,4.911,4.911,0,0,1,1.523-3.809,6.368,6.368,0,0,1,7.959,0,4.911,4.911,0,0,1,1.523,3.809,4.938,4.938,0,0,1-1.523,3.823A5.654,5.654,0,0,1,154.256,19.2Zm-.029-2.236a2.577,2.577,0,0,0,1.987-.82,3.071,3.071,0,0,0,.757-2.168,3.071,3.071,0,0,0-.757-2.168,2.577,2.577,0,0,0-1.987-.82,2.483,2.483,0,0,0-1.929.825,3.1,3.1,0,0,0-.747,2.163,3.1,3.1,0,0,0,.747,2.163A2.483,2.483,0,0,0,154.227,16.959Zm9.063-9.5a1.579,1.579,0,0,1-1.152-.474,1.555,1.555,0,0,1-.479-1.147,1.536,1.536,0,0,1,.483-1.138,1.584,1.584,0,0,1,1.147-.474A1.626,1.626,0,0,1,164.9,5.836a1.626,1.626,0,0,1-1.611,1.621ZM161.854,19V8.961h2.832V19Zm11.67-10.234a3.914,3.914,0,0,1,2.773.9,3.349,3.349,0,0,1,.967,2.573V19h-2.822V12.848a1.749,1.749,0,0,0-.5-1.387,1.9,1.9,0,0,0-1.294-.439,2.643,2.643,0,0,0-.84.127,2.158,2.158,0,0,0-.7.4,1.748,1.748,0,0,0-.5.757,3.5,3.5,0,0,0-.19,1.162V19H167.6V8.961h2.813v1.113A3.868,3.868,0,0,1,173.523,8.766ZM183.729,19a3.032,3.032,0,0,1-2.266-.815,3.171,3.171,0,0,1-.8-2.319V11.119h-1.973V8.961h.635a1.656,1.656,0,0,0,1.25-.42,2.162,2.162,0,0,0,.4-1.494V5.719h2.539V8.961h2.07v2.158h-2.07v4.443q0,1.3,1.162,1.3h.908V19Z" transform="translate(292 6747)" fill="#00223d"/>
    <path id="Trazado_28975" data-name="Trazado 28975" d="M17.664,19.2a6.818,6.818,0,0,1-3.916-1.079,4.328,4.328,0,0,1-1.9-3.022l3.027-.693a2.571,2.571,0,0,0,.933,1.782,3.1,3.1,0,0,0,1.978.62,2.554,2.554,0,0,0,1.543-.435,1.466,1.466,0,0,0,.586-1.284,1.37,1.37,0,0,0-.5-1.045,3.254,3.254,0,0,0-.991-.64q-.493-.19-1.587-.522-.146-.049-.215-.068-.557-.176-.9-.293t-.845-.327a5.625,5.625,0,0,1-.82-.41,6.006,6.006,0,0,1-.679-.508,2.66,2.66,0,0,1-.566-.649,3.45,3.45,0,0,1-.342-.811A3.577,3.577,0,0,1,12.332,8.8a3.778,3.778,0,0,1,.659-2.222,4.037,4.037,0,0,1,1.777-1.416,6.469,6.469,0,0,1,2.544-.474,8.036,8.036,0,0,1,1.841.205,6.448,6.448,0,0,1,1.646.63A4.031,4.031,0,0,1,22.112,6.69,4.37,4.37,0,0,1,22.859,8.4l-2.832.7a2.294,2.294,0,0,0-2.539-2.021,2.78,2.78,0,0,0-1.572.41,1.39,1.39,0,0,0-.615,1.24q0,.771,1.025,1.25a15.28,15.28,0,0,0,1.963.674q.576.176.938.293t.908.342a6.311,6.311,0,0,1,.889.435,6.576,6.576,0,0,1,.742.542,2.919,2.919,0,0,1,.63.7,3.8,3.8,0,0,1,.386.874,3.653,3.653,0,0,1,.156,1.089,4.278,4.278,0,0,1-.283,1.592,3.464,3.464,0,0,1-.776,1.2,4.508,4.508,0,0,1-1.167.825,5.661,5.661,0,0,1-1.436.488A8.256,8.256,0,0,1,17.664,19.2Zm17.051-5.361-.029.674H27.244a2.6,2.6,0,0,0,.8,1.836,2.561,2.561,0,0,0,1.768.635,2.468,2.468,0,0,0,1.323-.347,2.131,2.131,0,0,0,.845-1.011L34.559,16A4.383,4.383,0,0,1,32.8,18.355a5.226,5.226,0,0,1-2.969.84,5.435,5.435,0,0,1-3.911-1.382,5.042,5.042,0,0,1-1.45-3.833,5.072,5.072,0,0,1,1.455-3.833,5.273,5.273,0,0,1,3.818-1.4,5.04,5.04,0,0,1,3.6,1.279A5.019,5.019,0,0,1,34.715,13.834Zm-4.951-3.1a2.222,2.222,0,0,0-2.441,1.934h4.609a2.114,2.114,0,0,0-.693-1.436A2.2,2.2,0,0,0,29.764,10.738Zm14-1.777h2.676v9.287a7.51,7.51,0,0,1-.376,2.5,4.123,4.123,0,0,1-1.089,1.714,4.539,4.539,0,0,1-1.67.962,7.04,7.04,0,0,1-2.187.313q-3.975,0-5.176-3.115l2.334-1a3.406,3.406,0,0,0,1.084,1.455,2.763,2.763,0,0,0,1.65.469q2.607,0,2.607-3.1V17.281a3.163,3.163,0,0,1-1.265.991,4.2,4.2,0,0,1-1.782.376A4.5,4.5,0,0,1,37.352,17.3a4.638,4.638,0,0,1-.991-1.577,5.83,5.83,0,0,1,0-4.067,4.451,4.451,0,0,1,1-1.558,4.584,4.584,0,0,1,1.465-.977,4.521,4.521,0,0,1,1.772-.352,4.083,4.083,0,0,1,1.86.415A2.967,2.967,0,0,1,43.7,10.289ZM39.456,15.6a2.576,2.576,0,0,0,3.687-.01,2.806,2.806,0,0,0,0-3.818,2.6,2.6,0,0,0-3.7-.015,2.671,2.671,0,0,0-.737,1.929A2.644,2.644,0,0,0,39.456,15.6ZM56.014,8.961h2.813V19H56.16l-.068-1.211A3.834,3.834,0,0,1,52.9,19.2a3.914,3.914,0,0,1-2.773-.9,3.349,3.349,0,0,1-.967-2.573V8.961H51.98v6.152a1.735,1.735,0,0,0,.5,1.377,1.909,1.909,0,0,0,1.3.439,2.264,2.264,0,0,0,1.6-.571,2.454,2.454,0,0,0,.63-1.86Zm11.65-.2a3.914,3.914,0,0,1,2.773.9,3.349,3.349,0,0,1,.967,2.573V19H68.582V12.848a1.749,1.749,0,0,0-.5-1.387,1.9,1.9,0,0,0-1.294-.439,2.643,2.643,0,0,0-.84.127,2.158,2.158,0,0,0-.7.4,1.748,1.748,0,0,0-.5.757,3.5,3.5,0,0,0-.19,1.162V19H61.736V8.961h2.813v1.113A3.868,3.868,0,0,1,67.664,8.766ZM81.248,4h2.813V19H81.395l-.068-1.309a2.867,2.867,0,0,1-1.274,1.138,4.29,4.29,0,0,1-1.88.405,4.883,4.883,0,0,1-1.875-.361A4.516,4.516,0,0,1,73.719,16.2a6.106,6.106,0,0,1-.381-2.2A5.707,5.707,0,0,1,74,11.2a4.55,4.55,0,0,1,1.753-1.821,4.827,4.827,0,0,1,2.417-.615,4.4,4.4,0,0,1,1.821.366,2.843,2.843,0,0,1,1.255,1.04ZM78.816,16.9a2.5,2.5,0,0,0,1.9-.8,2.932,2.932,0,0,0,.757-2.1,2.938,2.938,0,0,0-.762-2.1,2.5,2.5,0,0,0-1.895-.806,2.53,2.53,0,0,0-1.909.791A2.937,2.937,0,0,0,76.15,14a2.924,2.924,0,0,0,.757,2.109A2.53,2.53,0,0,0,78.816,16.9ZM91.648,19.2a6.313,6.313,0,0,1-2.842-.615,4.6,4.6,0,0,1-1.948-1.807,5.384,5.384,0,0,1-.708-2.8,4.911,4.911,0,0,1,1.523-3.809,6.368,6.368,0,0,1,7.959,0,4.911,4.911,0,0,1,1.523,3.809,4.938,4.938,0,0,1-1.523,3.823A5.654,5.654,0,0,1,91.648,19.2Zm-.029-2.236a2.577,2.577,0,0,0,1.987-.82,3.071,3.071,0,0,0,.757-2.168,3.071,3.071,0,0,0-.757-2.168,2.577,2.577,0,0,0-1.987-.82,2.483,2.483,0,0,0-1.929.825,3.1,3.1,0,0,0-.747,2.163,3.1,3.1,0,0,0,.747,2.163A2.483,2.483,0,0,0,91.619,16.959ZM110.33,8.766a4.883,4.883,0,0,1,1.875.361,4.692,4.692,0,0,1,1.538,1.016,4.6,4.6,0,0,1,1.04,1.655,6.146,6.146,0,0,1,.381,2.2,6.146,6.146,0,0,1-.381,2.2,4.6,4.6,0,0,1-1.04,1.655,4.692,4.692,0,0,1-1.538,1.016,4.883,4.883,0,0,1-1.875.361,4.356,4.356,0,0,1-1.816-.371,2.846,2.846,0,0,1-1.26-1.055v6.074h-2.812V8.961h2.666l.078,1.348a2.75,2.75,0,0,1,1.255-1.138A4.313,4.313,0,0,1,110.33,8.766ZM109.7,16.9a2.527,2.527,0,0,0,1.9-.786A2.92,2.92,0,0,0,112.352,14a2.92,2.92,0,0,0-.757-2.114,2.688,2.688,0,0,0-3.813.015,2.921,2.921,0,0,0-.762,2.1,2.921,2.921,0,0,0,.762,2.1A2.531,2.531,0,0,0,109.7,16.9Zm7.588,2.1V4h2.842V19Zm10.43.2a6.313,6.313,0,0,1-2.842-.615,4.6,4.6,0,0,1-1.948-1.807,5.384,5.384,0,0,1-.708-2.8,4.911,4.911,0,0,1,1.523-3.809,6.368,6.368,0,0,1,7.959,0,4.911,4.911,0,0,1,1.523,3.809,4.938,4.938,0,0,1-1.523,3.823A5.654,5.654,0,0,1,127.713,19.2Zm-.029-2.236a2.577,2.577,0,0,0,1.987-.82,3.071,3.071,0,0,0,.757-2.168,3.071,3.071,0,0,0-.757-2.168,2.577,2.577,0,0,0-1.987-.82,2.483,2.483,0,0,0-1.929.825,3.1,3.1,0,0,0-.747,2.163,3.1,3.1,0,0,0,.747,2.163A2.483,2.483,0,0,0,127.684,16.959ZM139.051,19a3.032,3.032,0,0,1-2.266-.815,3.171,3.171,0,0,1-.8-2.319V11.119h-1.973V8.961h.635a1.656,1.656,0,0,0,1.25-.42,2.162,2.162,0,0,0,.4-1.494V5.719h2.539V8.961h2.07v2.158h-2.07v4.443q0,1.3,1.162,1.3h.908V19ZM154.168,8.766a4.883,4.883,0,0,1,1.875.361,4.692,4.692,0,0,1,1.538,1.016,4.6,4.6,0,0,1,1.04,1.655A6.146,6.146,0,0,1,159,14a6.146,6.146,0,0,1-.381,2.2,4.6,4.6,0,0,1-1.04,1.655,4.692,4.692,0,0,1-1.538,1.016,4.883,4.883,0,0,1-1.875.361,4.356,4.356,0,0,1-1.816-.371,2.846,2.846,0,0,1-1.26-1.055v6.074h-2.812V8.961h2.666l.078,1.348a2.75,2.75,0,0,1,1.255-1.138A4.313,4.313,0,0,1,154.168,8.766Zm-.635,8.135a2.527,2.527,0,0,0,1.9-.786A2.92,2.92,0,0,0,156.189,14a2.92,2.92,0,0,0-.757-2.114,2.688,2.688,0,0,0-3.813.015,2.921,2.921,0,0,0-.762,2.1,2.921,2.921,0,0,0,.762,2.1A2.531,2.531,0,0,0,153.533,16.9ZM165.8,19.2a6.313,6.313,0,0,1-2.842-.615,4.6,4.6,0,0,1-1.948-1.807,5.384,5.384,0,0,1-.708-2.8,4.911,4.911,0,0,1,1.523-3.809,6.368,6.368,0,0,1,7.959,0,4.911,4.911,0,0,1,1.523,3.809,4.938,4.938,0,0,1-1.523,3.823A5.654,5.654,0,0,1,165.8,19.2Zm-.029-2.236a2.577,2.577,0,0,0,1.987-.82,3.071,3.071,0,0,0,.757-2.168,3.071,3.071,0,0,0-.757-2.168,2.577,2.577,0,0,0-1.987-.82,2.483,2.483,0,0,0-1.929.825,3.1,3.1,0,0,0-.747,2.163,3.1,3.1,0,0,0,.747,2.163A2.483,2.483,0,0,0,165.77,16.959Zm9.063-9.5a1.579,1.579,0,0,1-1.152-.474,1.555,1.555,0,0,1-.479-1.147,1.536,1.536,0,0,1,.483-1.138,1.584,1.584,0,0,1,1.147-.474,1.626,1.626,0,0,1,1.611,1.611,1.626,1.626,0,0,1-1.611,1.621ZM173.4,19V8.961h2.832V19Zm11.67-10.234a3.914,3.914,0,0,1,2.773.9,3.349,3.349,0,0,1,.967,2.573V19h-2.822V12.848a1.749,1.749,0,0,0-.5-1.387,1.9,1.9,0,0,0-1.294-.439,2.643,2.643,0,0,0-.84.127,2.158,2.158,0,0,0-.7.4,1.748,1.748,0,0,0-.5.757,3.5,3.5,0,0,0-.19,1.162V19h-2.812V8.961h2.813v1.113A3.868,3.868,0,0,1,185.066,8.766ZM195.271,19a3.032,3.032,0,0,1-2.266-.815,3.171,3.171,0,0,1-.8-2.319V11.119h-1.973V8.961h.635a1.656,1.656,0,0,0,1.25-.42,2.162,2.162,0,0,0,.4-1.494V5.719h2.539V8.961h2.07v2.158h-2.07v4.443q0,1.3,1.162,1.3h.908V19Z" transform="translate(586 6747)" fill="#00223d"/>
    <path id="Trazado_28966" data-name="Trazado 28966" d="M8.076,19.2A7.877,7.877,0,0,1,5.2,18.678a6.763,6.763,0,0,1-2.29-1.445,6.515,6.515,0,0,1-1.5-2.295,8,8,0,0,1-.547-3A7.644,7.644,0,0,1,1.8,8.106,6.382,6.382,0,0,1,4.37,5.572a7.705,7.705,0,0,1,3.706-.879,7.488,7.488,0,0,1,4.141,1.143A6.255,6.255,0,0,1,14.746,8.98l-2.734,1a3.866,3.866,0,0,0-1.514-1.9,4.323,4.323,0,0,0-2.422-.684A4.145,4.145,0,0,0,4.99,8.619a4.528,4.528,0,0,0-1.211,3.32A4.534,4.534,0,0,0,5,15.265,4.14,4.14,0,0,0,8.076,16.5a4.307,4.307,0,0,0,2.417-.688A3.883,3.883,0,0,0,12.012,13.9l2.734,1a6.28,6.28,0,0,1-2.529,3.149A7.464,7.464,0,0,1,8.076,19.2Zm13.379,0a6.313,6.313,0,0,1-2.842-.615,4.6,4.6,0,0,1-1.948-1.807,5.384,5.384,0,0,1-.708-2.8,4.911,4.911,0,0,1,1.523-3.809,5.652,5.652,0,0,1,3.975-1.4,5.665,5.665,0,0,1,3.984,1.4,4.911,4.911,0,0,1,1.523,3.809,4.938,4.938,0,0,1-1.523,3.823A5.654,5.654,0,0,1,21.455,19.2Zm-.029-2.236a2.577,2.577,0,0,0,1.987-.82,3.071,3.071,0,0,0,.757-2.168,3.071,3.071,0,0,0-.757-2.168,2.577,2.577,0,0,0-1.987-.82,2.483,2.483,0,0,0-1.929.825,3.1,3.1,0,0,0-.747,2.163,3.1,3.1,0,0,0,.747,2.163A2.483,2.483,0,0,0,21.426,16.959ZM34.98,8.766a3.914,3.914,0,0,1,2.773.9,3.349,3.349,0,0,1,.967,2.573V19H35.9V12.848a1.749,1.749,0,0,0-.5-1.387,1.9,1.9,0,0,0-1.294-.439,2.643,2.643,0,0,0-.84.127,2.158,2.158,0,0,0-.7.4,1.748,1.748,0,0,0-.5.757,3.5,3.5,0,0,0-.19,1.162V19H29.053V8.961h2.813v1.113A3.868,3.868,0,0,1,34.98,8.766Zm12.129-2.52h-.059q-.273,0-.415,0t-.4.034a1.621,1.621,0,0,0-.405.088,2.065,2.065,0,0,0-.337.181.9.9,0,0,0-.293.293,1.77,1.77,0,0,0-.176.435,2.269,2.269,0,0,0-.073.605V8.961h2.158v2.158H44.951V19h-2.8V11.119H40.186V8.961h1.963V7.877A5.871,5.871,0,0,1,42.275,6.6a3.893,3.893,0,0,1,.342-.972,2.275,2.275,0,0,1,.571-.7,3.371,3.371,0,0,1,.742-.469,4.241,4.241,0,0,1,.923-.283,8.1,8.1,0,0,1,1.06-.142Q46.436,4,47.109,4ZM51.4,10.553a3.259,3.259,0,0,1,1.318-1.206,4.023,4.023,0,0,1,1.963-.5v2.51a3.8,3.8,0,0,0-2.4.605,2.643,2.643,0,0,0-.742,2.148V19H48.7V8.961h2.7ZM60.947,19.2a6.313,6.313,0,0,1-2.842-.615,4.6,4.6,0,0,1-1.948-1.807,5.384,5.384,0,0,1-.708-2.8,4.911,4.911,0,0,1,1.523-3.809,6.368,6.368,0,0,1,7.959,0,4.911,4.911,0,0,1,1.523,3.809,4.938,4.938,0,0,1-1.523,3.823A5.654,5.654,0,0,1,60.947,19.2Zm-.029-2.236a2.577,2.577,0,0,0,1.987-.82,3.071,3.071,0,0,0,.757-2.168,3.071,3.071,0,0,0-.757-2.168,2.577,2.577,0,0,0-1.987-.82,2.483,2.483,0,0,0-1.929.825,3.1,3.1,0,0,0-.747,2.163,3.1,3.1,0,0,0,.747,2.163A2.483,2.483,0,0,0,60.918,16.959ZM74.473,8.766a3.914,3.914,0,0,1,2.773.9,3.349,3.349,0,0,1,.967,2.573V19H75.391V12.848a1.749,1.749,0,0,0-.5-1.387,1.9,1.9,0,0,0-1.294-.439,2.643,2.643,0,0,0-.84.127,2.158,2.158,0,0,0-.7.4,1.748,1.748,0,0,0-.5.757,3.5,3.5,0,0,0-.19,1.162V19H68.545V8.961h2.813v1.113A3.868,3.868,0,0,1,74.473,8.766ZM84.678,19a3.032,3.032,0,0,1-2.266-.815,3.172,3.172,0,0,1-.8-2.319V11.119H79.639V8.961h.635a1.656,1.656,0,0,0,1.25-.42,2.162,2.162,0,0,0,.4-1.494V5.719h2.539V8.961h2.07v2.158h-2.07v4.443q0,1.3,1.162,1.3h.908V19ZM96.9,16.275a9.392,9.392,0,0,0,.244,2.451V19H94.521L94.3,17.906a3.264,3.264,0,0,1-1.406.967,5.183,5.183,0,0,1-1.816.322,4.776,4.776,0,0,1-.937-.088,3.187,3.187,0,0,1-.845-.3,2.564,2.564,0,0,1-.7-.522,2.291,2.291,0,0,1-.469-.8,3.17,3.17,0,0,1-.176-1.089,3.02,3.02,0,0,1,.186-1.089,2.552,2.552,0,0,1,.488-.815,2.962,2.962,0,0,1,.791-.6,6.053,6.053,0,0,1,1-.43A11.9,11.9,0,0,1,91.6,13.16l1.65-.371A1.82,1.82,0,0,0,94,12.472a.633.633,0,0,0,.22-.5A1.036,1.036,0,0,0,93.726,11a2.3,2.3,0,0,0-1.2-.293,1.721,1.721,0,0,0-1.963,1.533l-2.49-.449A3.371,3.371,0,0,1,89.531,9.5a5.783,5.783,0,0,1,3.154-.737q4.219,0,4.219,3.623Zm-4.951,1.016a2.262,2.262,0,0,0,1.738-.728,3.066,3.066,0,0,0,.674-2.153l-2.383.674a2.816,2.816,0,0,0-1,.41.842.842,0,0,0-.347.723.935.935,0,0,0,.371.8A1.536,1.536,0,0,0,91.953,17.291Zm12,1.895a5.364,5.364,0,0,1-3.877-1.445,4.992,4.992,0,0,1-1.5-3.77,4.981,4.981,0,0,1,1.5-3.77,5.96,5.96,0,0,1,7.134-.469,4.316,4.316,0,0,1,1.68,2.725l-2.6.283a2.226,2.226,0,0,0-.84-1.318,2.554,2.554,0,0,0-1.523-.439,2.3,2.3,0,0,0-1.836.82,3.216,3.216,0,0,0-.7,2.168,3.22,3.22,0,0,0,.7,2.163,2.3,2.3,0,0,0,1.836.825,2.532,2.532,0,0,0,1.519-.439,2.277,2.277,0,0,0,.845-1.318l2.6.283a4.328,4.328,0,0,1-1.694,2.725A5.327,5.327,0,0,1,103.955,19.186Zm8.369-11.729a1.579,1.579,0,0,1-1.152-.474,1.555,1.555,0,0,1-.479-1.147,1.536,1.536,0,0,1,.483-1.138,1.584,1.584,0,0,1,1.147-.474,1.626,1.626,0,0,1,1.611,1.611,1.626,1.626,0,0,1-1.611,1.621ZM110.889,19V8.961h2.832V19Zm9.551-11.406L123,4l1.387.977-2.217,2.617Zm.869,11.6a6.313,6.313,0,0,1-2.842-.615,4.6,4.6,0,0,1-1.948-1.807,5.384,5.384,0,0,1-.708-2.8,4.911,4.911,0,0,1,1.523-3.809,6.368,6.368,0,0,1,7.959,0,4.911,4.911,0,0,1,1.523,3.809,4.938,4.938,0,0,1-1.523,3.823A5.654,5.654,0,0,1,121.309,19.2Zm-.029-2.236a2.577,2.577,0,0,0,1.987-.82,3.071,3.071,0,0,0,.757-2.168,3.071,3.071,0,0,0-.757-2.168,2.577,2.577,0,0,0-1.987-.82,2.483,2.483,0,0,0-1.929.825,3.1,3.1,0,0,0-.747,2.163,3.1,3.1,0,0,0,.747,2.163A2.483,2.483,0,0,0,121.279,16.959Zm13.555-8.193a3.914,3.914,0,0,1,2.773.9,3.349,3.349,0,0,1,.967,2.573V19h-2.822V12.848a1.749,1.749,0,0,0-.5-1.387,1.9,1.9,0,0,0-1.294-.439,2.643,2.643,0,0,0-.84.127,2.158,2.158,0,0,0-.7.4,1.748,1.748,0,0,0-.5.757,3.5,3.5,0,0,0-.19,1.162V19h-2.812V8.961h2.813v1.113A3.868,3.868,0,0,1,134.834,8.766Z" transform="translate(558 6638)" fill="#00223d"/>
    <path id="Trazado_28973" data-name="Trazado 28973" d="M9.277,19,5.605,12.789h-.85V19H1.826V4.889H6.943a5.919,5.919,0,0,1,2.051.327,3.546,3.546,0,0,1,1.421.908,3.889,3.889,0,0,1,.8,1.333,4.876,4.876,0,0,1,.269,1.65,3.446,3.446,0,0,1-.771,2.319A3.888,3.888,0,0,1,8.5,12.643L12.744,19ZM4.756,7.32v3.369H6.484q2.2,0,2.2-1.68a1.53,1.53,0,0,0-.537-1.24,2.554,2.554,0,0,0-1.66-.449Zm18.613,6.514-.029.674H15.9a2.6,2.6,0,0,0,.8,1.836,2.561,2.561,0,0,0,1.768.635,2.468,2.468,0,0,0,1.323-.347,2.131,2.131,0,0,0,.845-1.011L23.213,16a4.383,4.383,0,0,1-1.758,2.354,5.226,5.226,0,0,1-2.969.84,5.435,5.435,0,0,1-3.911-1.382,5.042,5.042,0,0,1-1.45-3.833,5.072,5.072,0,0,1,1.455-3.833,5.273,5.273,0,0,1,3.818-1.4A5.04,5.04,0,0,1,22,10.025,5.019,5.019,0,0,1,23.369,13.834Zm-4.951-3.1a2.222,2.222,0,0,0-2.441,1.934h4.609a2.114,2.114,0,0,0-.693-1.436A2.2,2.2,0,0,0,18.418,10.738ZM29.043,19.2a5.61,5.61,0,0,1-2.93-.7,2.972,2.972,0,0,1-1.436-2.09l2.354-.664a1.891,1.891,0,0,0,2.012,1.494A2.078,2.078,0,0,0,30.068,17a.8.8,0,0,0,.4-.776.821.821,0,0,0-.166-.518,1.315,1.315,0,0,0-.513-.371,6.387,6.387,0,0,0-.684-.264q-.337-.107-.894-.259t-.928-.288a6.215,6.215,0,0,1-.884-.376,3.77,3.77,0,0,1-.732-.518,2.086,2.086,0,0,1-.547-.786,2.836,2.836,0,0,1-.19-1.074,2.565,2.565,0,0,1,1.089-2.246,4.865,4.865,0,0,1,2.847-.762,4.988,4.988,0,0,1,2.627.645,2.917,2.917,0,0,1,1.348,2.012l-2.178.488a1.706,1.706,0,0,0-1.787-1.27,1.957,1.957,0,0,0-.986.225.722.722,0,0,0-.391.664.761.761,0,0,0,.059.3.6.6,0,0,0,.205.244,2.991,2.991,0,0,0,.283.186,2.137,2.137,0,0,0,.4.161q.264.083.439.127l.513.132.522.137q.537.146.942.293a5.519,5.519,0,0,1,.864.41,3.1,3.1,0,0,1,.757.591,2.635,2.635,0,0,1,.493.83,3.066,3.066,0,0,1,.2,1.118,3.02,3.02,0,0,1-.337,1.455,2.529,2.529,0,0,1-.923.981,4.492,4.492,0,0,1-1.3.527A6.763,6.763,0,0,1,29.043,19.2Zm10.83,0a6.313,6.313,0,0,1-2.842-.615,4.6,4.6,0,0,1-1.948-1.807,5.384,5.384,0,0,1-.708-2.8A4.911,4.911,0,0,1,35.9,10.162a5.652,5.652,0,0,1,3.975-1.4,5.665,5.665,0,0,1,3.984,1.4,4.911,4.911,0,0,1,1.523,3.809,4.938,4.938,0,0,1-1.523,3.823A5.654,5.654,0,0,1,39.873,19.2Zm-.029-2.236a2.577,2.577,0,0,0,1.987-.82,3.071,3.071,0,0,0,.757-2.168,3.071,3.071,0,0,0-.757-2.168,2.577,2.577,0,0,0-1.987-.82,2.483,2.483,0,0,0-1.929.825,3.1,3.1,0,0,0-.747,2.163,3.1,3.1,0,0,0,.747,2.163A2.483,2.483,0,0,0,39.844,16.959ZM47.471,19V4h2.842V19Zm12.4-10.039h2.813V19H60.02l-.068-1.211A3.834,3.834,0,0,1,56.758,19.2a3.914,3.914,0,0,1-2.773-.9,3.349,3.349,0,0,1-.967-2.573V8.961H55.84v6.152a1.735,1.735,0,0,0,.5,1.377,1.909,1.909,0,0,0,1.3.439,2.264,2.264,0,0,0,1.6-.571,2.454,2.454,0,0,0,.63-1.86ZM70.137,19.186A5.364,5.364,0,0,1,66.26,17.74a4.992,4.992,0,0,1-1.5-3.77,4.981,4.981,0,0,1,1.5-3.77,5.96,5.96,0,0,1,7.134-.469,4.316,4.316,0,0,1,1.68,2.725l-2.6.283a2.226,2.226,0,0,0-.84-1.318,2.554,2.554,0,0,0-1.523-.439,2.3,2.3,0,0,0-1.836.82,3.216,3.216,0,0,0-.7,2.168,3.22,3.22,0,0,0,.7,2.163,2.3,2.3,0,0,0,1.836.825,2.532,2.532,0,0,0,1.519-.439,2.277,2.277,0,0,0,.845-1.318l2.6.283a4.328,4.328,0,0,1-1.694,2.725A5.327,5.327,0,0,1,70.137,19.186ZM78.506,7.457a1.579,1.579,0,0,1-1.152-.474,1.555,1.555,0,0,1-.479-1.147A1.536,1.536,0,0,1,77.358,4.7a1.584,1.584,0,0,1,1.147-.474,1.626,1.626,0,0,1,1.611,1.611,1.626,1.626,0,0,1-1.611,1.621ZM77.07,19V8.961H79.9V19ZM86.621,7.594,89.18,4l1.387.977L88.35,7.594Zm.869,11.6a6.313,6.313,0,0,1-2.842-.615A4.6,4.6,0,0,1,82.7,16.773a5.384,5.384,0,0,1-.708-2.8,4.911,4.911,0,0,1,1.523-3.809,6.368,6.368,0,0,1,7.959,0A4.911,4.911,0,0,1,93,13.971a4.938,4.938,0,0,1-1.523,3.823A5.654,5.654,0,0,1,87.49,19.2Zm-.029-2.236a2.577,2.577,0,0,0,1.987-.82,3.071,3.071,0,0,0,.757-2.168,3.071,3.071,0,0,0-.757-2.168,2.577,2.577,0,0,0-1.987-.82,2.483,2.483,0,0,0-1.929.825,3.1,3.1,0,0,0-.747,2.163,3.1,3.1,0,0,0,.747,2.163A2.483,2.483,0,0,0,87.461,16.959Zm13.555-8.193a3.914,3.914,0,0,1,2.773.9,3.349,3.349,0,0,1,.967,2.573V19h-2.822V12.848a1.749,1.749,0,0,0-.5-1.387,1.9,1.9,0,0,0-1.294-.439,2.643,2.643,0,0,0-.84.127,2.158,2.158,0,0,0-.7.4,1.748,1.748,0,0,0-.5.757,3.5,3.5,0,0,0-.19,1.162V19H95.088V8.961H97.9v1.113A3.868,3.868,0,0,1,101.016,8.766Z" transform="translate(877 6638)" fill="#00223d"/>
    <path id="Trazado_28958" data-name="Trazado 28958" d="M129.188,19h-2.92L125.34,8.365,121.766,19h-1.895L116.3,8.365,115.359,19h-2.93l1.182-14.111h4.18l3.008,8.857,3.047-8.857h4.18Zm12.08-5.166-.029.674H133.8a2.6,2.6,0,0,0,.8,1.836,2.561,2.561,0,0,0,1.768.635,2.468,2.468,0,0,0,1.323-.347,2.131,2.131,0,0,0,.845-1.011l2.578.381a4.383,4.383,0,0,1-1.758,2.354,5.226,5.226,0,0,1-2.969.84,5.435,5.435,0,0,1-3.911-1.382,5.042,5.042,0,0,1-1.45-3.833,5.072,5.072,0,0,1,1.455-3.833,5.273,5.273,0,0,1,3.818-1.4,5.04,5.04,0,0,1,3.6,1.279A5.019,5.019,0,0,1,141.268,13.834Zm-4.951-3.1a2.222,2.222,0,0,0-2.441,1.934h4.609a2.114,2.114,0,0,0-.693-1.436A2.2,2.2,0,0,0,136.316,10.738ZM150.525,4h2.813V19h-2.666l-.068-1.309a2.867,2.867,0,0,1-1.274,1.138,4.29,4.29,0,0,1-1.88.405,4.883,4.883,0,0,1-1.875-.361A4.516,4.516,0,0,1,143,16.2a6.106,6.106,0,0,1-.381-2.2,5.708,5.708,0,0,1,.664-2.8,4.55,4.55,0,0,1,1.753-1.821,4.827,4.827,0,0,1,2.417-.615,4.4,4.4,0,0,1,1.821.366,2.843,2.843,0,0,1,1.255,1.04Zm-2.432,12.9a2.5,2.5,0,0,0,1.9-.8,2.932,2.932,0,0,0,.757-2.1,2.938,2.938,0,0,0-.762-2.1,2.5,2.5,0,0,0-1.895-.806,2.53,2.53,0,0,0-1.909.791A2.937,2.937,0,0,0,145.428,14a2.924,2.924,0,0,0,.757,2.109A2.53,2.53,0,0,0,148.094,16.9Zm9.59-9.443a1.579,1.579,0,0,1-1.152-.474,1.555,1.555,0,0,1-.479-1.147,1.536,1.536,0,0,1,.483-1.138,1.584,1.584,0,0,1,1.147-.474,1.626,1.626,0,0,1,1.611,1.611,1.626,1.626,0,0,1-1.611,1.621ZM156.248,19V8.961h2.832V19Zm10.42.2a6.313,6.313,0,0,1-2.842-.615,4.6,4.6,0,0,1-1.948-1.807,5.384,5.384,0,0,1-.708-2.8,4.911,4.911,0,0,1,1.523-3.809,6.368,6.368,0,0,1,7.959,0,4.911,4.911,0,0,1,1.523,3.809,4.938,4.938,0,0,1-1.523,3.823A5.654,5.654,0,0,1,166.668,19.2Zm-.029-2.236a2.577,2.577,0,0,0,1.987-.82,3.071,3.071,0,0,0,.757-2.168,3.071,3.071,0,0,0-.757-2.168,2.577,2.577,0,0,0-1.987-.82,2.483,2.483,0,0,0-1.929.825,3.1,3.1,0,0,0-.747,2.163,3.1,3.1,0,0,0,.747,2.163A2.483,2.483,0,0,0,166.639,16.959Z" transform="translate(526 6493)" fill="#002b45"/>
    <path id="Trazado_28959" data-name="Trazado 28959" d="M106.275,27l-1.436-4.074h-8.3L95.105,27h-4.2L98.182,7.244H103.2L110.473,27Zm-8.531-7.506h5.893L100.7,11.113Zm23.461,7.779a11.027,11.027,0,0,1-4.026-.725,9.468,9.468,0,0,1-3.206-2.023,9.121,9.121,0,0,1-2.105-3.213,11.2,11.2,0,0,1-.766-4.2,10.7,10.7,0,0,1,1.313-5.366,8.935,8.935,0,0,1,3.6-3.548,10.787,10.787,0,0,1,5.188-1.23,10.483,10.483,0,0,1,5.8,1.6,8.756,8.756,0,0,1,3.541,4.4l-3.828,1.395A5.412,5.412,0,0,0,124.6,11.7a6.053,6.053,0,0,0-3.391-.957,5.8,5.8,0,0,0-4.32,1.723,6.339,6.339,0,0,0-1.7,4.648,6.348,6.348,0,0,0,1.7,4.655,5.8,5.8,0,0,0,4.313,1.729,6.03,6.03,0,0,0,3.384-.964,5.436,5.436,0,0,0,2.126-2.673l3.828,1.395A8.792,8.792,0,0,1,127,25.667,10.45,10.45,0,0,1,121.205,27.273ZM145.363,7.244v3.609h-4.689V27h-4.061V10.854H131.9V7.244ZM156.52,27.273a10.739,10.739,0,0,1-5.188-1.237,8.97,8.97,0,0,1-3.6-3.562,10.711,10.711,0,0,1-1.312-5.359,10.7,10.7,0,0,1,1.313-5.366,8.936,8.936,0,0,1,3.6-3.548,11.54,11.54,0,0,1,10.37,0,8.947,8.947,0,0,1,3.6,3.548,10.7,10.7,0,0,1,1.313,5.366,10.711,10.711,0,0,1-1.312,5.359,8.97,8.97,0,0,1-3.6,3.562A10.71,10.71,0,0,1,156.52,27.273Zm-4.32-5.489a6.261,6.261,0,0,0,8.641,0,6.381,6.381,0,0,0,1.7-4.669,6.339,6.339,0,0,0-1.7-4.648,6.279,6.279,0,0,0-8.641,0,6.339,6.339,0,0,0-1.7,4.648A6.381,6.381,0,0,0,152.2,21.784ZM177.656,27V7.244h4.1V27Zm9.2,0V7.244h4.1V27Z" transform="translate(526 6456)" fill="#002b45"/>
    <path id="Trazado_28971" data-name="Trazado 28971" d="M99.81,7.467H94.438v3.2h4.639v2.549H94.438V19H91.489V4.889h8.32Zm3.564-.01a1.579,1.579,0,0,1-1.152-.474,1.555,1.555,0,0,1-.479-1.147,1.536,1.536,0,0,1,.483-1.138,1.584,1.584,0,0,1,1.147-.474,1.626,1.626,0,0,1,1.611,1.611,1.626,1.626,0,0,1-1.611,1.621ZM101.938,19V8.961h2.832V19Zm11.67-10.234a3.914,3.914,0,0,1,2.773.9,3.349,3.349,0,0,1,.967,2.573V19h-2.822V12.848a1.749,1.749,0,0,0-.5-1.387,1.9,1.9,0,0,0-1.294-.439,2.643,2.643,0,0,0-.84.127,2.158,2.158,0,0,0-.7.4,1.748,1.748,0,0,0-.5.757,3.5,3.5,0,0,0-.19,1.162V19h-2.812V8.961h2.813v1.113A3.868,3.868,0,0,1,113.608,8.766Zm14.7,7.51a9.391,9.391,0,0,0,.244,2.451V19h-2.627l-.225-1.094a3.264,3.264,0,0,1-1.406.967,5.183,5.183,0,0,1-1.816.322,4.776,4.776,0,0,1-.937-.088,3.187,3.187,0,0,1-.845-.3,2.564,2.564,0,0,1-.7-.522,2.291,2.291,0,0,1-.469-.8,3.17,3.17,0,0,1-.176-1.089,3.02,3.02,0,0,1,.186-1.089,2.552,2.552,0,0,1,.488-.815,2.962,2.962,0,0,1,.791-.6,6.053,6.053,0,0,1,1-.43A11.9,11.9,0,0,1,123,13.16l1.65-.371a1.82,1.82,0,0,0,.747-.317.633.633,0,0,0,.22-.5,1.036,1.036,0,0,0-.493-.967,2.3,2.3,0,0,0-1.2-.293,1.721,1.721,0,0,0-1.963,1.533l-2.49-.449a3.371,3.371,0,0,1,1.455-2.29,5.783,5.783,0,0,1,3.154-.737q4.219,0,4.219,3.623Zm-4.951,1.016a2.262,2.262,0,0,0,1.738-.728,3.066,3.066,0,0,0,.674-2.153l-2.383.674a2.816,2.816,0,0,0-1,.41.842.842,0,0,0-.347.723.935.935,0,0,0,.371.8A1.536,1.536,0,0,0,123.354,17.291ZM131.04,19V4h2.842V19Z" transform="translate(833 6493)" fill="#002b45"/>
    <path id="Trazado_28972" data-name="Trazado 28972" d="M72.175,27l-1.436-4.074h-8.3L61,27h-4.2L64.081,7.244H69.1L76.372,27Zm-8.531-7.506h5.893L66.6,11.113ZM87.1,27.273a11.027,11.027,0,0,1-4.026-.725,9.468,9.468,0,0,1-3.206-2.023,9.121,9.121,0,0,1-2.105-3.213,11.2,11.2,0,0,1-.766-4.2,10.7,10.7,0,0,1,1.313-5.366,8.935,8.935,0,0,1,3.6-3.548A10.787,10.787,0,0,1,87.1,6.971a10.483,10.483,0,0,1,5.8,1.6,8.756,8.756,0,0,1,3.541,4.4l-3.828,1.395A5.412,5.412,0,0,0,90.5,11.7a6.053,6.053,0,0,0-3.391-.957,5.8,5.8,0,0,0-4.32,1.723,6.339,6.339,0,0,0-1.7,4.648,6.348,6.348,0,0,0,1.7,4.655A5.8,5.8,0,0,0,87.1,23.5a6.03,6.03,0,0,0,3.384-.964,5.436,5.436,0,0,0,2.126-2.673l3.828,1.395A8.792,8.792,0,0,1,92.9,25.667,10.45,10.45,0,0,1,87.1,27.273ZM111.263,7.244v3.609h-4.689V27h-4.061V10.854H97.8V7.244Zm11.156,20.029a10.739,10.739,0,0,1-5.188-1.237,8.969,8.969,0,0,1-3.6-3.562,10.711,10.711,0,0,1-1.312-5.359,10.7,10.7,0,0,1,1.313-5.366,8.935,8.935,0,0,1,3.6-3.548,11.54,11.54,0,0,1,10.37,0,8.947,8.947,0,0,1,3.6,3.548,10.7,10.7,0,0,1,1.313,5.366,10.711,10.711,0,0,1-1.312,5.359,8.97,8.97,0,0,1-3.6,3.562A10.71,10.71,0,0,1,122.419,27.273Zm-4.32-5.489a6.261,6.261,0,0,0,8.641,0,6.381,6.381,0,0,0,1.7-4.669,6.339,6.339,0,0,0-1.7-4.648,6.279,6.279,0,0,0-8.641,0,6.339,6.339,0,0,0-1.7,4.648A6.381,6.381,0,0,0,118.1,21.784ZM143.556,27V7.244h4.1V27Zm9.2,0V7.244h4.1V27Zm9.2,0V7.244h4.1V27Z" transform="translate(833 6456)" fill="#002b45"/>
    <path id="Trazado_28962" data-name="Trazado 28962" d="M0,0H808" transform="translate(249.5 6611.5)" fill="none" stroke="#707070" stroke-width="4"/>
    <path id="Trazado_28960" data-name="Trazado 28960" d="M0,0V379.275" transform="translate(517.5 6448.5)" fill="none" stroke="#707070" stroke-width="3"/>
    <path id="Trazado_28964" data-name="Trazado 28964" d="M0,0V116" transform="translate(465.5 6625.5)" fill="none" stroke="#707070" stroke-width="3"/>
    <path id="Trazado_28968" data-name="Trazado 28968" d="M0,0V116" transform="translate(772.5 6625.5)" fill="none" stroke="#707070" stroke-width="3"/>
    <path id="Trazado_28970" data-name="Trazado 28970" d="M0,0V379.275" transform="translate(824.5 6448.5)" fill="none" stroke="#707070" stroke-width="3"/>
    <g id="Trazado_28961" data-name="Trazado 28961" transform="translate(450 6597)" fill="#fff">
      <path d="M 15 28.5 C 11.39402008056641 28.5 8.003870010375977 27.09575080871582 5.454060077667236 24.54594039916992 C 2.904249906539917 21.99612998962402 1.5 18.60597991943359 1.5 15 C 1.5 11.39402008056641 2.904249906539917 8.003870010375977 5.454060077667236 5.454060077667236 C 8.003870010375977 2.904249906539917 11.39402008056641 1.5 15 1.5 C 18.60597991943359 1.5 21.99612998962402 2.904249906539917 24.54594039916992 5.454060077667236 C 27.09575080871582 8.003870010375977 28.5 11.39402008056641 28.5 15 C 28.5 18.60597991943359 27.09575080871582 21.99612998962402 24.54594039916992 24.54594039916992 C 21.99612998962402 27.09575080871582 18.60597991943359 28.5 15 28.5 Z" stroke="none"/>
      <path d="M 15 3 C 11.79467964172363 3 8.781219482421875 4.248220443725586 6.514720916748047 6.514720916748047 C 4.248220443725586 8.781219482421875 3 11.79467964172363 3 15 C 3 18.20532035827637 4.248220443725586 21.21878051757813 6.514720916748047 23.48527908325195 C 8.781219482421875 25.75177955627441 11.79467964172363 27 15 27 C 18.20532035827637 27 21.21878051757813 25.75177955627441 23.48527908325195 23.48527908325195 C 25.75177955627441 21.21878051757813 27 18.20532035827637 27 15 C 27 11.79467964172363 25.75177955627441 8.781219482421875 23.48527908325195 6.514720916748047 C 21.21878051757813 4.248220443725586 18.20532035827637 3 15 3 M 15 0 C 23.28426933288574 0 30 6.715730667114258 30 15 C 30 23.28426933288574 23.28426933288574 30 15 30 C 6.715730667114258 30 0 23.28426933288574 0 15 C 0 6.715730667114258 6.715730667114258 0 15 0 Z" stroke="none" fill="#707070"/>
    </g>
    <g id="Trazado_28967" data-name="Trazado 28967" transform="translate(757 6597)" fill="#fff">
      <path d="M 15 28.5 C 11.39402008056641 28.5 8.003870010375977 27.09575080871582 5.454060077667236 24.54594039916992 C 2.904249906539917 21.99612998962402 1.5 18.60597991943359 1.5 15 C 1.5 11.39402008056641 2.904249906539917 8.003870010375977 5.454060077667236 5.454060077667236 C 8.003870010375977 2.904249906539917 11.39402008056641 1.5 15 1.5 C 18.60597991943359 1.5 21.99612998962402 2.904249906539917 24.54594039916992 5.454060077667236 C 27.09575080871582 8.003870010375977 28.5 11.39402008056641 28.5 15 C 28.5 18.60597991943359 27.09575080871582 21.99612998962402 24.54594039916992 24.54594039916992 C 21.99612998962402 27.09575080871582 18.60597991943359 28.5 15 28.5 Z" stroke="none"/>
      <path d="M 15 3 C 11.79467964172363 3 8.781219482421875 4.248220443725586 6.514720916748047 6.514720916748047 C 4.248220443725586 8.781219482421875 3 11.79467964172363 3 15 C 3 18.20532035827637 4.248220443725586 21.21878051757813 6.514720916748047 23.48527908325195 C 8.781219482421875 25.75177955627441 11.79467964172363 27 15 27 C 18.20532035827637 27 21.21878051757813 25.75177955627441 23.48527908325195 23.48527908325195 C 25.75177955627441 21.21878051757813 27 18.20532035827637 27 15 C 27 11.79467964172363 25.75177955627441 8.781219482421875 23.48527908325195 6.514720916748047 C 21.21878051757813 4.248220443725586 18.20532035827637 3 15 3 M 15 0 C 23.28426933288574 0 30 6.715730667114258 30 15 C 30 23.28426933288574 23.28426933288574 30 15 30 C 6.715730667114258 30 0 23.28426933288574 0 15 C 0 6.715730667114258 6.715730667114258 0 15 0 Z" stroke="none" fill="#707070"/>
    </g>
    <path id="Trazado_28963" data-name="Trazado 28963" d="M7,0A7,7,0,1,1,0,7,7,7,0,0,1,7,0Z" transform="translate(458 6605)" fill="#65b3f2"/>
    <path id="Trazado_28969" data-name="Trazado 28969" d="M7,0A7,7,0,1,1,0,7,7,7,0,0,1,7,0Z" transform="translate(765 6605)" fill="#65b3f2"/>
  </g>
</svg>
